<?xml version="1.0" encoding="UTF-8" standalone="no"?>
<svg
   xmlns:dc="http://purl.org/dc/elements/1.1/"
   xmlns:cc="http://creativecommons.org/ns#"
   xmlns:rdf="http://www.w3.org/1999/02/22-rdf-syntax-ns#"
   xmlns:svg="http://www.w3.org/2000/svg"
   xmlns="http://www.w3.org/2000/svg"
   xmlns:xlink="http://www.w3.org/1999/xlink"
   xmlns:sodipodi="http://sodipodi.sourceforge.net/DTD/sodipodi-0.dtd"
   xmlns:inkscape="http://www.inkscape.org/namespaces/inkscape"
   width="1701.4025"
   height="464.02814"
   viewBox="0 0 450.16274 122.77411"
   version="1.1"
   id="svg4195"
   inkscape:version="1.0.1 (1.0.1+r74)"
   sodipodi:docname="energy-minimum.svg">
  <defs
     id="defs4189">
    <marker
       style="overflow:visible;"
       id="Arrow2Lend"
       refX="0.0"
       refY="0.0"
       orient="auto"
       inkscape:stockid="Arrow2Lend"
       inkscape:isstock="true">
      <path
         transform="scale(1.1) rotate(180) translate(1,0)"
         d="M 8.7185878,4.0337352 L -2.2072895,0.016013256 L 8.7185884,-4.0017078 C 6.9730900,-1.6296469 6.9831476,1.6157441 8.7185878,4.0337352 z "
         style="fill-rule:evenodd;stroke-width:0.625;stroke-linejoin:round;stroke:#000000;stroke-opacity:1;fill:#000000;fill-opacity:1"
         id="path2677" />
    </marker>
    <marker
       style="overflow:visible"
       id="marker18923"
       refX="0"
       refY="0"
       orient="auto"
       inkscape:stockid="Arrow2Mend"
       inkscape:isstock="true">
      <path
         transform="scale(-0.6)"
         d="M 8.7185878,4.0337352 -2.2072895,0.01601326 8.7185884,-4.0017078 c -1.7454984,2.3720609 -1.7354408,5.6174519 -6e-7,8.035443 z"
         style="fill:#000000;fill-opacity:1;fill-rule:evenodd;stroke:#000000;stroke-width:0.625;stroke-linejoin:round;stroke-opacity:1"
         id="path18921" />
    </marker>
    <marker
       style="overflow:visible"
       id="marker10009"
       refX="0"
       refY="0"
       orient="auto"
       inkscape:stockid="Arrow2Mend"
       inkscape:isstock="true"
       inkscape:collect="always">
      <path
         transform="scale(-0.6)"
         d="M 8.7185878,4.0337352 -2.2072895,0.01601326 8.7185884,-4.0017078 c -1.7454984,2.3720609 -1.7354408,5.6174519 -6e-7,8.035443 z"
         style="fill:#000000;fill-opacity:1;fill-rule:evenodd;stroke:#000000;stroke-width:0.625;stroke-linejoin:round;stroke-opacity:1"
         id="path10007" />
    </marker>
    <marker
       style="overflow:visible"
       id="marker8222"
       refX="0"
       refY="0"
       orient="auto"
       inkscape:stockid="Arrow2Mend"
       inkscape:isstock="true">
      <path
         transform="scale(-0.6)"
         d="M 8.7185878,4.0337352 -2.2072895,0.01601326 8.7185884,-4.0017078 c -1.7454984,2.3720609 -1.7354408,5.6174519 -6e-7,8.035443 z"
         style="fill:#08c100;fill-opacity:0;fill-rule:evenodd;stroke:#000000;stroke-width:0.625;stroke-linejoin:round;stroke-opacity:1"
         id="path8220" />
    </marker>
    <marker
       style="overflow:visible"
       id="marker8182"
       refX="0"
       refY="0"
       orient="auto"
       inkscape:stockid="Arrow2Mend"
       inkscape:isstock="true">
      <path
         transform="scale(-0.6)"
         d="M 8.7185878,4.0337352 -2.2072895,0.01601326 8.7185884,-4.0017078 c -1.7454984,2.3720609 -1.7354408,5.6174519 -6e-7,8.035443 z"
         style="fill:#08c100;fill-opacity:0;fill-rule:evenodd;stroke:#000000;stroke-width:0.625;stroke-linejoin:round;stroke-opacity:1"
         id="path8180" />
    </marker>
    <marker
       style="overflow:visible"
       id="marker8026"
       refX="0"
       refY="0"
       orient="auto"
       inkscape:stockid="Arrow2Mend"
       inkscape:isstock="true">
      <path
         transform="scale(-0.6)"
         d="M 8.7185878,4.0337352 -2.2072895,0.01601326 8.7185884,-4.0017078 c -1.7454984,2.3720609 -1.7354408,5.6174519 -6e-7,8.035443 z"
         style="fill:#08c100;fill-opacity:0;fill-rule:evenodd;stroke:#000000;stroke-width:0.625;stroke-linejoin:round;stroke-opacity:1"
         id="path8024" />
    </marker>
    <linearGradient
       inkscape:collect="always"
       id="linearGradient4865">
      <stop
         style="stop-color:#f0fff9;stop-opacity:1"
         offset="0"
         id="stop4861" />
      <stop
         style="stop-color:#36e621;stop-opacity:1"
         offset="1"
         id="stop4863" />
    </linearGradient>
    <marker
       style="overflow:visible"
       id="Arrow2Mend"
       refX="0"
       refY="0"
       orient="auto"
       inkscape:stockid="Arrow2Mend"
       inkscape:isstock="true"
       inkscape:collect="always">
      <path
         transform="scale(-0.6)"
         d="M 8.7185878,4.0337352 -2.2072895,0.01601326 8.7185884,-4.0017078 c -1.7454984,2.3720609 -1.7354408,5.6174519 -6e-7,8.035443 z"
         style="fill:#000000;fill-opacity:1;fill-rule:evenodd;stroke:#000000;stroke-width:0.625;stroke-linejoin:round;stroke-opacity:1"
         id="path2683" />
    </marker>
    <marker
       style="overflow:visible"
       id="Arrow2Mend-7"
       refX="0"
       refY="0"
       orient="auto"
       inkscape:stockid="Arrow2Mend"
       inkscape:isstock="true">
      <path
         transform="scale(-0.6)"
         d="M 8.7185878,4.0337352 -2.2072895,0.01601326 8.7185884,-4.0017078 c -1.7454984,2.3720609 -1.7354408,5.6174519 -6e-7,8.035443 z"
         style="fill:#000000;fill-opacity:1;fill-rule:evenodd;stroke:#000000;stroke-width:0.625;stroke-linejoin:round;stroke-opacity:1"
         id="path2683-5" />
    </marker>
    <radialGradient
       inkscape:collect="always"
       xlink:href="#linearGradient4865"
       id="radialGradient4867"
       cx="287.82916"
       cy="134.36247"
       fx="287.82916"
       fy="134.36247"
       r="7.6136031"
       gradientTransform="matrix(0.91456158,-0.00763045,0.00541033,0.64846554,-127.40322,23.27219)"
       gradientUnits="userSpaceOnUse" />
    <marker
       style="overflow:visible"
       id="Arrow2Mend-6"
       refX="0"
       refY="0"
       orient="auto"
       inkscape:stockid="Arrow2Mend"
       inkscape:isstock="true"
       inkscape:collect="always">
      <path
         transform="scale(-0.6)"
         d="M 8.7185878,4.0337352 -2.2072895,0.01601326 8.7185884,-4.0017078 c -1.7454984,2.3720609 -1.7354408,5.6174519 -6e-7,8.035443 z"
         style="fill:#000000;fill-opacity:1;fill-rule:evenodd;stroke:#000000;stroke-width:0.625;stroke-linejoin:round;stroke-opacity:1"
         id="path2683-8" />
    </marker>
    <marker
       style="overflow:visible"
       id="Arrow2Mend-7-0"
       refX="0"
       refY="0"
       orient="auto"
       inkscape:stockid="Arrow2Mend"
       inkscape:isstock="true">
      <path
         transform="scale(-0.6)"
         d="M 8.7185878,4.0337352 -2.2072895,0.01601326 8.7185884,-4.0017078 c -1.7454984,2.3720609 -1.7354408,5.6174519 -6e-7,8.035443 z"
         style="fill:#000000;fill-opacity:1;fill-rule:evenodd;stroke:#000000;stroke-width:0.625;stroke-linejoin:round;stroke-opacity:1"
         id="path2683-5-2" />
    </marker>
    <radialGradient
       inkscape:collect="always"
       xlink:href="#linearGradient4865"
       id="radialGradient4867-1"
       cx="287.82916"
       cy="134.36247"
       fx="287.82916"
       fy="134.36247"
       r="7.6136031"
       gradientTransform="matrix(0.91456157,-0.00763045,0.00541033,0.64846554,114.95549,24.330521)"
       gradientUnits="userSpaceOnUse" />
    <marker
       style="overflow:visible"
       id="marker10009-1"
       refX="0"
       refY="0"
       orient="auto"
       inkscape:stockid="Arrow2Mend"
       inkscape:isstock="true">
      <path
         transform="scale(-0.6)"
         d="M 8.7185878,4.0337352 -2.2072895,0.01601326 8.7185884,-4.0017078 c -1.7454984,2.3720609 -1.7354408,5.6174519 -6e-7,8.035443 z"
         style="fill:#000000;fill-opacity:1;fill-rule:evenodd;stroke:#000000;stroke-width:0.625;stroke-linejoin:round;stroke-opacity:1"
         id="path10007-1" />
    </marker>
    <radialGradient
       inkscape:collect="always"
       xlink:href="#linearGradient4865"
       id="radialGradient4867-1-4"
       cx="287.82916"
       cy="134.36247"
       fx="287.82916"
       fy="134.36247"
       r="7.6136031"
       gradientTransform="matrix(0.91456157,-0.00763045,0.00541033,0.64846554,91.142901,17.451351)"
       gradientUnits="userSpaceOnUse" />
    <radialGradient
       inkscape:collect="always"
       xlink:href="#linearGradient4865"
       id="radialGradient4867-1-4-0"
       cx="287.82916"
       cy="134.36247"
       fx="287.82916"
       fy="134.36247"
       r="7.6136031"
       gradientTransform="matrix(0.91456157,-0.00763045,0.00541033,0.64846554,30.288691,53.963874)"
       gradientUnits="userSpaceOnUse" />
    <radialGradient
       inkscape:collect="always"
       xlink:href="#linearGradient4865"
       id="radialGradient4867-9"
       cx="287.82916"
       cy="134.36247"
       fx="287.82916"
       fy="134.36247"
       r="7.6136031"
       gradientTransform="matrix(0.91456157,-0.00763045,0.00541033,0.64846554,-102.53223,34.384698)"
       gradientUnits="userSpaceOnUse" />
  </defs>
  <sodipodi:namedview
     id="base"
     pagecolor="#ffffff"
     bordercolor="#666666"
     borderopacity="1.0"
     inkscape:pageopacity="0.0"
     inkscape:pageshadow="2"
     inkscape:zoom="1.52"
     inkscape:cx="1356.8487"
     inkscape:cy="245.71771"
     inkscape:document-units="mm"
     inkscape:current-layer="layer1"
     inkscape:document-rotation="0"
     showgrid="false"
     units="px"
     showguides="true"
     inkscape:lockguides="false"
     inkscape:window-width="1822"
     inkscape:window-height="984"
     inkscape:window-x="23"
     inkscape:window-y="1091"
     inkscape:window-maximized="0"
     fit-margin-top="0"
     fit-margin-left="0"
     fit-margin-right="0"
     fit-margin-bottom="0" />
  <metadata
     id="metadata4192">
    <rdf:RDF>
      <cc:Work
         rdf:about="">
        <dc:format>image/svg+xml</dc:format>
        <dc:type
           rdf:resource="http://purl.org/dc/dcmitype/StillImage" />
        <dc:title></dc:title>
      </cc:Work>
    </rdf:RDF>
  </metadata>
  <g
     inkscape:label="Layer 1"
     inkscape:groupmode="layer"
     id="layer1"
     transform="translate(-6.4569045,-35.715151)">
    <path
       style="fill:none;stroke:#000000;stroke-width:0.7;stroke-linecap:butt;stroke-linejoin:miter;stroke-miterlimit:4;stroke-dasharray:none;stroke-opacity:1;marker-end:url(#Arrow2Mend)"
       d="M 115.26345,158.48926 V 36.773441"
       id="path4770"
       sodipodi:nodetypes="cc" />
    <path
       style="fill:#000000;fill-opacity:1;stroke:#000000;stroke-width:0.7;stroke-linecap:butt;stroke-linejoin:miter;stroke-miterlimit:4;stroke-dasharray:none;stroke-opacity:1;marker-end:url(#Arrow2Mend-7)"
       d="M 6.4569045,117.12742 H 211.8865"
       id="path4770-4"
       sodipodi:nodetypes="cc" />
    <ellipse
       style="fill:url(#radialGradient4867);fill-opacity:1;stroke:#000000;stroke-width:0.036;stroke-miterlimit:4;stroke-dasharray:none;stroke-dashoffset:0;stroke-opacity:1;stop-color:#000000"
       id="path4859"
       cx="136.56126"
       cy="108.20535"
       rx="4.4489331"
       ry="4.8194661" />
    <text
       xml:space="preserve"
       style="font-size:11.2889px;line-height:1.25;font-family:lato;-inkscape-font-specification:lato;stroke-width:0.264583"
       x="192.33078"
       y="129.60913"
       id="text4871"><tspan
         sodipodi:role="line"
         id="tspan4869"
         x="192.33078"
         y="129.60913"
         style="font-size:11.2889px;stroke-width:0.264583">state</tspan></text>
    <text
       xml:space="preserve"
       style="font-size:11.2889px;line-height:1.25;font-family:lato;-inkscape-font-specification:lato;stroke-width:0.264583"
       x="-69.881172"
       y="104.38221"
       id="text4871-2"
       transform="rotate(-90)"><tspan
         sodipodi:role="line"
         id="tspan4869-8"
         x="-69.881172"
         y="104.38221"
         style="font-size:11.2889px;stroke-width:0.264583">energy</tspan></text>
    <g
       id="g4967"
       transform="matrix(0.84879669,0,0,1.0002187,22.740751,-0.02255494)" />
    <path
       style="fill:#08c100;fill-opacity:0;stroke:#000000;stroke-width:0.893;stroke-miterlimit:4;stroke-dasharray:0.893, 0.893;stroke-dashoffset:0;stroke-opacity:1;stop-color:#000000"
       d="m 19.3133,61.5863 c 0.3004,0.4206 0.6008,4.7484 0.9012,5.1651 0.3004,0.4166 0.6008,4.5381 0.9012,4.9508 0.3003,0.4127 0.6007,4.3328 0.9011,4.7416 0.3004,0.4088 0.6008,4.1322 0.9012,4.537 0.3004,0.4049 0.6008,3.9363 0.9012,4.3372 0.3004,0.4009 0.6008,3.7451 0.9012,4.1421 0.3004,0.397 0.6008,3.5584 0.9011,3.9515 0.3004,0.3931 0.6008,3.3764 0.9012,3.7656 0.3004,0.3891 0.6008,3.1988 0.9012,3.5838 0.3004,0.386 0.6008,3.026 0.9012,3.408 0.3004,0.381 0.6008,2.857 0.9012,3.234 0.3004,0.378 0.6008,2.693 0.9011,3.067 0.3004,0.373 0.6008,2.533 0.9012,2.903 0.3004,0.369 0.6008,2.378 0.9012,2.743 0.3004,0.366 0.6008,2.227 0.9012,2.588 0.3004,0.362 0.6008,2.08 0.9012,2.437 0.3004,0.358 0.6008,1.937 0.9011,2.291 0.3004,0.353 0.6008,1.797 0.9012,2.147 0.3004,0.35 0.6008,1.663 0.9012,2.008 0.3004,0.346 0.6008,1.532 0.9012,1.874 0.3004,0.342 0.6008,1.405 0.9012,1.743 0.3004,0.338 0.6007,1.282 0.9011,1.616 0.3004,0.335 0.6008,1.163 0.9012,1.493 0.3004,0.331 0.6008,1.048 0.9012,1.374 0.3004,0.327 0.6008,0.936 0.9012,1.259 0.3004,0.322 0.6008,0.828 0.9012,1.146 0.3004,0.319 0.6007,0.724 0.9011,1.039 0.3004,0.314 0.6008,0.623 0.9012,0.933 0.3004,0.311 0.6008,0.527 0.9012,0.833 0.3004,0.307 0.6008,0.433 0.9012,0.736 0.3004,0.303 0.6008,0.343 0.9012,0.642 0.3004,0.298 0.6007,0.256 0.9011,0.551 0.3004,0.295 0.6008,0.172 0.9012,0.463 0.3004,0.292 0.6008,0.093 0.9012,0.381 0.3004,0.287 0.6008,0.016 0.9012,0.299 0.3004,0.283 0.6008,-0.057 0.9012,0.222 0.3003,0.279 0.6007,-0.127 0.9011,0.148 0.3004,0.276 0.6008,-0.194 0.9012,0.077 0.3004,0.272 0.6008,-0.258 0.9012,0.009 0.3004,0.268 0.6008,-0.319 0.9012,-0.056 0.3004,0.264 0.6008,-0.377 0.9012,-0.117 0.3003,0.259 0.6007,-0.433 0.9011,-0.177 0.3004,0.256 0.6008,-0.485 0.9012,-0.233 0.3004,0.252 0.6008,-0.534 0.9012,-0.286 0.3004,0.248 0.6008,-0.581 0.9012,-0.337 0.3004,0.244 0.6008,-0.624 0.9012,-0.384 0.3003,0.24 0.6007,-0.665 0.9011,-0.429 0.3004,0.236 0.6008,-0.704 0.9012,-0.472 0.3004,0.232 0.6008,-0.739 0.9012,-0.511 0.3004,0.228 0.6008,-0.773 0.9012,-0.549 0.3004,0.225 0.6008,-0.803 0.9011,-0.583 0.3004,0.22 0.6008,-0.832 0.9012,-0.616 0.3004,0.217 0.6008,-0.857 0.9012,-0.645 0.3004,0.213 0.6008,-0.881 0.9012,-0.673 0.3004,0.209 0.6008,-0.903 0.9012,-0.698 0.3004,0.205 0.6008,-0.922 0.9011,-0.721 0.3004,0.201 0.6008,-0.938 0.9012,-0.741 0.3004,0.196 0.6008,-0.954 0.9012,-0.761 0.3004,0.193 0.6008,-0.965 0.9012,-0.776 0.3004,0.189 0.6008,-0.976 0.9012,-0.791 0.3004,0.185 0.6008,-0.984 0.9011,-0.803 0.3004,0.181 0.6008,-0.991 0.9012,-0.814 0.3004,0.177 0.6008,-0.995 0.9012,-0.822 0.3004,0.173 0.6008,-0.998 0.9012,-0.828 0.3004,0.169 0.6008,-0.999 0.9012,-0.834 0.3004,0.166 0.6007,-0.997 0.9011,-0.836 0.3004,0.162 0.6008,-0.995 0.9012,-0.837 0.3004,0.157 0.6008,-0.991 0.9012,-0.837 0.3004,0.154 0.6008,-0.985 0.9012,-0.835 0.3004,0.15 0.6008,-0.977 0.9012,-0.831 0.3004,0.146 0.6007,-0.968 0.9011,-0.826 0.3004,0.142 0.6008,-0.957 0.9012,-0.819 0.3004,0.138 0.6008,-0.945 0.9012,-0.811 0.3004,0.134 0.6008,-0.931 0.9012,-0.801 0.3004,0.13 0.6008,-0.917 0.9012,-0.79 0.3004,0.126 0.6007,-0.901 0.9011,-0.779 0.3004,0.123 0.6008,-0.883 0.9012,-0.764 0.3004,0.118 0.6008,-0.865 0.9012,-0.75 0.3004,0.114 0.6008,-0.845 0.9012,-0.734 0.3004,0.11 0.6008,-0.824 0.9012,-0.718 0.3003,0.107 0.6007,-0.802 0.9011,-0.699 0.3004,0.103 0.6008,-0.779 0.9012,-0.68 0.3004,0.098 0.6008,-0.755 0.9012,-0.661 0.3004,0.095 0.6008,-0.73 0.9012,-0.639 0.3004,0.091 0.6008,-0.705 0.9012,-0.618 0.3003,0.087 0.6007,-0.678 0.9011,-0.595 0.3004,0.083 0.6008,-0.651 0.9012,-0.572 0.3004,0.079 0.6008,-0.623 0.9012,-0.547 0.3004,0.075 0.6008,-0.595 0.9012,-0.524 0.3004,0.072 0.6007,-0.565 0.9007,-0.497 0.301,0.067 0.601,-0.536 0.902,-0.472 0.3,0.063 0.6,-0.505 0.901,-0.446 0.3,0.06 0.601,-0.474 0.901,-0.418 0.3,0.055 0.601,-0.443 0.901,-0.391 0.301,0.051 0.601,-0.411 0.901,-0.364 0.301,0.048 0.601,-0.379 0.902,-0.335 0.3,0.044 0.6,-0.347 0.901,-0.307 0.3,0.04 0.6,-0.315 0.901,-0.279 0.3,0.036 0.601,-0.281 0.901,-0.249 0.3,0.032 0.601,-0.249 0.901,-0.221 0.301,0.028 0.601,-0.216 0.901,-0.192 0.301,0.024 0.601,-0.183 0.902,-0.163 0.3,0.021 0.6,-0.15 0.901,-0.133 0.3,0.016 0.601,-0.117 0.901,-0.105 0.3,0.012 0.601,-0.084 0.901,-0.076 0.301,0.009 0.601,-0.051 0.901,-0.047 0.301,0.005 0.601,-0.019 0.902,-0.018 0.3,0 0.6,0.013 0.901,0.009 0.3,-0.003 0.6,0.045 0.901,0.038 0.3,-0.007 0.601,0.077 0.901,0.065 0.3,-0.011 0.601,0.108 0.901,0.093 0.301,-0.015 0.601,0.139 0.901,0.12 0.301,-0.019 0.601,0.168 0.902,0.146 0.3,-0.023 0.6,0.198 0.901,0.171 0.3,-0.027 0.601,0.228 0.901,0.197 0.3,-0.031 0.601,0.256 0.901,0.222 0.301,-0.035 0.601,0.284 0.901,0.245 0.301,-0.039 0.601,0.311 0.901,0.269 0.301,-0.043 0.601,0.337 0.902,0.291 0.3,-0.047 0.6,0.363 0.901,0.312 0.3,-0.05 0.601,0.388 0.901,0.334 0.3,-0.055 0.601,0.411 0.901,0.353 0.301,-0.059 0.601,0.434 0.901,0.372 0.301,-0.063 0.601,0.456 0.902,0.389 0.3,-0.066 0.6,0.477 0.901,0.407 0.3,-0.07 0.601,0.496 0.901,0.422 0.3,-0.074 0.601,0.515 0.901,0.437 0.3,-0.078 0.601,0.531 0.901,0.45 0.301,-0.082 0.601,0.547 0.901,0.461 0.301,-0.085 0.601,0.563 0.902,0.473 0.3,-0.09 0.6,0.575 0.901,0.482 0.3,-0.094 0.601,0.587 0.901,0.49 0.3,-0.098 0.601,0.597 0.901,0.496 0.301,-0.101 0.601,0.607 0.901,0.501 0.301,-0.105 0.601,0.614 0.902,0.505 0.3,-0.109 0.6,0.62 0.901,0.507 0.3,-0.114 0.6,0.624 0.901,0.506 0.3,-0.117 0.601,0.627 0.901,0.506 0.3,-0.121 0.601,0.627 0.901,0.502 0.301,-0.125 0.601,0.626 0.901,0.497 0.301,-0.129 0.601,0.623 0.902,0.49 0.3,-0.133 0.6,0.618 0.901,0.481 0.3,-0.136 0.601,0.612 0.901,0.471 0.3,-0.141 0.601,0.603 0.901,0.458 0.301,-0.144 0.601,0.592 0.901,0.444 0.301,-0.149 0.601,0.579 0.902,0.426 0.3,-0.152 0.6,0.564 0.901,0.408 0.3,-0.157 0.6,0.547 0.901,0.386 0.3,-0.16 0.601,0.528 0.901,0.364 0.3,-0.164 0.601,0.506 0.901,0.338 0.301,-0.169 0.601,0.482 0.901,0.309 0.301,-0.172 0.601,0.456 0.902,0.28 0.3,-0.176 0.6,0.427 0.901,0.247 0.3,-0.18 0.601,0.396 0.901,0.212 0.3,-0.184 0.601,0.362 0.901,0.174 0.301,-0.188 0.601,0.326 0.901,0.134 0.301,-0.192 0.601,0.287 0.901,0.091 0.301,-0.195 0.601,0.245 0.902,0.046 0.3,-0.2 0.6,0.201 0.901,-0.003 0.3,-0.203 0.601,0.154 0.901,-0.053 0.3,-0.207 0.601,0.104 0.901,-0.107 0.301,-0.212 0.601,0.051 0.901,-0.164 0.301,-0.215 0.601,-0.004 0.902,-0.223 0.3,-0.219 0.6,-0.063 0.901,-0.286 0.3,-0.223 0.601,-0.124 0.901,-0.351 0.3,-0.227 0.601,-0.189 0.901,-0.42 0.3,-0.231 0.601,-0.256 0.901,-0.491 0.301,-0.235 0.601,-0.327 0.901,-0.566 0.301,-0.238 0.601,-0.401 0.902,-0.643 0.3,-0.243 0.6,-0.478 0.901,-0.725 0.3,-0.247 0.601,-0.559 0.901,-0.809 0.3,-0.251 0.601,-0.643 0.901,-0.897 0.301,-0.255 0.601,-0.73 0.901,-0.988 0.301,-0.259 0.601,-0.821 0.902,-1.083 0.3,-0.262 0.6,-0.915 0.901,-1.181 0.3,-0.266 0.6,-1.012 0.901,-1.282 0.3,-0.27 0.601,-1.113 0.901,-1.387 0.3,-0.275 0.601,-1.218 0.901,-1.497 0.301,-0.278 0.601,-1.326 0.901,-1.608 0.301,-0.282 0.601,-1.439 0.902,-1.725 0.3,-0.286 0.6,-1.554 0.901,-1.844 0.3,-0.29 0.601,-1.675 0.901,-1.969 0.3,-0.293 0.601,-1.798 0.901,-2.096 0.301,-0.297 0.601,-1.925 0.901,-2.2269 0.301,-0.3016 0.601,-2.0573 0.902,-2.3628 0.3,-0.3055 0.6,-2.1928 0.901,-2.5023 0.3,-0.3094 0.6,-2.3324 0.901,-2.6458 0.3,-0.3134 0.601,-2.4761 0.901,-2.7934 0.3,-0.3173 0.601,-2.624 0.901,-2.9452 0.301,-0.3213 0.601,-2.7761 0.901,-3.1012 0.301,-0.3252 0.601,-2.9323 0.902,-3.2614 0.3,-0.3291 0.6,-3.0929 0.901,-3.4259 0.3,-0.333 0.601,-3.2579 0.901,-3.5948 0.3,-0.337 0.601,-3.4272 0.901,-3.7681 0.301,-0.3408 0.601,-3.601 0.901,-3.9457 0.301,-0.3448 0.601,-3.7793 0.901,-4.128 0.301,-0.3487 0.601,-3.962 0.902,-4.3147 0.3,-0.3526 0.6,-4.1494 0.901,-4.506 0.3,-0.3565 0.601,-4.3415 0.901,-4.7019"
       title="x**4-1.2*x**2 +0.3*x**3"
       id="path9404" />
    <path
       style="fill:none;stroke:#000000;stroke-width:0.665;stroke-linecap:butt;stroke-linejoin:miter;stroke-miterlimit:4;stroke-dasharray:none;stroke-opacity:1;marker-end:url(#marker10009)"
       d="m 137.01447,108.17138 7.61264,5.66874"
       id="path10005"
       sodipodi:nodetypes="cc" />
    <path
       style="fill:none;stroke:#000000;stroke-width:0.7;stroke-linecap:butt;stroke-linejoin:miter;stroke-miterlimit:4;stroke-dasharray:none;stroke-opacity:1;marker-end:url(#Arrow2Mend-6)"
       d="M 355.50663,158.48926 V 36.773438"
       id="path4770-0"
       sodipodi:nodetypes="cc" />
    <path
       style="fill:#000000;fill-opacity:1;stroke:#000000;stroke-width:0.7;stroke-linecap:butt;stroke-linejoin:miter;stroke-miterlimit:4;stroke-dasharray:none;stroke-opacity:1;marker-end:url(#Arrow2Mend-7-0)"
       d="M 246.69955,117.12742 H 452.12968"
       id="path4770-4-8"
       sodipodi:nodetypes="cc" />
    <ellipse
       style="fill:url(#radialGradient4867-1);fill-opacity:1;stroke:#000000;stroke-width:0.036;stroke-miterlimit:4;stroke-dasharray:none;stroke-dashoffset:0;stroke-opacity:1;stop-color:#000000"
       id="path4859-5"
       cx="378.91989"
       cy="109.26369"
       rx="4.4489331"
       ry="4.8194661" />
    <text
       xml:space="preserve"
       style="font-size:11.2889px;line-height:1.25;font-family:lato;-inkscape-font-specification:lato;stroke-width:0.264583"
       x="432.57431"
       y="129.60913"
       id="text4871-0"><tspan
         sodipodi:role="line"
         id="tspan4869-6"
         x="432.57431"
         y="129.60913"
         style="font-size:11.2889px;stroke-width:0.264583">state</tspan></text>
    <text
       xml:space="preserve"
       style="font-size:11.2889px;line-height:1.25;font-family:lato;-inkscape-font-specification:lato;stroke-width:0.264583"
       x="-69.881172"
       y="344.62347"
       id="text4871-2-4"
       transform="rotate(-90)"><tspan
         sodipodi:role="line"
         id="tspan4869-8-6"
         x="-69.881172"
         y="344.62347"
         style="font-size:11.2889px;stroke-width:0.264583">energy</tspan></text>
    <path
       style="fill:#08c100;fill-opacity:0;stroke:#000000;stroke-width:0.893;stroke-miterlimit:4;stroke-dasharray:0.893, 0.893;stroke-dashoffset:0;stroke-opacity:1;stop-color:#000000"
       d="m 259.55602,61.586297 c 0.3004,0.4206 0.6008,4.748401 0.90121,5.165101 0.3004,0.416599 0.6008,4.538099 0.9012,4.950798 0.3003,0.4127 0.60071,4.332801 0.90111,4.741601 0.3004,0.4088 0.6008,4.132199 0.9012,4.537001 0.3004,0.4049 0.60081,3.936299 0.90121,4.337198 0.3004,0.400902 0.6008,3.7451 0.9012,4.142102 0.3004,0.397 0.6008,3.5584 0.90111,3.9515 0.3004,0.393099 0.6008,3.3764 0.9012,3.7656 0.3004,0.389099 0.60081,3.198802 0.90121,3.583802 0.3004,0.386 0.6008,3.026 0.9012,3.408 0.30041,0.381 0.60081,2.857 0.90121,3.234 0.3004,0.378 0.6008,2.693 0.9011,3.067 0.3004,0.373 0.60081,2.533 0.90121,2.903 0.3004,0.369 0.6008,2.378 0.9012,2.743 0.3004,0.366 0.60081,2.227 0.90121,2.588 0.3004,0.362 0.6008,2.08 0.9012,2.437 0.3004,0.358 0.6008,1.937 0.90111,2.291 0.3004,0.353 0.6008,1.797 0.9012,2.147 0.3004,0.35 0.60081,1.663 0.90121,2.008 0.3004,0.346 0.6008,1.532 0.9012,1.874 0.30041,0.342 0.60081,1.405 0.90121,1.743 0.3004,0.338 0.6007,1.282 0.9011,1.616 0.30041,0.335 0.60081,1.163 0.90121,1.493 0.3004,0.331 0.6008,1.048 0.9012,1.374 0.3004,0.327 0.60081,0.936 0.90121,1.259 0.3004,0.322 0.6008,0.828 0.9012,1.146 0.30041,0.319 0.60071,0.724 0.90111,1.039 0.3004,0.314 0.6008,0.623 0.90121,0.933 0.30039,0.311 0.6008,0.527 0.9012,0.833 0.3004,0.307 0.6008,0.433 0.9012,0.736 0.30041,0.303 0.60081,0.343 0.90121,0.642 0.3004,0.298 0.6007,0.256 0.90111,0.551 0.3004,0.295 0.6008,0.172 0.9012,0.463 0.3004,0.292 0.6008,0.093 0.90121,0.381 0.3004,0.287 0.6008,0.016 0.9012,0.299 0.3004,0.283 0.60081,-0.057 0.90121,0.222 0.3003,0.279 0.6007,-0.127 0.9011,0.148 0.3004,0.276 0.6008,-0.194 0.90121,0.077 0.3004,0.272 0.6008,-0.258 0.9012,0.009 0.3004,0.26801 0.60081,-0.319 0.90121,-0.056 0.3004,0.264 0.6008,-0.37699 0.9012,-0.117 0.3003,0.259 0.6007,-0.433 0.90111,-0.177 0.3004,0.25601 0.6008,-0.48499 0.9012,-0.233 0.3004,0.252 0.6008,-0.534 0.90121,-0.286 0.3004,0.24801 0.6008,-0.581 0.9012,-0.337 0.3004,0.24401 0.6008,-0.62399 0.9012,-0.384 0.30031,0.24 0.60071,-0.665 0.90111,-0.42899 0.30041,0.23599 0.60081,-0.70401 0.90121,-0.47201 0.3004,0.232 0.6008,-0.739 0.9012,-0.511 0.3004,0.228 0.60081,-0.77299 0.90121,-0.549 0.3004,0.225 0.6008,-0.803 0.9011,-0.58299 0.3004,0.21999 0.60081,-0.83201 0.90121,-0.616 0.3004,0.21699 0.6008,-0.85701 0.9012,-0.64501 0.30041,0.213 0.6008,-0.881 0.90121,-0.673 0.3004,0.209 0.6008,-0.90299 0.9012,-0.698 0.3004,0.205 0.60081,-0.922 0.90111,-0.721 0.3004,0.201 0.6008,-0.938 0.9012,-0.741 0.30041,0.19601 0.60081,-0.95399 0.90121,-0.76099 0.3004,0.193 0.6008,-0.96501 0.9012,-0.776 0.3004,0.189 0.60081,-0.976 0.90121,-0.791 0.3004,0.185 0.6008,-0.98401 0.9011,-0.803 0.3004,0.18099 0.60081,-0.991 0.90121,-0.81401 0.3004,0.17701 0.6008,-0.995 0.9012,-0.82199 0.30041,0.173 0.60081,-0.99801 0.90121,-0.82801 0.3004,0.169 0.6008,-0.999 0.90121,-0.83399 0.3004,0.166 0.6007,-0.997 0.9011,-0.836 0.3004,0.16199 0.6008,-0.995 0.9012,-0.837 0.30041,0.15699 0.60081,-0.99101 0.90121,-0.837 0.3004,0.154 0.6008,-0.985 0.90121,-0.835 0.3004,0.15 0.6008,-0.977 0.9012,-0.831 0.3004,0.146 0.6007,-0.968 0.9011,-0.826 0.30041,0.14199 0.60081,-0.957 0.90121,-0.819 0.3004,0.138 0.6008,-0.94501 0.9012,-0.811 0.30041,0.134 0.60081,-0.931 0.90121,-0.801 0.3004,0.13 0.6008,-0.917 0.90121,-0.79 0.3004,0.126 0.6007,-0.901 0.9011,-0.779 0.3004,0.123 0.60081,-0.883 0.90121,-0.764 0.3004,0.11799 0.6008,-0.865 0.9012,-0.75001 0.3004,0.11401 0.60081,-0.845 0.90121,-0.73399 0.3004,0.11 0.6008,-0.824 0.9012,-0.718 0.3003,0.107 0.6007,-0.802 0.90111,-0.699 0.3004,0.103 0.6008,-0.779 0.9012,-0.68 0.3004,0.098 0.60081,-0.755 0.90121,-0.66101 0.3004,0.095 0.6008,-0.72999 0.9012,-0.63899 0.3004,0.091 0.6008,-0.705 0.90121,-0.618 0.3003,0.087 0.6007,-0.678 0.9011,-0.595 0.3004,0.083 0.60081,-0.651 0.90121,-0.572 0.3004,0.079 0.6008,-0.62301 0.9012,-0.547 0.3004,0.075 0.6008,-0.595 0.90121,-0.52401 0.3004,0.072 0.6007,-0.565 0.9007,-0.49699 0.301,0.067 0.601,-0.53601 0.902,-0.47201 0.3,0.063 0.6,-0.50499 0.901,-0.446 0.3,0.06 0.601,-0.47399 0.901,-0.41799 0.3,0.055 0.601,-0.443 0.901,-0.391 0.301,0.051 0.601,-0.411 0.901,-0.364 0.301,0.048 0.601,-0.379 0.902,-0.335 0.3,0.044 0.6,-0.347 0.901,-0.307 0.3,0.04 0.6,-0.315 0.901,-0.27901 0.3,0.036 0.601,-0.281 0.901,-0.24899 0.3,0.032 0.601,-0.249 0.901,-0.22101 0.301,0.028 0.601,-0.21599 0.901,-0.192 0.301,0.024 0.601,-0.183 0.902,-0.163 0.3,0.021 0.6,-0.15 0.901,-0.133 0.3,0.016 0.601,-0.11699 0.901,-0.105 0.3,0.012 0.601,-0.084 0.901,-0.076 0.301,0.009 0.601,-0.051 0.901,-0.047 0.301,0.005 0.601,-0.019 0.902,-0.018 0.3,0 0.6,0.013 0.901,0.009 0.3,-0.003 0.6,0.045 0.901,0.038 0.3,-0.007 0.601,0.077 0.901,0.065 0.3,-0.011 0.601,0.108 0.901,0.093 0.301,-0.015 0.601,0.13901 0.901,0.12001 0.301,-0.019 0.601,0.168 0.902,0.146 0.3,-0.023 0.6,0.19799 0.901,0.171 0.3,-0.027 0.601,0.228 0.901,0.19699 0.3,-0.031 0.601,0.256 0.901,0.22201 0.301,-0.035 0.601,0.284 0.901,0.24499 0.301,-0.039 0.601,0.31101 0.901,0.26901 0.301,-0.043 0.601,0.337 0.902,0.291 0.3,-0.047 0.6,0.363 0.901,0.312 0.3,-0.05 0.601,0.388 0.901,0.33399 0.3,-0.055 0.601,0.41101 0.901,0.35301 0.301,-0.059 0.601,0.434 0.901,0.372 0.301,-0.063 0.601,0.456 0.902,0.389 0.3,-0.066 0.6,0.477 0.901,0.407 0.3,-0.07 0.601,0.496 0.901,0.422 0.3,-0.074 0.601,0.515 0.901,0.437 0.3,-0.078 0.601,0.531 0.901,0.45 0.301,-0.082 0.601,0.547 0.901,0.461 0.301,-0.085 0.601,0.563 0.902,0.473 0.3,-0.09 0.6,0.57499 0.901,0.482 0.3,-0.094 0.601,0.587 0.901,0.49 0.3,-0.098 0.601,0.59699 0.901,0.496 0.301,-0.101 0.601,0.607 0.901,0.501 0.301,-0.105 0.601,0.614 0.902,0.505 0.3,-0.109 0.6,0.61999 0.901,0.507 0.3,-0.114 0.6,0.624 0.901,0.506 0.3,-0.11701 0.601,0.627 0.901,0.506 0.3,-0.121 0.601,0.627 0.901,0.502 0.301,-0.125 0.601,0.626 0.901,0.497 0.301,-0.129 0.601,0.623 0.902,0.49 0.3,-0.133 0.6,0.61799 0.901,0.481 0.3,-0.136 0.601,0.612 0.901,0.471 0.3,-0.141 0.601,0.603 0.901,0.458 0.301,-0.144 0.601,0.592 0.901,0.444 0.301,-0.149 0.601,0.579 0.902,0.426 0.3,-0.152 0.6,0.564 0.901,0.408 0.3,-0.157 0.6,0.547 0.901,0.38599 0.3,-0.15999 0.601,0.528 0.901,0.36401 0.3,-0.164 0.601,0.506 0.901,0.338 0.301,-0.169 0.601,0.48199 0.901,0.309 0.301,-0.172 0.601,0.456 0.902,0.27999 0.3,-0.17599 0.6,0.42701 0.901,0.24701 0.3,-0.18 0.601,0.396 0.901,0.212 0.3,-0.18401 0.601,0.362 0.901,0.174 0.301,-0.188 0.601,0.326 0.901,0.134 0.301,-0.192 0.601,0.287 0.901,0.091 0.301,-0.19501 0.601,0.24499 0.902,0.046 0.3,-0.20001 0.6,0.20099 0.901,-0.003 0.3,-0.20301 0.601,0.154 0.901,-0.053 0.3,-0.207 0.601,0.104 0.901,-0.107 0.301,-0.212 0.601,0.051 0.901,-0.164 0.301,-0.215 0.601,-0.004 0.902,-0.223 0.3,-0.219 0.6,-0.063 0.901,-0.286 0.3,-0.223 0.601,-0.124 0.901,-0.351 0.3,-0.227 0.601,-0.189 0.901,-0.42 0.3,-0.231 0.601,-0.256 0.901,-0.491 0.301,-0.235 0.601,-0.327 0.901,-0.566 0.301,-0.238 0.601,-0.401 0.902,-0.643 0.3,-0.243 0.6,-0.478 0.901,-0.725 0.3,-0.247 0.601,-0.559 0.901,-0.809 0.3,-0.251 0.601,-0.643 0.901,-0.897 0.301,-0.255 0.601,-0.73 0.901,-0.988 0.301,-0.259 0.601,-0.821 0.902,-1.083 0.3,-0.262 0.6,-0.915 0.901,-1.181 0.3,-0.266 0.6,-1.012 0.901,-1.282 0.3,-0.27 0.601,-1.113 0.901,-1.387 0.3,-0.275 0.601,-1.218 0.901,-1.497 0.301,-0.278 0.601,-1.326 0.901,-1.608 0.301,-0.282 0.601,-1.439 0.902,-1.725 0.3,-0.286 0.6,-1.554 0.901,-1.844 0.3,-0.29 0.601,-1.675 0.901,-1.969 0.3,-0.293 0.601,-1.798 0.901,-2.096 0.301,-0.297 0.601,-1.925 0.901,-2.226904 0.301,-0.301601 0.601,-2.057299 0.902,-2.3628 0.3,-0.305501 0.6,-2.192801 0.901,-2.5023 0.3,-0.309401 0.6,-2.3324 0.901,-2.645801 0.3,-0.313399 0.601,-2.476098 0.901,-2.7934 0.3,-0.317299 0.601,-2.624 0.901,-2.945198 0.301,-0.3213 0.601,-2.776101 0.901,-3.1012 0.301,-0.325202 0.601,-2.932301 0.902,-3.261403 0.3,-0.329099 0.6,-3.092899 0.901,-3.425899 0.3,-0.332999 0.601,-3.257899 0.901,-3.594798 0.3,-0.337003 0.601,-3.427201 0.901,-3.768101 0.301,-0.340802 0.601,-3.601 0.901,-3.945699 0.301,-0.344803 0.601,-3.779301 0.901,-4.128001 0.301,-0.348701 0.601,-3.962001 0.902,-4.3147 0.3,-0.352601 0.6,-4.149401 0.901,-4.506001 0.3,-0.3565 0.601,-4.3415 0.901,-4.7019"
       title="x**4-1.2*x**2 +0.3*x**3"
       id="path9404-2" />
    <path
       style="fill:none;stroke:#000000;stroke-width:0.665001;stroke-linecap:butt;stroke-linejoin:miter;stroke-miterlimit:4;stroke-dasharray:none;stroke-opacity:1;marker-end:url(#marker10009-1)"
       d="m 379.37433,109.22972 -11.74218,-5.70269"
       id="path10005-5"
       sodipodi:nodetypes="cc" />
    <text
       xml:space="preserve"
       style="font-size:7.05556px;line-height:1.25;font-family:lato;-inkscape-font-specification:lato;stroke-width:0.264583"
       x="138.30717"
       y="136.74098"
       id="text18527"><tspan
         sodipodi:role="line"
         id="tspan18525"
         x="138.30717"
         y="136.74098"
         style="font-style:italic;font-variant:normal;font-weight:normal;font-stretch:normal;font-family:lato;-inkscape-font-specification:'lato Italic';stroke-width:0.264583">local minimum</tspan></text>
    <text
       xml:space="preserve"
       style="font-size:7.05556px;line-height:1.25;font-family:lato;-inkscape-font-specification:lato;stroke-width:0.264583"
       x="19.651834"
       y="154.72781"
       id="text18527-8"><tspan
         sodipodi:role="line"
         id="tspan18525-6"
         x="19.651834"
         y="154.72781"
         style="font-style:italic;font-variant:normal;font-weight:normal;font-stretch:normal;font-family:lato;-inkscape-font-specification:'lato Italic';stroke-width:0.264583">global (absolute) minimum</tspan></text>
    <text
       xml:space="preserve"
       style="font-size:7.05556px;line-height:1.25;font-family:lato;-inkscape-font-specification:lato;stroke-width:0.264583"
       x="75.771988"
       y="104.68789"
       id="text18527-2"><tspan
         sodipodi:role="line"
         id="tspan18525-8"
         x="75.771988"
         y="104.68789"
         style="font-style:italic;font-variant:normal;font-weight:normal;font-stretch:normal;font-family:lato;-inkscape-font-specification:'lato Italic';stroke-width:0.264583">saddle point</tspan></text>
    <ellipse
       style="fill:url(#radialGradient4867-1-4);fill-opacity:1;stroke:#000000;stroke-width:0.036;stroke-miterlimit:4;stroke-dasharray:none;stroke-dashoffset:0;stroke-opacity:1;stop-color:#000000"
       id="path4859-5-4"
       cx="355.10703"
       cy="102.38453"
       rx="4.4489331"
       ry="4.8194661" />
    <ellipse
       style="fill:url(#radialGradient4867-1-4-0);fill-opacity:1;stroke:#000000;stroke-width:0.036;stroke-miterlimit:4;stroke-dasharray:none;stroke-dashoffset:0;stroke-opacity:1;stop-color:#000000"
       id="path4859-5-4-9"
       cx="294.25192"
       cy="138.89685"
       rx="4.4489331"
       ry="4.8194661" />
    <ellipse
       style="fill:url(#radialGradient4867-9);fill-opacity:1;stroke:#000000;stroke-width:0.036;stroke-miterlimit:4;stroke-dasharray:none;stroke-dashoffset:0;stroke-opacity:1;stop-color:#000000"
       id="path4859-1"
       cx="161.43176"
       cy="119.31784"
       rx="4.4489331"
       ry="4.8194661" />
    <path
       style="fill:none;stroke:#000000;stroke-width:0.665;stroke-linecap:butt;stroke-linejoin:miter;stroke-miterlimit:4;stroke-dasharray:1.995, 0.665;stroke-dashoffset:0;stroke-opacity:1;marker-end:url(#marker18923)"
       d="m 348.10152,103.93472 c 0,0 -5.00612,1.27515 -8.44108,3.47101 -3.52552,2.25375 -8.85815,5.87371 -11.95431,8.6884 -3.1074,2.8249 -6.018,5.85967 -9.08072,8.73295 -2.5621,2.40363 -7.77499,7.11517 -7.77499,7.11517"
       id="path18919"
       sodipodi:nodetypes="csssc" />
  </g>
</svg>
