<?xml version="1.0" encoding="utf-8" standalone="no"?>
<!DOCTYPE svg PUBLIC "-//W3C//DTD SVG 1.1//EN"
  "http://www.w3.org/Graphics/SVG/1.1/DTD/svg11.dtd">
<!-- Created with matplotlib (https://matplotlib.org/) -->
<svg height="288pt" version="1.1" viewBox="0 0 432 288" width="432pt" xmlns="http://www.w3.org/2000/svg" xmlns:xlink="http://www.w3.org/1999/xlink">
 <defs>
  <style type="text/css">
*{stroke-linecap:butt;stroke-linejoin:round;}
  </style>
 </defs>
 <g id="figure_1">
  <g id="patch_1">
   <path d="M 0 288 
L 432 288 
L 432 0 
L 0 0 
z
" style="fill:#ffffff;"/>
  </g>
  <g id="axes_1">
   <g id="patch_2">
    <path d="M 54 252 
L 388.8 252 
L 388.8 34.56 
L 54 34.56 
z
" style="fill:#ffffff;"/>
   </g>
   <g id="matplotlib.axis_1">
    <g id="xtick_1">
     <g id="line2d_1">
      <path clip-path="url(#p0148b818e3)" d="M 69.218182 252 
L 69.218182 34.56 
" style="fill:none;stroke:#e6e6e6;stroke-linecap:round;stroke-width:0.8;"/>
     </g>
     <g id="line2d_2">
      <defs>
       <path d="M 0 0 
L 0 -4.8 
" id="ma9d3c91324" style="stroke:#262626;"/>
      </defs>
      <g>
       <use style="fill:#262626;stroke:#262626;" x="69.218182" xlink:href="#ma9d3c91324" y="252"/>
      </g>
     </g>
     <g id="line2d_3">
      <defs>
       <path d="M 0 0 
L 0 4.8 
" id="m82c6aa0d07" style="stroke:#262626;"/>
      </defs>
      <g>
       <use style="fill:#262626;stroke:#262626;" x="69.218182" xlink:href="#m82c6aa0d07" y="34.56"/>
      </g>
     </g>
     <g id="text_1">
      <!-- $\mathdefault{0}$ -->
      <defs>
       <path d="M 14.796875 63.859375 
C 11.90625 61.859375 9.90625 59.140625 8.40625 56.03125 
C 4.796875 49 4.40625 40.765625 4.40625 31.828125 
C 4.40625 20.578125 6.40625 10.25 12 4.3125 
C 17.296875 -1.203125 25.703125 -2.609375 32.796875 0.296875 
C 37.203125 2.015625 40.40625 5.71875 42.40625 9.734375 
C 46 16.875 46.40625 25.40625 46.40625 34.234375 
C 46.40625 37.046875 46.296875 39.859375 46 42.671875 
C 45.296875 49.40625 43 56.828125 39.296875 60.953125 
C 33.203125 67.6875 22.296875 69.1875 14.796875 63.859375 
z
M 34.90625 58.140625 
C 39.59375 53.125 40 43.484375 40 34.34375 
L 40 28.921875 
C 40 24.296875 39.203125 18.28125 38.203125 14.859375 
C 36.796875 10.140625 34.5 6.734375 29.90625 4.625 
C 24.296875 2.609375 18.5 4.515625 15.296875 8.9375 
C 11 14.65625 10.796875 24.796875 10.796875 33.734375 
C 10.796875 42.171875 10.90625 51.515625 15 57.03125 
C 19.5 63.0625 29.203125 64.0625 34.90625 58.140625 
z
" id="Computer_Modern_Bright-48"/>
      </defs>
      <g style="fill:#262626;" transform="translate(65.766161 264.63241)scale(0.132 -0.132)">
       <use transform="scale(0.996264)" xlink:href="#Computer_Modern_Bright-48"/>
      </g>
     </g>
    </g>
    <g id="xtick_2">
     <g id="line2d_4">
      <path clip-path="url(#p0148b818e3)" d="M 130.090909 252 
L 130.090909 34.56 
" style="fill:none;stroke:#e6e6e6;stroke-linecap:round;stroke-width:0.8;"/>
     </g>
     <g id="line2d_5">
      <g>
       <use style="fill:#262626;stroke:#262626;" x="130.090909" xlink:href="#ma9d3c91324" y="252"/>
      </g>
     </g>
     <g id="line2d_6">
      <g>
       <use style="fill:#262626;stroke:#262626;" x="130.090909" xlink:href="#m82c6aa0d07" y="34.56"/>
      </g>
     </g>
     <g id="text_2">
      <!-- $\mathdefault{20}$ -->
      <defs>
       <path d="M 7.296875 45.96875 
C 8.703125 51.59375 11.09375 57.984375 16.796875 60.5 
C 19.203125 61.5 21.796875 61.703125 24.40625 61.5 
C 29.296875 61.09375 34.09375 59.09375 37.09375 55.09375 
C 39.296875 52.078125 40.09375 48.375 39.703125 44.78125 
C 38.5 34.34375 28.296875 26.84375 21.703125 21.234375 
C 17.90625 18.03125 7.09375 7.8125 7.09375 7.8125 
L 5.40625 6.203125 
C 4.5 5.3125 4.40625 5.3125 4.40625 3.5 
L 4.40625 0 
L 46.40625 0 
L 46.40625 5.625 
L 10.203125 5.625 
C 13.40625 8.734375 26.703125 20.515625 28.5 21.921875 
C 34.296875 26.65625 40.796875 31.375 44.296875 38.21875 
C 48.203125 46.0625 46.5 55.9375 39.90625 61.765625 
C 35.90625 65.296875 30.40625 67 25.09375 67 
C 20.203125 67 15.203125 66 11.296875 62.90625 
C 8.296875 60.390625 5.796875 56.6875 4.40625 52.875 
C 4.09375 52.28125 3.59375 51.28125 3.703125 50.578125 
C 3.796875 49.984375 4.40625 49.484375 4.703125 49.078125 
C 5.5 48.078125 6.296875 46.875 7.296875 45.96875 
z
" id="Computer_Modern_Bright-50"/>
      </defs>
      <g style="fill:#262626;" transform="translate(123.186868 264.63241)scale(0.132 -0.132)">
       <use transform="scale(0.996264)" xlink:href="#Computer_Modern_Bright-50"/>
       <use transform="translate(50.643218 0)scale(0.996264)" xlink:href="#Computer_Modern_Bright-48"/>
      </g>
     </g>
    </g>
    <g id="xtick_3">
     <g id="line2d_7">
      <path clip-path="url(#p0148b818e3)" d="M 190.963636 252 
L 190.963636 34.56 
" style="fill:none;stroke:#e6e6e6;stroke-linecap:round;stroke-width:0.8;"/>
     </g>
     <g id="line2d_8">
      <g>
       <use style="fill:#262626;stroke:#262626;" x="190.963636" xlink:href="#ma9d3c91324" y="252"/>
      </g>
     </g>
     <g id="line2d_9">
      <g>
       <use style="fill:#262626;stroke:#262626;" x="190.963636" xlink:href="#m82c6aa0d07" y="34.56"/>
      </g>
     </g>
     <g id="text_3">
      <!-- $\mathdefault{40}$ -->
      <defs>
       <path d="M 2.09375 18 
L 31 18 
L 31 0 
L 37.296875 0 
L 37.296875 18 
L 48.703125 18 
L 48.703125 23.328125 
L 37.296875 23.328125 
L 37.296875 66.46875 
L 31.90625 66.46875 
C 30.09375 66.46875 29.59375 66.578125 28.796875 65.0625 
C 24.796875 58.515625 3.703125 25.765625 3 24.859375 
C 2.203125 23.4375 2.09375 23.546875 2.09375 21.4375 
z
M 31.296875 60.875 
L 31.296875 23.328125 
L 8.59375 23.328125 
C 9.296875 24.734375 10.296875 26.03125 11.203125 27.4375 
C 16.203125 35.171875 28.09375 53.546875 30.59375 59.28125 
C 30.90625 59.78125 31 60.375 31.296875 60.875 
z
" id="Computer_Modern_Bright-52"/>
      </defs>
      <g style="fill:#262626;" transform="translate(184.059595 264.63241)scale(0.132 -0.132)">
       <use transform="scale(0.996264)" xlink:href="#Computer_Modern_Bright-52"/>
       <use transform="translate(50.643218 0)scale(0.996264)" xlink:href="#Computer_Modern_Bright-48"/>
      </g>
     </g>
    </g>
    <g id="xtick_4">
     <g id="line2d_10">
      <path clip-path="url(#p0148b818e3)" d="M 251.836364 252 
L 251.836364 34.56 
" style="fill:none;stroke:#e6e6e6;stroke-linecap:round;stroke-width:0.8;"/>
     </g>
     <g id="line2d_11">
      <g>
       <use style="fill:#262626;stroke:#262626;" x="251.836364" xlink:href="#ma9d3c91324" y="252"/>
      </g>
     </g>
     <g id="line2d_12">
      <g>
       <use style="fill:#262626;stroke:#262626;" x="251.836364" xlink:href="#m82c6aa0d07" y="34.56"/>
      </g>
     </g>
     <g id="text_4">
      <!-- $\mathdefault{60}$ -->
      <defs>
       <path d="M 11.296875 32.625 
L 11.203125 32.625 
C 11.203125 41.765625 12.796875 52.421875 20.59375 58.25 
C 24.90625 61.375 30.703125 62.96875 38.203125 61.171875 
C 39.796875 60.765625 41.296875 60.15625 42.796875 59.765625 
L 42.796875 63.28125 
C 42.796875 63.671875 42.90625 64.375 42.59375 64.78125 
C 41.90625 65.6875 36.296875 66.59375 36.09375 66.59375 
C 27.40625 67.59375 21.703125 65.6875 16.40625 61.171875 
C 10 55.640625 6.296875 47.515625 5.09375 39.28125 
C 4 32.65625 4.90625 22 6.203125 16.78125 
C 8.296875 9.046875 12.296875 2.21875 19.703125 -0.390625 
C 24.09375 -2 29.5 -2 33.703125 0.015625 
C 37.09375 1.640625 39.90625 4.46875 42.09375 7.5 
C 45.59375 12.34375 46.5 18.21875 46.09375 24.171875 
C 45.90625 27.109375 45.5 30.046875 44.296875 32.765625 
C 42.40625 37.125 39.203125 41.671875 35.09375 43.6875 
C 33.203125 44.5 31.203125 44.5 29.203125 44.5 
C 23.90625 44.5 18.90625 42.1875 15.203125 38.359375 
C 13.59375 36.75 12 34.71875 11.296875 32.625 
z
M 24.40625 39.515625 
C 28.203125 39.8125 32.203125 39.21875 35.09375 36.5 
C 38.90625 32.890625 39.59375 27.765625 39.59375 22.8125 
C 39.59375 19.46875 39.703125 16.015625 38.703125 12.859375 
C 38.09375 11.234375 37.296875 9.828125 36.40625 8.5 
C 34.203125 5.5625 31.40625 4.125 26.796875 3.515625 
C 22.296875 3.515625 17.796875 5.3125 15.203125 9.125 
C 13.59375 11.328125 12.796875 14.046875 12.296875 16.640625 
C 11.703125 19.34375 11.296875 22.140625 11.5 24.859375 
C 12 31.984375 17 38.515625 24.40625 39.515625 
z
" id="Computer_Modern_Bright-54"/>
      </defs>
      <g style="fill:#262626;" transform="translate(244.932322 264.63241)scale(0.132 -0.132)">
       <use transform="scale(0.996264)" xlink:href="#Computer_Modern_Bright-54"/>
       <use transform="translate(50.643218 0)scale(0.996264)" xlink:href="#Computer_Modern_Bright-48"/>
      </g>
     </g>
    </g>
    <g id="xtick_5">
     <g id="line2d_13">
      <path clip-path="url(#p0148b818e3)" d="M 312.709091 252 
L 312.709091 34.56 
" style="fill:none;stroke:#e6e6e6;stroke-linecap:round;stroke-width:0.8;"/>
     </g>
     <g id="line2d_14">
      <g>
       <use style="fill:#262626;stroke:#262626;" x="312.709091" xlink:href="#ma9d3c91324" y="252"/>
      </g>
     </g>
     <g id="line2d_15">
      <g>
       <use style="fill:#262626;stroke:#262626;" x="312.709091" xlink:href="#m82c6aa0d07" y="34.56"/>
      </g>
     </g>
     <g id="text_5">
      <!-- $\mathdefault{80}$ -->
      <defs>
       <path d="M 18.703125 36 
L 18.703125 35.90625 
C 12.5 34.09375 7.296875 30.6875 4.796875 24.84375 
C 2.203125 18.71875 4 11.28125 8.40625 6.453125 
C 13.09375 1.421875 19.5 -1 26.296875 -1 
C 36.296875 -1 45.90625 6.40625 47.09375 16.734375 
C 47.296875 18.265625 47.203125 19.890625 47 21.40625 
C 45.203125 29.21875 39.5 33.875 32.09375 35.90625 
C 32.90625 36.203125 33.796875 36.40625 34.59375 36.703125 
C 38.796875 38.421875 42.296875 40.921875 44.5 44.9375 
C 47.796875 51.375 44.59375 58.90625 39.203125 63.015625 
C 33.796875 67.140625 26.5 68.234375 19.90625 66.828125 
C 12 65.125 4.5 58.40625 5 49.765625 
C 5.203125 46.75 6.5 44.234375 8 42.4375 
C 10.296875 39.625 14.796875 36.609375 18.703125 36 
z
M 23.796875 62.5 
C 28.203125 62.5 33.703125 62 36.90625 58.578125 
C 40.703125 54.46875 40.90625 47.03125 37.09375 42.8125 
C 34.703125 40.203125 31.203125 38.890625 27.703125 38.59375 
C 22.796875 38.1875 17.203125 39 13.703125 42.8125 
C 9.796875 47.125 10.09375 54.96875 14.296875 58.984375 
C 16.90625 61.390625 20.40625 62.1875 23.796875 62.5 
z
M 23.703125 33.5 
C 28.40625 33.5 33.5 32.390625 36.90625 28.9375 
C 38.203125 27.53125 39.203125 25.8125 39.796875 24.015625 
C 41.5 18.75 40.703125 12.09375 36.796875 8.046875 
C 34.09375 5.328125 30.40625 4.3125 26.703125 4.015625 
C 22.203125 4.015625 17 5.109375 13.796875 8.5625 
C 9.40625 13.390625 8.5 23.40625 13.703125 29.0625 
C 16.296875 31.78125 20 33.203125 23.703125 33.5 
z
" id="Computer_Modern_Bright-56"/>
      </defs>
      <g style="fill:#262626;" transform="translate(305.805049 264.63241)scale(0.132 -0.132)">
       <use transform="scale(0.996264)" xlink:href="#Computer_Modern_Bright-56"/>
       <use transform="translate(50.643218 0)scale(0.996264)" xlink:href="#Computer_Modern_Bright-48"/>
      </g>
     </g>
    </g>
    <g id="xtick_6">
     <g id="line2d_16">
      <path clip-path="url(#p0148b818e3)" d="M 373.581818 252 
L 373.581818 34.56 
" style="fill:none;stroke:#e6e6e6;stroke-linecap:round;stroke-width:0.8;"/>
     </g>
     <g id="line2d_17">
      <g>
       <use style="fill:#262626;stroke:#262626;" x="373.581818" xlink:href="#ma9d3c91324" y="252"/>
      </g>
     </g>
     <g id="line2d_18">
      <g>
       <use style="fill:#262626;stroke:#262626;" x="373.581818" xlink:href="#m82c6aa0d07" y="34.56"/>
      </g>
     </g>
     <g id="text_6">
      <!-- $\mathdefault{100}$ -->
      <defs>
       <path d="M 9.703125 60.015625 
L 9.703125 55 
C 15.203125 55 19 56 23.40625 57.90625 
L 23.40625 5.015625 
L 10.296875 5.015625 
L 10.296875 0 
L 43 0 
L 43 5.015625 
L 29.90625 5.015625 
L 29.90625 67 
C 27.5 67 27.90625 66.359375 26 64.875 
C 21.90625 61.71875 16.203125 60.015625 9.703125 60.015625 
z
" id="Computer_Modern_Bright-49"/>
      </defs>
      <g style="fill:#262626;" transform="translate(363.225756 264.63241)scale(0.132 -0.132)">
       <use transform="scale(0.996264)" xlink:href="#Computer_Modern_Bright-49"/>
       <use transform="translate(50.643218 0)scale(0.996264)" xlink:href="#Computer_Modern_Bright-48"/>
       <use transform="translate(101.286436 0)scale(0.996264)" xlink:href="#Computer_Modern_Bright-48"/>
      </g>
     </g>
    </g>
    <g id="text_7">
     <!-- time step -->
     <defs>
      <path d="M 10.796875 60.5 
L 10.796875 47.015625 
L 1.09375 47.015625 
L 1.09375 42 
L 10.703125 42 
L 10.703125 15.015625 
C 10.703125 10.578125 10.40625 5.234375 13.296875 1.515625 
C 15 -0.703125 17.296875 -1.296875 20.796875 -1 
C 23.703125 -1 26.59375 -0.390625 29.296875 0.65625 
C 30.203125 1.0625 33.5 2.515625 33.90625 3.234375 
C 34.09375 3.640625 32.796875 8.09375 32.796875 8.09375 
L 30.40625 6.265625 
C 27.296875 4.34375 21.09375 2.328125 18.5 5.96875 
C 16.203125 9.09375 16.796875 13.75 16.796875 17.375 
L 16.796875 42 
L 32.296875 42 
L 32.296875 47.015625 
L 16.796875 47.015625 
L 16.796875 60.5 
z
" id="Computer_Modern_Bright-116"/>
      <path d="M 6.40625 70 
L 6.40625 63.671875 
L 12.703125 63.671875 
L 12.703125 70 
z
M 6.40625 47.390625 
L 6.40625 0 
L 12.703125 0 
L 12.703125 47.390625 
z
" id="Computer_Modern_Bright-105"/>
      <path d="M 12.59375 37.359375 
L 12.5 37.359375 
L 12.5 47.390625 
L 6.40625 47.390625 
L 6.40625 0 
L 12.796875 0 
L 12.796875 22.046875 
C 12.796875 26.953125 12.5 31.875 14.703125 36.375 
C 16.59375 40.28125 19.90625 43.390625 25.796875 42.78125 
C 28.796875 42.78125 31.796875 41.984375 33.703125 39.453125 
C 35.5 37.140625 35.59375 34.140625 35.59375 31.3125 
L 35.59375 0 
L 42 0 
L 42 22.046875 
C 42 26.953125 41.703125 31.875 43.90625 36.375 
C 45.796875 40.28125 49.09375 43.390625 55 42.78125 
C 58 42.78125 61 41.984375 62.90625 39.453125 
C 64.703125 37.140625 64.796875 34.140625 64.796875 31.3125 
L 64.796875 0 
L 71.203125 0 
L 71.203125 26.5625 
C 71.203125 31.375 71.796875 36.78125 69.703125 41.1875 
C 67.59375 45.296875 64.203125 47.5 58.703125 47.5 
C 55.5 47.796875 52.296875 47.3125 49.40625 45.84375 
C 45.90625 43.921875 43.296875 40.75 41.703125 37.265625 
C 41 40.578125 40.203125 42.828125 38 45 
C 35.703125 47.0625 32.59375 48 29.59375 48 
C 22.296875 48.59375 17.703125 45.5625 14.59375 41 
C 13.796875 39.875 13 38.671875 12.59375 37.359375 
z
" id="Computer_Modern_Bright-109"/>
      <path d="M 41.796875 10.9375 
C 39.5 9.234375 38.796875 8.328125 35.90625 6.8125 
C 29.796875 3.5 22.59375 3.5 17.40625 7.171875 
C 12.40625 10.765625 9.5 16.640625 9.5 25 
L 42.5 25 
C 42.5 32.421875 40.796875 38.859375 36.59375 43.375 
C 32 47.890625 24.796875 49.296875 18.703125 47.390625 
C 16.40625 46.6875 14.296875 45.484375 12.40625 43.96875 
C 6.09375 38.859375 3.40625 30.71875 3.5 22.78125 
C 3.703125 12.34375 10.796875 1.90625 21.296875 -0.3125 
C 26.796875 -1.421875 32.59375 -0.203125 37.5 2.296875 
C 38.40625 2.796875 41.703125 4.609375 42.09375 5.515625 
C 42.40625 6.015625 41.796875 10.9375 41.796875 10.9375 
z
M 37.203125 28.90625 
L 10 28.90625 
C 11.203125 36.234375 17.203125 43.96875 25.296875 43.0625 
C 31.90625 42.46875 35.40625 37.75 36.703125 31.828125 
C 36.90625 30.8125 37 29.921875 37.203125 28.90625 
z
" id="Computer_Modern_Bright-101"/>
      <path d="M 3.09375 9.640625 
C 2.90625 8.234375 2.59375 6.9375 2.40625 5.53125 
C 2.203125 4.421875 1.90625 3.921875 2.90625 3.421875 
C 7 1.015625 11.90625 -0.296875 17.703125 -0.796875 
C 24.203125 -1.40625 32.40625 0.109375 35.59375 6.53125 
C 36.5 8.34375 37 10.34375 37.09375 12.359375 
C 37.5 19.578125 31.796875 24.203125 26.90625 25.90625 
C 21.40625 28.015625 13.90625 27.3125 10.09375 31.53125 
C 8.09375 33.84375 8 37.265625 9.90625 39.671875 
C 13.90625 45.296875 26.796875 42.875 31.90625 40.375 
C 32.703125 39.96875 33.40625 39.46875 34.296875 39.265625 
L 35.203125 44.6875 
C 30.5 46.796875 26.40625 48 19.90625 48 
C 14.296875 48 9.203125 46.703125 6 43.484375 
C 2.796875 40.171875 1.703125 34.640625 3.59375 30.4375 
C 5.40625 26.40625 9.203125 23.796875 13.296875 22.5 
C 19.203125 20.390625 25.90625 21.390625 29.796875 16.578125 
C 32 13.765625 31.59375 9.546875 29.09375 7.03125 
C 24.296875 2.609375 14.09375 4.21875 8.5 6.625 
C 6.59375 7.4375 4.90625 8.640625 3.09375 9.640625 
z
" id="Computer_Modern_Bright-115"/>
      <path d="M 12.703125 40.53125 
L 12.703125 47.15625 
L 6.40625 47.15625 
L 6.40625 -17 
L 12.796875 -17 
L 12.796875 6.09375 
C 14.203125 4.078125 15.796875 2.28125 17.90625 1.078125 
C 25 -3.25 34 0.171875 38.90625 6.59375 
C 45.40625 14.96875 46.09375 27.5 41.59375 36.984375 
C 39 42.4375 34.09375 47.5 27.796875 48 
C 22.296875 48 18.09375 45.8125 15.09375 43.125 
C 14.203125 42.328125 13.5 41.4375 12.703125 40.53125 
z
M 21.90625 42.875 
C 26 43.171875 30 41.265625 32.796875 38.265625 
C 34.5 36.34375 35.796875 34.140625 36.59375 31.734375 
C 40.09375 22.296875 36.90625 9.234375 26.796875 5.328125 
C 21 3.109375 15.296875 5.125 13.09375 10.546875 
C 12.59375 11.546875 12.796875 12.859375 12.796875 13.953125 
L 12.796875 34.640625 
C 12.796875 36.953125 13 37.15625 14.5 38.859375 
C 16.296875 41.0625 19 42.578125 21.90625 42.875 
z
" id="Computer_Modern_Bright-112"/>
     </defs>
     <g style="fill:#262626;" transform="translate(192.875269 280.786813)scale(0.144 -0.144)">
      <use transform="scale(0.996264)" xlink:href="#Computer_Modern_Bright-116"/>
      <use transform="translate(36.114388 0)scale(0.996264)" xlink:href="#Computer_Modern_Bright-105"/>
      <use transform="translate(55.209347 0)scale(0.996264)" xlink:href="#Computer_Modern_Bright-109"/>
      <use transform="translate(132.419473 0)scale(0.996264)" xlink:href="#Computer_Modern_Bright-101"/>
      <use transform="translate(208.716352 0)scale(0.996264)" xlink:href="#Computer_Modern_Bright-115"/>
      <use transform="translate(247.155382 0)scale(0.996264)" xlink:href="#Computer_Modern_Bright-116"/>
      <use transform="translate(283.26977 0)scale(0.996264)" xlink:href="#Computer_Modern_Bright-101"/>
      <use transform="translate(328.101437 0)scale(0.996264)" xlink:href="#Computer_Modern_Bright-112"/>
     </g>
    </g>
   </g>
   <g id="matplotlib.axis_2">
    <g id="ytick_1">
     <g id="line2d_19">
      <path clip-path="url(#p0148b818e3)" d="M 54 248.492903 
L 388.8 248.492903 
" style="fill:none;stroke:#e6e6e6;stroke-linecap:round;stroke-width:0.8;"/>
     </g>
     <g id="line2d_20">
      <defs>
       <path d="M 0 0 
L 4.8 0 
" id="m87c96cd21e" style="stroke:#262626;"/>
      </defs>
      <g>
       <use style="fill:#262626;stroke:#262626;" x="54" xlink:href="#m87c96cd21e" y="248.492903"/>
      </g>
     </g>
     <g id="line2d_21">
      <defs>
       <path d="M 0 0 
L -4.8 0 
" id="m2cc4fb09e1" style="stroke:#262626;"/>
      </defs>
      <g>
       <use style="fill:#262626;stroke:#262626;" x="388.8" xlink:href="#m2cc4fb09e1" y="248.492903"/>
      </g>
     </g>
     <g id="text_8">
      <!-- $\mathdefault{-20}$ -->
      <defs>
       <path d="M 9.796875 28.078125 
C 8 27.484375 7.796875 24.78125 9.796875 24.28125 
C 10.296875 24.078125 10.90625 24.1875 11.5 24.1875 
L 64.703125 24.1875 
C 65.90625 24.1875 67.796875 23.78125 68.796875 24.78125 
C 69.90625 25.875 69.296875 27.875 67.703125 28.1875 
C 66.5 28.375 65.09375 28.1875 63.90625 28.1875 
L 11.40625 28.1875 
C 10.90625 28.1875 10.296875 28.28125 9.796875 28.078125 
z
" id="Computer_Modern_Bright_Math_Symbols-0"/>
      </defs>
      <g style="fill:#262626;" transform="translate(26.46358 253.059108)scale(0.132 -0.132)">
       <use transform="scale(0.996264)" xlink:href="#Computer_Modern_Bright_Math_Symbols-0"/>
       <use transform="translate(77.487468 0)scale(0.996264)" xlink:href="#Computer_Modern_Bright-50"/>
       <use transform="translate(128.130685 0)scale(0.996264)" xlink:href="#Computer_Modern_Bright-48"/>
      </g>
     </g>
    </g>
    <g id="ytick_2">
     <g id="line2d_22">
      <path clip-path="url(#p0148b818e3)" d="M 54 216.610205 
L 388.8 216.610205 
" style="fill:none;stroke:#e6e6e6;stroke-linecap:round;stroke-width:0.8;"/>
     </g>
     <g id="line2d_23">
      <g>
       <use style="fill:#262626;stroke:#262626;" x="54" xlink:href="#m87c96cd21e" y="216.610205"/>
      </g>
     </g>
     <g id="line2d_24">
      <g>
       <use style="fill:#262626;stroke:#262626;" x="388.8" xlink:href="#m2cc4fb09e1" y="216.610205"/>
      </g>
     </g>
     <g id="text_9">
      <!-- $\mathdefault{-15}$ -->
      <defs>
       <path d="M 8.40625 66.328125 
L 8.40625 30.453125 
L 12.203125 30.453125 
C 12.703125 30.453125 13.40625 30.359375 13.796875 30.5625 
C 14.296875 30.859375 14.59375 31.5625 14.90625 31.96875 
C 15.59375 32.859375 16.40625 33.5625 17.203125 34.265625 
C 20.796875 37.28125 27.703125 38.484375 32.296875 36.171875 
C 38.59375 33.171875 39.796875 25.21875 39.296875 19 
C 39 15.0625 37.796875 11.453125 35.5 9.140625 
C 30.203125 3.5 21.296875 3.5 14.796875 6.796875 
C 11.59375 8.40625 8.90625 10.921875 6.90625 13.921875 
L 6.796875 13.921875 
C 6.5 13.421875 4.203125 9.90625 4.203125 9.296875 
C 4.203125 8.890625 4.5 8.59375 4.703125 8.296875 
C 7.703125 4.78125 11.59375 2.0625 16.09375 0.5625 
C 25 -2.25 35 -0.046875 41.296875 7.1875 
C 48.796875 15.921875 47.796875 30.15625 39.09375 37.765625 
C 36.5 40.1875 32.90625 41.890625 28.59375 42.28125 
C 22.796875 43.09375 17.59375 40.28125 14.5 37.671875 
L 14.5 61 
L 42.90625 61 
L 42.90625 66.328125 
z
" id="Computer_Modern_Bright-53"/>
      </defs>
      <g style="fill:#262626;" transform="translate(26.46358 221.17641)scale(0.132 -0.132)">
       <use transform="scale(0.996264)" xlink:href="#Computer_Modern_Bright_Math_Symbols-0"/>
       <use transform="translate(77.487468 0)scale(0.996264)" xlink:href="#Computer_Modern_Bright-49"/>
       <use transform="translate(128.130685 0)scale(0.996264)" xlink:href="#Computer_Modern_Bright-53"/>
      </g>
     </g>
    </g>
    <g id="ytick_3">
     <g id="line2d_25">
      <path clip-path="url(#p0148b818e3)" d="M 54 184.727507 
L 388.8 184.727507 
" style="fill:none;stroke:#e6e6e6;stroke-linecap:round;stroke-width:0.8;"/>
     </g>
     <g id="line2d_26">
      <g>
       <use style="fill:#262626;stroke:#262626;" x="54" xlink:href="#m87c96cd21e" y="184.727507"/>
      </g>
     </g>
     <g id="line2d_27">
      <g>
       <use style="fill:#262626;stroke:#262626;" x="388.8" xlink:href="#m2cc4fb09e1" y="184.727507"/>
      </g>
     </g>
     <g id="text_10">
      <!-- $\mathdefault{-10}$ -->
      <g style="fill:#262626;" transform="translate(26.46358 189.293712)scale(0.132 -0.132)">
       <use transform="scale(0.996264)" xlink:href="#Computer_Modern_Bright_Math_Symbols-0"/>
       <use transform="translate(77.487468 0)scale(0.996264)" xlink:href="#Computer_Modern_Bright-49"/>
       <use transform="translate(128.130685 0)scale(0.996264)" xlink:href="#Computer_Modern_Bright-48"/>
      </g>
     </g>
    </g>
    <g id="ytick_4">
     <g id="line2d_28">
      <path clip-path="url(#p0148b818e3)" d="M 54 152.844809 
L 388.8 152.844809 
" style="fill:none;stroke:#e6e6e6;stroke-linecap:round;stroke-width:0.8;"/>
     </g>
     <g id="line2d_29">
      <g>
       <use style="fill:#262626;stroke:#262626;" x="54" xlink:href="#m87c96cd21e" y="152.844809"/>
      </g>
     </g>
     <g id="line2d_30">
      <g>
       <use style="fill:#262626;stroke:#262626;" x="388.8" xlink:href="#m2cc4fb09e1" y="152.844809"/>
      </g>
     </g>
     <g id="text_11">
      <!-- $\mathdefault{-5}$ -->
      <g style="fill:#262626;" transform="translate(33.367622 157.411014)scale(0.132 -0.132)">
       <use transform="scale(0.996264)" xlink:href="#Computer_Modern_Bright_Math_Symbols-0"/>
       <use transform="translate(77.487468 0)scale(0.996264)" xlink:href="#Computer_Modern_Bright-53"/>
      </g>
     </g>
    </g>
    <g id="ytick_5">
     <g id="line2d_31">
      <path clip-path="url(#p0148b818e3)" d="M 54 120.962111 
L 388.8 120.962111 
" style="fill:none;stroke:#e6e6e6;stroke-linecap:round;stroke-width:0.8;"/>
     </g>
     <g id="line2d_32">
      <g>
       <use style="fill:#262626;stroke:#262626;" x="54" xlink:href="#m87c96cd21e" y="120.962111"/>
      </g>
     </g>
     <g id="line2d_33">
      <g>
       <use style="fill:#262626;stroke:#262626;" x="388.8" xlink:href="#m2cc4fb09e1" y="120.962111"/>
      </g>
     </g>
     <g id="text_12">
      <!-- $\mathdefault{0}$ -->
      <g style="fill:#262626;" transform="translate(43.595959 125.528316)scale(0.132 -0.132)">
       <use transform="scale(0.996264)" xlink:href="#Computer_Modern_Bright-48"/>
      </g>
     </g>
    </g>
    <g id="ytick_6">
     <g id="line2d_34">
      <path clip-path="url(#p0148b818e3)" d="M 54 89.079413 
L 388.8 89.079413 
" style="fill:none;stroke:#e6e6e6;stroke-linecap:round;stroke-width:0.8;"/>
     </g>
     <g id="line2d_35">
      <g>
       <use style="fill:#262626;stroke:#262626;" x="54" xlink:href="#m87c96cd21e" y="89.079413"/>
      </g>
     </g>
     <g id="line2d_36">
      <g>
       <use style="fill:#262626;stroke:#262626;" x="388.8" xlink:href="#m2cc4fb09e1" y="89.079413"/>
      </g>
     </g>
     <g id="text_13">
      <!-- $\mathdefault{5}$ -->
      <g style="fill:#262626;" transform="translate(43.595959 93.645618)scale(0.132 -0.132)">
       <use transform="scale(0.996264)" xlink:href="#Computer_Modern_Bright-53"/>
      </g>
     </g>
    </g>
    <g id="ytick_7">
     <g id="line2d_37">
      <path clip-path="url(#p0148b818e3)" d="M 54 57.196716 
L 388.8 57.196716 
" style="fill:none;stroke:#e6e6e6;stroke-linecap:round;stroke-width:0.8;"/>
     </g>
     <g id="line2d_38">
      <g>
       <use style="fill:#262626;stroke:#262626;" x="54" xlink:href="#m87c96cd21e" y="57.196716"/>
      </g>
     </g>
     <g id="line2d_39">
      <g>
       <use style="fill:#262626;stroke:#262626;" x="388.8" xlink:href="#m2cc4fb09e1" y="57.196716"/>
      </g>
     </g>
     <g id="text_14">
      <!-- $\mathdefault{10}$ -->
      <g style="fill:#262626;" transform="translate(36.691917 61.762921)scale(0.132 -0.132)">
       <use transform="scale(0.996264)" xlink:href="#Computer_Modern_Bright-49"/>
       <use transform="translate(50.643218 0)scale(0.996264)" xlink:href="#Computer_Modern_Bright-48"/>
      </g>
     </g>
    </g>
    <g id="text_15">
     <!-- position along the x-axis -->
     <defs>
      <path d="M 10.703125 42.078125 
C 1.796875 33.234375 0.796875 17.875 8.5 7.9375 
C 9.59375 6.421875 10.90625 5.125 12.40625 4.015625 
C 16.09375 1 21.5 -1.203125 27.796875 -0.5 
C 37.796875 0.703125 44.703125 8.84375 46.796875 17.375 
C 49.59375 29.328125 43.703125 42.671875 32.703125 46.890625 
C 24.09375 50.40625 15.5 46.890625 10.703125 42.078125 
z
M 35.703125 39.359375 
C 40.5 35.03125 41.40625 28.109375 41 21.984375 
C 40.703125 17.265625 39.40625 12.34375 36.09375 8.828125 
C 30.703125 3 20.703125 3 14.90625 8.625 
C 11.90625 11.84375 10.09375 16.453125 9.796875 21.984375 
C 9.296875 30.109375 11.296875 38.75 19.296875 41.96875 
C 25.203125 44.578125 32 42.671875 35.703125 39.359375 
z
" id="Computer_Modern_Bright-111"/>
      <path d="M 12.59375 37.28125 
L 12.5 37.28125 
L 12.5 47.390625 
L 6.40625 47.390625 
L 6.40625 0 
L 12.796875 0 
L 12.796875 21.9375 
C 12.796875 26.84375 12.5 31.875 14.703125 36.46875 
C 15.796875 38.78125 17.5 40.78125 19.796875 41.984375 
C 21.703125 42.890625 23.703125 42.890625 25.796875 42.6875 
C 28.796875 42.6875 31.703125 41.890625 33.59375 39.375 
C 35.40625 37.0625 35.5 34.0625 35.5 31.25 
L 35.5 0 
L 41.90625 0 
L 41.90625 26.859375 
C 41.90625 31.875 42.40625 37.375 40 41.890625 
C 38.09375 45.5 34.40625 47.203125 30.5 47.703125 
C 28.5 48 26.40625 48 24.40625 47.609375 
C 19.203125 46.5 14.40625 42.296875 12.59375 37.28125 
z
" id="Computer_Modern_Bright-110"/>
      <path d="M 7.90625 39.015625 
C 9.59375 39.859375 11 41.09375 12.703125 41.921875 
C 15.40625 43.15625 18.203125 44 21.203125 44 
C 22.59375 44.09375 24.203125 44.296875 25.59375 44 
C 28.09375 43.59375 30.296875 42.078125 31.796875 39.953125 
C 33.296875 37.515625 33.90625 35.390625 33.90625 31.46875 
L 33.90625 27.015625 
C 29.09375 27.015625 24.296875 26.609375 19.703125 25.390625 
C 13.90625 24.078125 7.59375 21.125 5.5 15.84375 
C 3.40625 10.78125 5.59375 4.078125 10.09375 1.03125 
C 12.296875 -0.5 14.90625 -0.5 17.5 -0.296875 
C 21.703125 0 25.90625 1.015625 29.5 3.25 
C 31.203125 4.25 32.90625 5.578125 33.90625 7.296875 
L 34 7.296875 
L 34 0.203125 
L 40.296875 0.203125 
L 40.296875 26.890625 
C 40.296875 29.8125 40.59375 32.953125 40 35.890625 
C 39.40625 39.921875 36.90625 43.265625 34 45.59375 
C 30.59375 48.21875 26.703125 49.109375 21.5 48.71875 
C 16.703125 48.71875 13 47.5 9.40625 45.765625 
C 8.90625 45.5625 7.90625 45.234375 7.59375 44.640625 
C 7.296875 44.21875 7.5 43.515625 7.5 43 
C 7.703125 41.671875 7.796875 40.34375 7.90625 39.015625 
z
M 33.90625 24 
L 33.90625 16.375 
C 33.90625 14.0625 34 11.953125 32.703125 9.953125 
C 31.59375 8.34375 30.09375 7.234375 28.5 6.4375 
C 22.796875 3.515625 14.09375 4.421875 11.59375 9.25 
C 9.59375 12.75 11.703125 16.875 14.59375 19.1875 
C 18.90625 22.5 27.296875 24 33.90625 24 
z
" id="Computer_Modern_Bright-97"/>
      <path d="M 6.40625 69.6875 
L 6.40625 0 
L 12.703125 0 
L 12.703125 69.6875 
z
" id="Computer_Modern_Bright-108"/>
      <path d="M 35.40625 11.984375 
L 35.5 11.984375 
L 35.5 2.65625 
C 35.5 -0.15625 35.5 -2.859375 34.59375 -5.5625 
C 33.09375 -9.1875 30.5 -12.5 26.203125 -13.09375 
C 25 -13.203125 23.703125 -13.09375 22.5 -13 
C 16 -13 11.703125 -11.046875 6.5 -8.671875 
L 6.5 -12.484375 
C 6.5 -14.40625 6.796875 -14.5 8.703125 -15.109375 
C 13.796875 -17.21875 23 -19.3125 29.296875 -17.71875 
C 36.296875 -15.90625 41.40625 -9.28125 41.90625 -1.21875 
C 42 0.1875 41.90625 1.703125 41.90625 3.125 
L 41.90625 48 
L 35.59375 48 
L 35.59375 39.984375 
C 34.09375 42.484375 32.5 44.796875 29.90625 46.40625 
C 22.90625 50.625 13.40625 46 9.5 40.578125 
C 3.09375 32.640625 1.90625 20.34375 7 11.484375 
C 8 9.78125 9.203125 8.171875 10.59375 6.765625 
C 15.40625 2.046875 23.59375 -0.46875 29.5 3.75 
C 31.90625 5.359375 34.703125 9.078125 35.40625 11.984375 
z
M 25.5 43 
C 26.40625 43 27.40625 43 28.296875 42.796875 
C 31.90625 42.09375 33.90625 38.875 35.09375 35.65625 
C 35.796875 33.453125 35.59375 31.046875 35.59375 28.734375 
C 35.59375 23.71875 35.5 18.5 33.796875 13.765625 
C 32.59375 10.265625 30.09375 7.140625 26.203125 6.75 
C 24.90625 6.640625 23.59375 6.84375 22.296875 7.140625 
C 16.203125 8.546875 12 13.765625 10.703125 19.796875 
C 8.90625 28.53125 13.203125 39.171875 22 42.1875 
C 23.09375 42.59375 24.296875 42.890625 25.5 43 
z
" id="Computer_Modern_Bright-103"/>
      <path d="M 6.40625 69.6875 
L 6.40625 0 
L 12.796875 0 
L 12.796875 21.984375 
C 12.796875 26.90625 12.5 31.9375 14.703125 36.546875 
C 15.796875 38.859375 17.5 40.875 19.796875 42.078125 
C 21.703125 42.984375 23.703125 42.984375 25.796875 42.78125 
C 28.796875 42.78125 31.703125 41.984375 33.59375 39.453125 
C 35.40625 37.140625 35.5 34.140625 35.5 31.3125 
L 35.5 0 
L 41.90625 0 
L 41.90625 27.21875 
C 41.90625 32.234375 42.40625 37.75 39.90625 42.28125 
C 37.90625 45.6875 34.40625 47.296875 30.703125 47.796875 
C 28.703125 48 26.703125 48 24.703125 47.703125 
C 21.09375 47.015625 18 45.03125 15.59375 42.34375 
C 14.5 41.046875 13.203125 39.46875 12.796875 37.765625 
L 12.703125 37.765625 
L 12.703125 69.6875 
z
" id="Computer_Modern_Bright-104"/>
      <path d="M -0.203125 47.390625 
L 10.09375 34.46875 
L 18.203125 24.546875 
L 18.203125 24.453125 
L 15.703125 21.328125 
L -0.796875 0 
C 1.5 0 3.90625 0 6.09375 0 
L 7.40625 1.625 
L 20.90625 20.828125 
L 21 20.828125 
C 26 13.921875 31 6.90625 36.296875 0.296875 
C 38.40625 0 40.90625 0 43.296875 0 
L 31.09375 15.296875 
C 28.703125 18.40625 26.203125 21.4375 23.703125 24.453125 
L 23.703125 24.546875 
L 27.09375 28.75 
L 41.5 47.390625 
C 39.203125 47.390625 36.90625 47.390625 34.703125 47.390625 
L 33.40625 45.890625 
L 21 29.171875 
C 16.203125 35.046875 11.703125 41.3125 6.796875 47.09375 
C 4.703125 47.390625 2.203125 47.390625 -0.203125 47.390625 
z
" id="Computer_Modern_Bright-120"/>
      <path d="M 0.40625 26.015625 
L 0.40625 21 
L 28.296875 21 
L 28.296875 26.015625 
z
" id="Computer_Modern_Bright-45"/>
     </defs>
     <g style="fill:#262626;" transform="translate(20.072553 217.419245)rotate(-90)scale(0.144 -0.144)">
      <use transform="scale(0.996264)" xlink:href="#Computer_Modern_Bright-112"/>
      <use transform="translate(48.152497 0)scale(0.996264)" xlink:href="#Computer_Modern_Bright-111"/>
      <use transform="translate(98.795715 0)scale(0.996264)" xlink:href="#Computer_Modern_Bright-115"/>
      <use transform="translate(137.234744 0)scale(0.996264)" xlink:href="#Computer_Modern_Bright-105"/>
      <use transform="translate(156.329703 0)scale(0.996264)" xlink:href="#Computer_Modern_Bright-116"/>
      <use transform="translate(192.444091 0)scale(0.996264)" xlink:href="#Computer_Modern_Bright-105"/>
      <use transform="translate(211.53905 0)scale(0.996264)" xlink:href="#Computer_Modern_Bright-111"/>
      <use transform="translate(262.182268 0)scale(0.996264)" xlink:href="#Computer_Modern_Bright-110"/>
      <use transform="translate(341.799976 0)scale(0.996264)" xlink:href="#Computer_Modern_Bright-97"/>
      <use transform="translate(388.292058 0)scale(0.996264)" xlink:href="#Computer_Modern_Bright-108"/>
      <use transform="translate(407.387017 0)scale(0.996264)" xlink:href="#Computer_Modern_Bright-111"/>
      <use transform="translate(458.030235 0)scale(0.996264)" xlink:href="#Computer_Modern_Bright-110"/>
      <use transform="translate(506.182732 0)scale(0.996264)" xlink:href="#Computer_Modern_Bright-103"/>
      <use transform="translate(585.800441 0)scale(0.996264)" xlink:href="#Computer_Modern_Bright-116"/>
      <use transform="translate(621.914829 0)scale(0.996264)" xlink:href="#Computer_Modern_Bright-104"/>
      <use transform="translate(670.067326 0)scale(0.996264)" xlink:href="#Computer_Modern_Bright-101"/>
      <use transform="translate(746.364205 0)scale(0.996264)" xlink:href="#Computer_Modern_Bright-120"/>
      <use transform="translate(788.705243 0)scale(0.996264)" xlink:href="#Computer_Modern_Bright-45"/>
      <use transform="translate(821.913917 0)scale(0.996264)" xlink:href="#Computer_Modern_Bright-97"/>
      <use transform="translate(868.405999 0)scale(0.996264)" xlink:href="#Computer_Modern_Bright-120"/>
      <use transform="translate(910.747037 0)scale(0.996264)" xlink:href="#Computer_Modern_Bright-105"/>
      <use transform="translate(929.841996 0)scale(0.996264)" xlink:href="#Computer_Modern_Bright-115"/>
     </g>
    </g>
   </g>
   <g id="line2d_40">
    <path clip-path="url(#p0148b818e3)" d="M 69.218182 120.962111 
L 72.261818 127.338651 
L 75.305455 120.962111 
L 78.349091 114.585572 
L 81.392727 108.209032 
L 84.436364 114.585572 
L 87.48 108.209032 
L 90.523636 101.832493 
L 93.567273 95.455953 
L 96.610909 89.079413 
L 99.654545 82.702874 
L 102.698182 76.326334 
L 105.741818 82.702874 
L 108.785455 89.079413 
L 111.829091 82.702874 
L 114.872727 76.326334 
L 117.916364 82.702874 
L 120.96 76.326334 
L 124.003636 69.949795 
L 127.047273 63.573255 
L 130.090909 69.949795 
L 133.134545 76.326334 
L 136.178182 69.949795 
L 139.221818 63.573255 
L 142.265455 57.196716 
L 145.309091 63.573255 
L 148.352727 69.949795 
L 151.396364 76.326334 
L 154.44 69.949795 
L 157.483636 76.326334 
L 160.527273 69.949795 
L 163.570909 76.326334 
L 166.614545 69.949795 
L 169.658182 76.326334 
L 172.701818 69.949795 
L 175.745455 76.326334 
L 178.789091 82.702874 
L 181.832727 89.079413 
L 184.876364 82.702874 
L 187.92 76.326334 
L 190.963636 69.949795 
L 194.007273 76.326334 
L 197.050909 82.702874 
L 200.094545 76.326334 
L 203.138182 69.949795 
L 206.181818 63.573255 
L 209.225455 57.196716 
L 212.269091 50.820176 
L 215.312727 57.196716 
L 218.356364 63.573255 
L 221.4 57.196716 
L 224.443636 63.573255 
L 227.487273 57.196716 
L 230.530909 63.573255 
L 233.574545 69.949795 
L 236.618182 63.573255 
L 239.661818 69.949795 
L 242.705455 76.326334 
L 245.749091 82.702874 
L 248.792727 76.326334 
L 251.836364 69.949795 
L 254.88 76.326334 
L 257.923636 82.702874 
L 260.967273 76.326334 
L 264.010909 82.702874 
L 267.054545 76.326334 
L 270.098182 69.949795 
L 273.141818 76.326334 
L 276.185455 82.702874 
L 279.229091 89.079413 
L 282.272727 82.702874 
L 285.316364 89.079413 
L 288.36 95.455953 
L 291.403636 89.079413 
L 294.447273 95.455953 
L 297.490909 89.079413 
L 300.534545 82.702874 
L 303.578182 89.079413 
L 306.621818 82.702874 
L 309.665455 89.079413 
L 312.709091 95.455953 
L 315.752727 89.079413 
L 318.796364 95.455953 
L 321.84 89.079413 
L 324.883636 95.455953 
L 327.927273 101.832493 
L 330.970909 95.455953 
L 334.014545 101.832493 
L 337.058182 95.455953 
L 340.101818 89.079413 
L 343.145455 82.702874 
L 346.189091 89.079413 
L 349.232727 95.455953 
L 352.276364 101.832493 
L 355.32 95.455953 
L 358.363636 101.832493 
L 361.407273 108.209032 
L 364.450909 101.832493 
L 367.494545 108.209032 
L 370.538182 101.832493 
L 373.581818 108.209032 
" style="fill:none;stroke:#4c72b0;stroke-linecap:round;stroke-width:2;"/>
   </g>
   <g id="line2d_41">
    <path clip-path="url(#p0148b818e3)" d="M 69.218182 120.962111 
L 72.261818 127.338651 
L 75.305455 133.715191 
L 78.349091 127.338651 
L 81.392727 120.962111 
L 84.436364 114.585572 
L 87.48 108.209032 
L 90.523636 101.832493 
L 93.567273 95.455953 
L 96.610909 101.832493 
L 99.654545 95.455953 
L 102.698182 89.079413 
L 105.741818 95.455953 
L 108.785455 89.079413 
L 111.829091 82.702874 
L 114.872727 76.326334 
L 117.916364 82.702874 
L 120.96 89.079413 
L 124.003636 95.455953 
L 127.047273 101.832493 
L 130.090909 108.209032 
L 133.134545 114.585572 
L 136.178182 120.962111 
L 139.221818 127.338651 
L 142.265455 133.715191 
L 145.309091 140.09173 
L 148.352727 146.46827 
L 151.396364 140.09173 
L 154.44 146.46827 
L 157.483636 152.844809 
L 160.527273 146.46827 
L 163.570909 140.09173 
L 166.614545 146.46827 
L 169.658182 140.09173 
L 172.701818 133.715191 
L 175.745455 140.09173 
L 178.789091 146.46827 
L 181.832727 152.844809 
L 184.876364 159.221349 
L 187.92 165.597889 
L 190.963636 171.974428 
L 194.007273 178.350968 
L 197.050909 184.727507 
L 200.094545 178.350968 
L 203.138182 184.727507 
L 206.181818 191.104047 
L 209.225455 184.727507 
L 212.269091 191.104047 
L 215.312727 184.727507 
L 218.356364 178.350968 
L 221.4 184.727507 
L 224.443636 178.350968 
L 227.487273 184.727507 
L 230.530909 191.104047 
L 233.574545 197.480587 
L 236.618182 203.857126 
L 239.661818 210.233666 
L 242.705455 203.857126 
L 245.749091 197.480587 
L 248.792727 191.104047 
L 251.836364 197.480587 
L 254.88 191.104047 
L 257.923636 197.480587 
L 260.967273 203.857126 
L 264.010909 210.233666 
L 267.054545 216.610205 
L 270.098182 210.233666 
L 273.141818 216.610205 
L 276.185455 210.233666 
L 279.229091 203.857126 
L 282.272727 210.233666 
L 285.316364 203.857126 
L 288.36 197.480587 
L 291.403636 191.104047 
L 294.447273 197.480587 
L 297.490909 203.857126 
L 300.534545 210.233666 
L 303.578182 203.857126 
L 306.621818 197.480587 
L 309.665455 191.104047 
L 312.709091 184.727507 
L 315.752727 178.350968 
L 318.796364 184.727507 
L 321.84 191.104047 
L 324.883636 184.727507 
L 327.927273 191.104047 
L 330.970909 184.727507 
L 334.014545 178.350968 
L 337.058182 184.727507 
L 340.101818 191.104047 
L 343.145455 197.480587 
L 346.189091 203.857126 
L 349.232727 197.480587 
L 352.276364 203.857126 
L 355.32 210.233666 
L 358.363636 203.857126 
L 361.407273 197.480587 
L 364.450909 203.857126 
L 367.494545 197.480587 
L 370.538182 191.104047 
L 373.581818 197.480587 
" style="fill:none;stroke:#dd8452;stroke-linecap:round;stroke-width:2;"/>
   </g>
   <g id="line2d_42">
    <path clip-path="url(#p0148b818e3)" d="M 69.218182 120.962111 
L 72.261818 114.585572 
L 75.305455 120.962111 
L 78.349091 127.338651 
L 81.392727 120.962111 
L 84.436364 127.338651 
L 87.48 120.962111 
L 90.523636 127.338651 
L 93.567273 133.715191 
L 96.610909 127.338651 
L 99.654545 133.715191 
L 102.698182 127.338651 
L 105.741818 120.962111 
L 108.785455 114.585572 
L 111.829091 108.209032 
L 114.872727 101.832493 
L 117.916364 108.209032 
L 120.96 101.832493 
L 124.003636 95.455953 
L 127.047273 101.832493 
L 130.090909 95.455953 
L 133.134545 89.079413 
L 136.178182 82.702874 
L 139.221818 89.079413 
L 142.265455 95.455953 
L 145.309091 101.832493 
L 148.352727 108.209032 
L 151.396364 101.832493 
L 154.44 95.455953 
L 157.483636 89.079413 
L 160.527273 95.455953 
L 163.570909 89.079413 
L 166.614545 82.702874 
L 169.658182 76.326334 
L 172.701818 69.949795 
L 175.745455 63.573255 
L 178.789091 69.949795 
L 181.832727 76.326334 
L 184.876364 69.949795 
L 187.92 76.326334 
L 190.963636 69.949795 
L 194.007273 63.573255 
L 197.050909 69.949795 
L 200.094545 76.326334 
L 203.138182 69.949795 
L 206.181818 76.326334 
L 209.225455 69.949795 
L 212.269091 76.326334 
L 215.312727 82.702874 
L 218.356364 76.326334 
L 221.4 82.702874 
L 224.443636 76.326334 
L 227.487273 82.702874 
L 230.530909 76.326334 
L 233.574545 69.949795 
L 236.618182 63.573255 
L 239.661818 69.949795 
L 242.705455 63.573255 
L 245.749091 57.196716 
L 248.792727 50.820176 
L 251.836364 44.443636 
L 254.88 50.820176 
L 257.923636 57.196716 
L 260.967273 63.573255 
L 264.010909 69.949795 
L 267.054545 63.573255 
L 270.098182 57.196716 
L 273.141818 63.573255 
L 276.185455 57.196716 
L 279.229091 50.820176 
L 282.272727 57.196716 
L 285.316364 63.573255 
L 288.36 69.949795 
L 291.403636 63.573255 
L 294.447273 69.949795 
L 297.490909 63.573255 
L 300.534545 69.949795 
L 303.578182 76.326334 
L 306.621818 82.702874 
L 309.665455 89.079413 
L 312.709091 95.455953 
L 315.752727 101.832493 
L 318.796364 95.455953 
L 321.84 89.079413 
L 324.883636 95.455953 
L 327.927273 89.079413 
L 330.970909 82.702874 
L 334.014545 76.326334 
L 337.058182 82.702874 
L 340.101818 76.326334 
L 343.145455 82.702874 
L 346.189091 89.079413 
L 349.232727 82.702874 
L 352.276364 76.326334 
L 355.32 69.949795 
L 358.363636 63.573255 
L 361.407273 57.196716 
L 364.450909 50.820176 
L 367.494545 57.196716 
L 370.538182 50.820176 
L 373.581818 44.443636 
" style="fill:none;stroke:#55a868;stroke-linecap:round;stroke-width:2;"/>
   </g>
   <g id="line2d_43">
    <path clip-path="url(#p0148b818e3)" d="M 69.218182 120.962111 
L 72.261818 114.585572 
L 75.305455 108.209032 
L 78.349091 114.585572 
L 81.392727 108.209032 
L 84.436364 114.585572 
L 87.48 120.962111 
L 90.523636 114.585572 
L 93.567273 108.209032 
L 96.610909 114.585572 
L 99.654545 120.962111 
L 102.698182 114.585572 
L 105.741818 108.209032 
L 108.785455 101.832493 
L 111.829091 108.209032 
L 114.872727 114.585572 
L 117.916364 120.962111 
L 120.96 114.585572 
L 124.003636 108.209032 
L 127.047273 114.585572 
L 130.090909 108.209032 
L 133.134545 101.832493 
L 136.178182 108.209032 
L 139.221818 114.585572 
L 142.265455 120.962111 
L 145.309091 127.338651 
L 148.352727 133.715191 
L 151.396364 140.09173 
L 154.44 146.46827 
L 157.483636 152.844809 
L 160.527273 159.221349 
L 163.570909 152.844809 
L 166.614545 146.46827 
L 169.658182 140.09173 
L 172.701818 133.715191 
L 175.745455 127.338651 
L 178.789091 120.962111 
L 181.832727 127.338651 
L 184.876364 133.715191 
L 187.92 127.338651 
L 190.963636 133.715191 
L 194.007273 140.09173 
L 197.050909 133.715191 
L 200.094545 140.09173 
L 203.138182 146.46827 
L 206.181818 152.844809 
L 209.225455 146.46827 
L 212.269091 140.09173 
L 215.312727 133.715191 
L 218.356364 140.09173 
L 221.4 146.46827 
L 224.443636 152.844809 
L 227.487273 146.46827 
L 230.530909 152.844809 
L 233.574545 159.221349 
L 236.618182 165.597889 
L 239.661818 171.974428 
L 242.705455 165.597889 
L 245.749091 159.221349 
L 248.792727 152.844809 
L 251.836364 159.221349 
L 254.88 152.844809 
L 257.923636 146.46827 
L 260.967273 152.844809 
L 264.010909 146.46827 
L 267.054545 152.844809 
L 270.098182 146.46827 
L 273.141818 152.844809 
L 276.185455 146.46827 
L 279.229091 140.09173 
L 282.272727 146.46827 
L 285.316364 140.09173 
L 288.36 133.715191 
L 291.403636 127.338651 
L 294.447273 120.962111 
L 297.490909 114.585572 
L 300.534545 108.209032 
L 303.578182 114.585572 
L 306.621818 120.962111 
L 309.665455 127.338651 
L 312.709091 133.715191 
L 315.752727 140.09173 
L 318.796364 133.715191 
L 321.84 140.09173 
L 324.883636 133.715191 
L 327.927273 140.09173 
L 330.970909 133.715191 
L 334.014545 140.09173 
L 337.058182 146.46827 
L 340.101818 140.09173 
L 343.145455 146.46827 
L 346.189091 140.09173 
L 349.232727 133.715191 
L 352.276364 140.09173 
L 355.32 146.46827 
L 358.363636 140.09173 
L 361.407273 146.46827 
L 364.450909 140.09173 
L 367.494545 146.46827 
L 370.538182 140.09173 
L 373.581818 133.715191 
" style="fill:none;stroke:#c44e52;stroke-linecap:round;stroke-width:2;"/>
   </g>
   <g id="line2d_44">
    <path clip-path="url(#p0148b818e3)" d="M 69.218182 120.962111 
L 72.261818 127.338651 
L 75.305455 133.715191 
L 78.349091 127.338651 
L 81.392727 133.715191 
L 84.436364 127.338651 
L 87.48 133.715191 
L 90.523636 140.09173 
L 93.567273 146.46827 
L 96.610909 152.844809 
L 99.654545 146.46827 
L 102.698182 140.09173 
L 105.741818 146.46827 
L 108.785455 140.09173 
L 111.829091 146.46827 
L 114.872727 152.844809 
L 117.916364 146.46827 
L 120.96 140.09173 
L 124.003636 146.46827 
L 127.047273 152.844809 
L 130.090909 159.221349 
L 133.134545 165.597889 
L 136.178182 171.974428 
L 139.221818 165.597889 
L 142.265455 171.974428 
L 145.309091 178.350968 
L 148.352727 171.974428 
L 151.396364 178.350968 
L 154.44 184.727507 
L 157.483636 178.350968 
L 160.527273 171.974428 
L 163.570909 178.350968 
L 166.614545 171.974428 
L 169.658182 165.597889 
L 172.701818 171.974428 
L 175.745455 165.597889 
L 178.789091 171.974428 
L 181.832727 178.350968 
L 184.876364 184.727507 
L 187.92 191.104047 
L 190.963636 197.480587 
L 194.007273 191.104047 
L 197.050909 197.480587 
L 200.094545 203.857126 
L 203.138182 210.233666 
L 206.181818 203.857126 
L 209.225455 197.480587 
L 212.269091 203.857126 
L 215.312727 210.233666 
L 218.356364 216.610205 
L 221.4 222.986745 
L 224.443636 216.610205 
L 227.487273 222.986745 
L 230.530909 229.363284 
L 233.574545 235.739824 
L 236.618182 242.116364 
L 239.661818 235.739824 
L 242.705455 229.363284 
L 245.749091 222.986745 
L 248.792727 216.610205 
L 251.836364 222.986745 
L 254.88 216.610205 
L 257.923636 222.986745 
L 260.967273 229.363284 
L 264.010909 222.986745 
L 267.054545 216.610205 
L 270.098182 222.986745 
L 273.141818 229.363284 
L 276.185455 222.986745 
L 279.229091 229.363284 
L 282.272727 222.986745 
L 285.316364 229.363284 
L 288.36 222.986745 
L 291.403636 216.610205 
L 294.447273 222.986745 
L 297.490909 229.363284 
L 300.534545 222.986745 
L 303.578182 229.363284 
L 306.621818 235.739824 
L 309.665455 229.363284 
L 312.709091 235.739824 
L 315.752727 229.363284 
L 318.796364 235.739824 
L 321.84 229.363284 
L 324.883636 222.986745 
L 327.927273 216.610205 
L 330.970909 210.233666 
L 334.014545 203.857126 
L 337.058182 210.233666 
L 340.101818 203.857126 
L 343.145455 197.480587 
L 346.189091 191.104047 
L 349.232727 197.480587 
L 352.276364 191.104047 
L 355.32 197.480587 
L 358.363636 203.857126 
L 361.407273 210.233666 
L 364.450909 216.610205 
L 367.494545 222.986745 
L 370.538182 229.363284 
L 373.581818 235.739824 
" style="fill:none;stroke:#8172b3;stroke-linecap:round;stroke-width:2;"/>
   </g>
   <g id="patch_3">
    <path d="M 54 252 
L 54 34.56 
" style="fill:none;stroke:#000000;stroke-linecap:square;stroke-linejoin:miter;"/>
   </g>
   <g id="patch_4">
    <path d="M 388.8 252 
L 388.8 34.56 
" style="fill:none;stroke:#000000;stroke-linecap:square;stroke-linejoin:miter;"/>
   </g>
   <g id="patch_5">
    <path d="M 54 252 
L 388.8 252 
" style="fill:none;stroke:#000000;stroke-linecap:square;stroke-linejoin:miter;"/>
   </g>
   <g id="patch_6">
    <path d="M 54 34.56 
L 388.8 34.56 
" style="fill:none;stroke:#000000;stroke-linecap:square;stroke-linejoin:miter;"/>
   </g>
  </g>
 </g>
 <defs>
  <clipPath id="p0148b818e3">
   <rect height="217.44" width="334.8" x="54" y="34.56"/>
  </clipPath>
 </defs>
</svg>
