<?xml version="1.0" encoding="utf-8" standalone="no"?>
<!DOCTYPE svg PUBLIC "-//W3C//DTD SVG 1.1//EN"
  "http://www.w3.org/Graphics/SVG/1.1/DTD/svg11.dtd">
<!-- Created with matplotlib (https://matplotlib.org/) -->
<svg height="288pt" version="1.1" viewBox="0 0 432 288" width="432pt" xmlns="http://www.w3.org/2000/svg" xmlns:xlink="http://www.w3.org/1999/xlink">
 <defs>
  <style type="text/css">
*{stroke-linecap:butt;stroke-linejoin:round;}
  </style>
 </defs>
 <g id="figure_1">
  <g id="patch_1">
   <path d="M 0 288 
L 432 288 
L 432 0 
L 0 0 
z
" style="fill:#ffffff;"/>
  </g>
  <g id="axes_1">
   <g id="patch_2">
    <path d="M 54 252 
L 388.8 252 
L 388.8 34.56 
L 54 34.56 
z
" style="fill:#ffffff;"/>
   </g>
   <g id="matplotlib.axis_1">
    <g id="xtick_1">
     <g id="line2d_1">
      <path clip-path="url(#p78f83c19bd)" d="M 54 252 
L 54 34.56 
" style="fill:none;stroke:#e6e6e6;stroke-linecap:round;stroke-width:0.8;"/>
     </g>
     <g id="line2d_2">
      <defs>
       <path d="M 0 0 
L 0 -4.8 
" id="m1fcbef8cd7" style="stroke:#262626;"/>
      </defs>
      <g>
       <use style="fill:#262626;stroke:#262626;" x="54" xlink:href="#m1fcbef8cd7" y="252"/>
      </g>
     </g>
     <g id="line2d_3">
      <defs>
       <path d="M 0 0 
L 0 4.8 
" id="m1f1ba94940" style="stroke:#262626;"/>
      </defs>
      <g>
       <use style="fill:#262626;stroke:#262626;" x="54" xlink:href="#m1f1ba94940" y="34.56"/>
      </g>
     </g>
     <g id="text_1">
      <!-- $\mathdefault{-10.0}$ -->
      <defs>
       <path d="M 9.796875 28.078125 
C 8 27.484375 7.796875 24.78125 9.796875 24.28125 
C 10.296875 24.078125 10.90625 24.1875 11.5 24.1875 
L 64.703125 24.1875 
C 65.90625 24.1875 67.796875 23.78125 68.796875 24.78125 
C 69.90625 25.875 69.296875 27.875 67.703125 28.1875 
C 66.5 28.375 65.09375 28.1875 63.90625 28.1875 
L 11.40625 28.1875 
C 10.90625 28.1875 10.296875 28.28125 9.796875 28.078125 
z
" id="Computer_Modern_Bright_Math_Symbols-0"/>
       <path d="M 9.703125 60.015625 
L 9.703125 55 
C 15.203125 55 19 56 23.40625 57.90625 
L 23.40625 5.015625 
L 10.296875 5.015625 
L 10.296875 0 
L 43 0 
L 43 5.015625 
L 29.90625 5.015625 
L 29.90625 67 
C 27.5 67 27.90625 66.359375 26 64.875 
C 21.90625 61.71875 16.203125 60.015625 9.703125 60.015625 
z
" id="Computer_Modern_Bright-49"/>
       <path d="M 14.796875 63.859375 
C 11.90625 61.859375 9.90625 59.140625 8.40625 56.03125 
C 4.796875 49 4.40625 40.765625 4.40625 31.828125 
C 4.40625 20.578125 6.40625 10.25 12 4.3125 
C 17.296875 -1.203125 25.703125 -2.609375 32.796875 0.296875 
C 37.203125 2.015625 40.40625 5.71875 42.40625 9.734375 
C 46 16.875 46.40625 25.40625 46.40625 34.234375 
C 46.40625 37.046875 46.296875 39.859375 46 42.671875 
C 45.296875 49.40625 43 56.828125 39.296875 60.953125 
C 33.203125 67.6875 22.296875 69.1875 14.796875 63.859375 
z
M 34.90625 58.140625 
C 39.59375 53.125 40 43.484375 40 34.34375 
L 40 28.921875 
C 40 24.296875 39.203125 18.28125 38.203125 14.859375 
C 36.796875 10.140625 34.5 6.734375 29.90625 4.625 
C 24.296875 2.609375 18.5 4.515625 15.296875 8.9375 
C 11 14.65625 10.796875 24.796875 10.796875 33.734375 
C 10.796875 42.171875 10.90625 51.515625 15 57.03125 
C 19.5 63.0625 29.203125 64.0625 34.90625 58.140625 
z
" id="Computer_Modern_Bright-48"/>
       <path d="M 10.703125 7.8125 
L 10.703125 0 
L 18.5 0 
L 18.5 7.8125 
z
" id="Computer_Modern_Bright_Math_Slanted-58"/>
      </defs>
      <g style="fill:#262626;" transform="translate(36.611981 264.63241)scale(0.132 -0.132)">
       <use transform="scale(0.996264)" xlink:href="#Computer_Modern_Bright_Math_Symbols-0"/>
       <use transform="translate(77.487468 0)scale(0.996264)" xlink:href="#Computer_Modern_Bright-49"/>
       <use transform="translate(128.130685 0)scale(0.996264)" xlink:href="#Computer_Modern_Bright-48"/>
       <use transform="translate(178.773903 0)scale(0.996264)" xlink:href="#Computer_Modern_Bright_Math_Slanted-58"/>
       <use transform="translate(207.83135 0)scale(0.996264)" xlink:href="#Computer_Modern_Bright-48"/>
      </g>
     </g>
    </g>
    <g id="xtick_2">
     <g id="line2d_4">
      <path clip-path="url(#p78f83c19bd)" d="M 95.85 252 
L 95.85 34.56 
" style="fill:none;stroke:#e6e6e6;stroke-linecap:round;stroke-width:0.8;"/>
     </g>
     <g id="line2d_5">
      <g>
       <use style="fill:#262626;stroke:#262626;" x="95.85" xlink:href="#m1fcbef8cd7" y="252"/>
      </g>
     </g>
     <g id="line2d_6">
      <g>
       <use style="fill:#262626;stroke:#262626;" x="95.85" xlink:href="#m1f1ba94940" y="34.56"/>
      </g>
     </g>
     <g id="text_2">
      <!-- $\mathdefault{-7.5}$ -->
      <defs>
       <path d="M 3.59375 65.625 
L 3.59375 60 
L 42.796875 60 
L 39.09375 56.375 
C 35.796875 52.859375 32.796875 49.125 30.09375 45.109375 
C 21.09375 31.515625 16.203125 15.3125 16.203125 -1 
L 22.90625 -1 
C 22.90625 13.703125 26.59375 28.390625 33.59375 41.375 
C 37 47.921875 40.59375 52.640625 45.296875 58.171875 
C 45.90625 58.78125 46.796875 59.484375 47.09375 60.28125 
C 47.296875 60.78125 47.203125 61.484375 47.203125 62.109375 
L 47.203125 65.625 
z
" id="Computer_Modern_Bright-55"/>
       <path d="M 8.40625 66.328125 
L 8.40625 30.453125 
L 12.203125 30.453125 
C 12.703125 30.453125 13.40625 30.359375 13.796875 30.5625 
C 14.296875 30.859375 14.59375 31.5625 14.90625 31.96875 
C 15.59375 32.859375 16.40625 33.5625 17.203125 34.265625 
C 20.796875 37.28125 27.703125 38.484375 32.296875 36.171875 
C 38.59375 33.171875 39.796875 25.21875 39.296875 19 
C 39 15.0625 37.796875 11.453125 35.5 9.140625 
C 30.203125 3.5 21.296875 3.5 14.796875 6.796875 
C 11.59375 8.40625 8.90625 10.921875 6.90625 13.921875 
L 6.796875 13.921875 
C 6.5 13.421875 4.203125 9.90625 4.203125 9.296875 
C 4.203125 8.890625 4.5 8.59375 4.703125 8.296875 
C 7.703125 4.78125 11.59375 2.0625 16.09375 0.5625 
C 25 -2.25 35 -0.046875 41.296875 7.1875 
C 48.796875 15.921875 47.796875 30.15625 39.09375 37.765625 
C 36.5 40.1875 32.90625 41.890625 28.59375 42.28125 
C 22.796875 43.09375 17.59375 40.28125 14.5 37.671875 
L 14.5 61 
L 42.90625 61 
L 42.90625 66.328125 
z
" id="Computer_Modern_Bright-53"/>
      </defs>
      <g style="fill:#262626;" transform="translate(81.914002 264.63241)scale(0.132 -0.132)">
       <use transform="scale(0.996264)" xlink:href="#Computer_Modern_Bright_Math_Symbols-0"/>
       <use transform="translate(77.487468 0)scale(0.996264)" xlink:href="#Computer_Modern_Bright-55"/>
       <use transform="translate(128.130685 0)scale(0.996264)" xlink:href="#Computer_Modern_Bright_Math_Slanted-58"/>
       <use transform="translate(157.188132 0)scale(0.996264)" xlink:href="#Computer_Modern_Bright-53"/>
      </g>
     </g>
    </g>
    <g id="xtick_3">
     <g id="line2d_7">
      <path clip-path="url(#p78f83c19bd)" d="M 137.7 252 
L 137.7 34.56 
" style="fill:none;stroke:#e6e6e6;stroke-linecap:round;stroke-width:0.8;"/>
     </g>
     <g id="line2d_8">
      <g>
       <use style="fill:#262626;stroke:#262626;" x="137.7" xlink:href="#m1fcbef8cd7" y="252"/>
      </g>
     </g>
     <g id="line2d_9">
      <g>
       <use style="fill:#262626;stroke:#262626;" x="137.7" xlink:href="#m1f1ba94940" y="34.56"/>
      </g>
     </g>
     <g id="text_3">
      <!-- $\mathdefault{-5.0}$ -->
      <g style="fill:#262626;" transform="translate(123.764002 264.63241)scale(0.132 -0.132)">
       <use transform="scale(0.996264)" xlink:href="#Computer_Modern_Bright_Math_Symbols-0"/>
       <use transform="translate(77.487468 0)scale(0.996264)" xlink:href="#Computer_Modern_Bright-53"/>
       <use transform="translate(128.130685 0)scale(0.996264)" xlink:href="#Computer_Modern_Bright_Math_Slanted-58"/>
       <use transform="translate(157.188132 0)scale(0.996264)" xlink:href="#Computer_Modern_Bright-48"/>
      </g>
     </g>
    </g>
    <g id="xtick_4">
     <g id="line2d_10">
      <path clip-path="url(#p78f83c19bd)" d="M 179.55 252 
L 179.55 34.56 
" style="fill:none;stroke:#e6e6e6;stroke-linecap:round;stroke-width:0.8;"/>
     </g>
     <g id="line2d_11">
      <g>
       <use style="fill:#262626;stroke:#262626;" x="179.55" xlink:href="#m1fcbef8cd7" y="252"/>
      </g>
     </g>
     <g id="line2d_12">
      <g>
       <use style="fill:#262626;stroke:#262626;" x="179.55" xlink:href="#m1f1ba94940" y="34.56"/>
      </g>
     </g>
     <g id="text_4">
      <!-- $\mathdefault{-2.5}$ -->
      <defs>
       <path d="M 7.296875 45.96875 
C 8.703125 51.59375 11.09375 57.984375 16.796875 60.5 
C 19.203125 61.5 21.796875 61.703125 24.40625 61.5 
C 29.296875 61.09375 34.09375 59.09375 37.09375 55.09375 
C 39.296875 52.078125 40.09375 48.375 39.703125 44.78125 
C 38.5 34.34375 28.296875 26.84375 21.703125 21.234375 
C 17.90625 18.03125 7.09375 7.8125 7.09375 7.8125 
L 5.40625 6.203125 
C 4.5 5.3125 4.40625 5.3125 4.40625 3.5 
L 4.40625 0 
L 46.40625 0 
L 46.40625 5.625 
L 10.203125 5.625 
C 13.40625 8.734375 26.703125 20.515625 28.5 21.921875 
C 34.296875 26.65625 40.796875 31.375 44.296875 38.21875 
C 48.203125 46.0625 46.5 55.9375 39.90625 61.765625 
C 35.90625 65.296875 30.40625 67 25.09375 67 
C 20.203125 67 15.203125 66 11.296875 62.90625 
C 8.296875 60.390625 5.796875 56.6875 4.40625 52.875 
C 4.09375 52.28125 3.59375 51.28125 3.703125 50.578125 
C 3.796875 49.984375 4.40625 49.484375 4.703125 49.078125 
C 5.5 48.078125 6.296875 46.875 7.296875 45.96875 
z
" id="Computer_Modern_Bright-50"/>
      </defs>
      <g style="fill:#262626;" transform="translate(165.614002 264.63241)scale(0.132 -0.132)">
       <use transform="scale(0.996264)" xlink:href="#Computer_Modern_Bright_Math_Symbols-0"/>
       <use transform="translate(77.487468 0)scale(0.996264)" xlink:href="#Computer_Modern_Bright-50"/>
       <use transform="translate(128.130685 0)scale(0.996264)" xlink:href="#Computer_Modern_Bright_Math_Slanted-58"/>
       <use transform="translate(157.188132 0)scale(0.996264)" xlink:href="#Computer_Modern_Bright-53"/>
      </g>
     </g>
    </g>
    <g id="xtick_5">
     <g id="line2d_13">
      <path clip-path="url(#p78f83c19bd)" d="M 221.4 252 
L 221.4 34.56 
" style="fill:none;stroke:#e6e6e6;stroke-linecap:round;stroke-width:0.8;"/>
     </g>
     <g id="line2d_14">
      <g>
       <use style="fill:#262626;stroke:#262626;" x="221.4" xlink:href="#m1fcbef8cd7" y="252"/>
      </g>
     </g>
     <g id="line2d_15">
      <g>
       <use style="fill:#262626;stroke:#262626;" x="221.4" xlink:href="#m1f1ba94940" y="34.56"/>
      </g>
     </g>
     <g id="text_5">
      <!-- $\mathdefault{0.0}$ -->
      <g style="fill:#262626;" transform="translate(212.57817 264.63241)scale(0.132 -0.132)">
       <use transform="scale(0.996264)" xlink:href="#Computer_Modern_Bright-48"/>
       <use transform="translate(50.643218 0)scale(0.996264)" xlink:href="#Computer_Modern_Bright_Math_Slanted-58"/>
       <use transform="translate(79.700665 0)scale(0.996264)" xlink:href="#Computer_Modern_Bright-48"/>
      </g>
     </g>
    </g>
    <g id="xtick_6">
     <g id="line2d_16">
      <path clip-path="url(#p78f83c19bd)" d="M 263.25 252 
L 263.25 34.56 
" style="fill:none;stroke:#e6e6e6;stroke-linecap:round;stroke-width:0.8;"/>
     </g>
     <g id="line2d_17">
      <g>
       <use style="fill:#262626;stroke:#262626;" x="263.25" xlink:href="#m1fcbef8cd7" y="252"/>
      </g>
     </g>
     <g id="line2d_18">
      <g>
       <use style="fill:#262626;stroke:#262626;" x="263.25" xlink:href="#m1f1ba94940" y="34.56"/>
      </g>
     </g>
     <g id="text_6">
      <!-- $\mathdefault{2.5}$ -->
      <g style="fill:#262626;" transform="translate(254.42817 264.63241)scale(0.132 -0.132)">
       <use transform="scale(0.996264)" xlink:href="#Computer_Modern_Bright-50"/>
       <use transform="translate(50.643218 0)scale(0.996264)" xlink:href="#Computer_Modern_Bright_Math_Slanted-58"/>
       <use transform="translate(79.700665 0)scale(0.996264)" xlink:href="#Computer_Modern_Bright-53"/>
      </g>
     </g>
    </g>
    <g id="xtick_7">
     <g id="line2d_19">
      <path clip-path="url(#p78f83c19bd)" d="M 305.1 252 
L 305.1 34.56 
" style="fill:none;stroke:#e6e6e6;stroke-linecap:round;stroke-width:0.8;"/>
     </g>
     <g id="line2d_20">
      <g>
       <use style="fill:#262626;stroke:#262626;" x="305.1" xlink:href="#m1fcbef8cd7" y="252"/>
      </g>
     </g>
     <g id="line2d_21">
      <g>
       <use style="fill:#262626;stroke:#262626;" x="305.1" xlink:href="#m1f1ba94940" y="34.56"/>
      </g>
     </g>
     <g id="text_7">
      <!-- $\mathdefault{5.0}$ -->
      <g style="fill:#262626;" transform="translate(296.27817 264.63241)scale(0.132 -0.132)">
       <use transform="scale(0.996264)" xlink:href="#Computer_Modern_Bright-53"/>
       <use transform="translate(50.643218 0)scale(0.996264)" xlink:href="#Computer_Modern_Bright_Math_Slanted-58"/>
       <use transform="translate(79.700665 0)scale(0.996264)" xlink:href="#Computer_Modern_Bright-48"/>
      </g>
     </g>
    </g>
    <g id="xtick_8">
     <g id="line2d_22">
      <path clip-path="url(#p78f83c19bd)" d="M 346.95 252 
L 346.95 34.56 
" style="fill:none;stroke:#e6e6e6;stroke-linecap:round;stroke-width:0.8;"/>
     </g>
     <g id="line2d_23">
      <g>
       <use style="fill:#262626;stroke:#262626;" x="346.95" xlink:href="#m1fcbef8cd7" y="252"/>
      </g>
     </g>
     <g id="line2d_24">
      <g>
       <use style="fill:#262626;stroke:#262626;" x="346.95" xlink:href="#m1f1ba94940" y="34.56"/>
      </g>
     </g>
     <g id="text_8">
      <!-- $\mathdefault{7.5}$ -->
      <g style="fill:#262626;" transform="translate(338.12817 264.63241)scale(0.132 -0.132)">
       <use transform="scale(0.996264)" xlink:href="#Computer_Modern_Bright-55"/>
       <use transform="translate(50.643218 0)scale(0.996264)" xlink:href="#Computer_Modern_Bright_Math_Slanted-58"/>
       <use transform="translate(79.700665 0)scale(0.996264)" xlink:href="#Computer_Modern_Bright-53"/>
      </g>
     </g>
    </g>
    <g id="xtick_9">
     <g id="line2d_25">
      <path clip-path="url(#p78f83c19bd)" d="M 388.8 252 
L 388.8 34.56 
" style="fill:none;stroke:#e6e6e6;stroke-linecap:round;stroke-width:0.8;"/>
     </g>
     <g id="line2d_26">
      <g>
       <use style="fill:#262626;stroke:#262626;" x="388.8" xlink:href="#m1fcbef8cd7" y="252"/>
      </g>
     </g>
     <g id="line2d_27">
      <g>
       <use style="fill:#262626;stroke:#262626;" x="388.8" xlink:href="#m1f1ba94940" y="34.56"/>
      </g>
     </g>
     <g id="text_9">
      <!-- $\mathdefault{10.0}$ -->
      <g style="fill:#262626;" transform="translate(376.526149 264.63241)scale(0.132 -0.132)">
       <use transform="scale(0.996264)" xlink:href="#Computer_Modern_Bright-49"/>
       <use transform="translate(50.643218 0)scale(0.996264)" xlink:href="#Computer_Modern_Bright-48"/>
       <use transform="translate(101.286436 0)scale(0.996264)" xlink:href="#Computer_Modern_Bright_Math_Slanted-58"/>
       <use transform="translate(130.343883 0)scale(0.996264)" xlink:href="#Computer_Modern_Bright-48"/>
      </g>
     </g>
    </g>
    <g id="text_10">
     <!-- x -->
     <defs>
      <path d="M -0.203125 47.390625 
L 10.09375 34.46875 
L 18.203125 24.546875 
L 18.203125 24.453125 
L 15.703125 21.328125 
L -0.796875 0 
C 1.5 0 3.90625 0 6.09375 0 
L 7.40625 1.625 
L 20.90625 20.828125 
L 21 20.828125 
C 26 13.921875 31 6.90625 36.296875 0.296875 
C 38.40625 0 40.90625 0 43.296875 0 
L 31.09375 15.296875 
C 28.703125 18.40625 26.203125 21.4375 23.703125 24.453125 
L 23.703125 24.546875 
L 27.09375 28.75 
L 41.5 47.390625 
C 39.203125 47.390625 36.90625 47.390625 34.703125 47.390625 
L 33.40625 45.890625 
L 21 29.171875 
C 16.203125 35.046875 11.703125 41.3125 6.796875 47.09375 
C 4.703125 47.390625 2.203125 47.390625 -0.203125 47.390625 
z
" id="Computer_Modern_Bright-120"/>
     </defs>
     <g style="fill:#262626;" transform="translate(218.112356 280.786813)scale(0.144 -0.144)">
      <use transform="scale(0.996264)" xlink:href="#Computer_Modern_Bright-120"/>
     </g>
    </g>
   </g>
   <g id="matplotlib.axis_2">
    <g id="ytick_1">
     <g id="line2d_28">
      <path clip-path="url(#p78f83c19bd)" d="M 54 252 
L 388.8 252 
" style="fill:none;stroke:#e6e6e6;stroke-linecap:round;stroke-width:0.8;"/>
     </g>
     <g id="line2d_29">
      <defs>
       <path d="M 0 0 
L 4.8 0 
" id="m54afb941ae" style="stroke:#262626;"/>
      </defs>
      <g>
       <use style="fill:#262626;stroke:#262626;" x="54" xlink:href="#m54afb941ae" y="252"/>
      </g>
     </g>
     <g id="line2d_30">
      <defs>
       <path d="M 0 0 
L -4.8 0 
" id="m188e1ae09d" style="stroke:#262626;"/>
      </defs>
      <g>
       <use style="fill:#262626;stroke:#262626;" x="388.8" xlink:href="#m188e1ae09d" y="252"/>
      </g>
     </g>
     <g id="text_11">
      <!-- $\mathdefault{-10.0}$ -->
      <g style="fill:#262626;" transform="translate(15.723962 256.566205)scale(0.132 -0.132)">
       <use transform="scale(0.996264)" xlink:href="#Computer_Modern_Bright_Math_Symbols-0"/>
       <use transform="translate(77.487468 0)scale(0.996264)" xlink:href="#Computer_Modern_Bright-49"/>
       <use transform="translate(128.130685 0)scale(0.996264)" xlink:href="#Computer_Modern_Bright-48"/>
       <use transform="translate(178.773903 0)scale(0.996264)" xlink:href="#Computer_Modern_Bright_Math_Slanted-58"/>
       <use transform="translate(207.83135 0)scale(0.996264)" xlink:href="#Computer_Modern_Bright-48"/>
      </g>
     </g>
    </g>
    <g id="ytick_2">
     <g id="line2d_31">
      <path clip-path="url(#p78f83c19bd)" d="M 54 224.82 
L 388.8 224.82 
" style="fill:none;stroke:#e6e6e6;stroke-linecap:round;stroke-width:0.8;"/>
     </g>
     <g id="line2d_32">
      <g>
       <use style="fill:#262626;stroke:#262626;" x="54" xlink:href="#m54afb941ae" y="224.82"/>
      </g>
     </g>
     <g id="line2d_33">
      <g>
       <use style="fill:#262626;stroke:#262626;" x="388.8" xlink:href="#m188e1ae09d" y="224.82"/>
      </g>
     </g>
     <g id="text_12">
      <!-- $\mathdefault{-7.5}$ -->
      <g style="fill:#262626;" transform="translate(22.628003 229.386205)scale(0.132 -0.132)">
       <use transform="scale(0.996264)" xlink:href="#Computer_Modern_Bright_Math_Symbols-0"/>
       <use transform="translate(77.487468 0)scale(0.996264)" xlink:href="#Computer_Modern_Bright-55"/>
       <use transform="translate(128.130685 0)scale(0.996264)" xlink:href="#Computer_Modern_Bright_Math_Slanted-58"/>
       <use transform="translate(157.188132 0)scale(0.996264)" xlink:href="#Computer_Modern_Bright-53"/>
      </g>
     </g>
    </g>
    <g id="ytick_3">
     <g id="line2d_34">
      <path clip-path="url(#p78f83c19bd)" d="M 54 197.64 
L 388.8 197.64 
" style="fill:none;stroke:#e6e6e6;stroke-linecap:round;stroke-width:0.8;"/>
     </g>
     <g id="line2d_35">
      <g>
       <use style="fill:#262626;stroke:#262626;" x="54" xlink:href="#m54afb941ae" y="197.64"/>
      </g>
     </g>
     <g id="line2d_36">
      <g>
       <use style="fill:#262626;stroke:#262626;" x="388.8" xlink:href="#m188e1ae09d" y="197.64"/>
      </g>
     </g>
     <g id="text_13">
      <!-- $\mathdefault{-5.0}$ -->
      <g style="fill:#262626;" transform="translate(22.628003 202.206205)scale(0.132 -0.132)">
       <use transform="scale(0.996264)" xlink:href="#Computer_Modern_Bright_Math_Symbols-0"/>
       <use transform="translate(77.487468 0)scale(0.996264)" xlink:href="#Computer_Modern_Bright-53"/>
       <use transform="translate(128.130685 0)scale(0.996264)" xlink:href="#Computer_Modern_Bright_Math_Slanted-58"/>
       <use transform="translate(157.188132 0)scale(0.996264)" xlink:href="#Computer_Modern_Bright-48"/>
      </g>
     </g>
    </g>
    <g id="ytick_4">
     <g id="line2d_37">
      <path clip-path="url(#p78f83c19bd)" d="M 54 170.46 
L 388.8 170.46 
" style="fill:none;stroke:#e6e6e6;stroke-linecap:round;stroke-width:0.8;"/>
     </g>
     <g id="line2d_38">
      <g>
       <use style="fill:#262626;stroke:#262626;" x="54" xlink:href="#m54afb941ae" y="170.46"/>
      </g>
     </g>
     <g id="line2d_39">
      <g>
       <use style="fill:#262626;stroke:#262626;" x="388.8" xlink:href="#m188e1ae09d" y="170.46"/>
      </g>
     </g>
     <g id="text_14">
      <!-- $\mathdefault{-2.5}$ -->
      <g style="fill:#262626;" transform="translate(22.628003 175.026205)scale(0.132 -0.132)">
       <use transform="scale(0.996264)" xlink:href="#Computer_Modern_Bright_Math_Symbols-0"/>
       <use transform="translate(77.487468 0)scale(0.996264)" xlink:href="#Computer_Modern_Bright-50"/>
       <use transform="translate(128.130685 0)scale(0.996264)" xlink:href="#Computer_Modern_Bright_Math_Slanted-58"/>
       <use transform="translate(157.188132 0)scale(0.996264)" xlink:href="#Computer_Modern_Bright-53"/>
      </g>
     </g>
    </g>
    <g id="ytick_5">
     <g id="line2d_40">
      <path clip-path="url(#p78f83c19bd)" d="M 54 143.28 
L 388.8 143.28 
" style="fill:none;stroke:#e6e6e6;stroke-linecap:round;stroke-width:0.8;"/>
     </g>
     <g id="line2d_41">
      <g>
       <use style="fill:#262626;stroke:#262626;" x="54" xlink:href="#m54afb941ae" y="143.28"/>
      </g>
     </g>
     <g id="line2d_42">
      <g>
       <use style="fill:#262626;stroke:#262626;" x="388.8" xlink:href="#m188e1ae09d" y="143.28"/>
      </g>
     </g>
     <g id="text_15">
      <!-- $\mathdefault{0.0}$ -->
      <g style="fill:#262626;" transform="translate(32.85634 147.846205)scale(0.132 -0.132)">
       <use transform="scale(0.996264)" xlink:href="#Computer_Modern_Bright-48"/>
       <use transform="translate(50.643218 0)scale(0.996264)" xlink:href="#Computer_Modern_Bright_Math_Slanted-58"/>
       <use transform="translate(79.700665 0)scale(0.996264)" xlink:href="#Computer_Modern_Bright-48"/>
      </g>
     </g>
    </g>
    <g id="ytick_6">
     <g id="line2d_43">
      <path clip-path="url(#p78f83c19bd)" d="M 54 116.1 
L 388.8 116.1 
" style="fill:none;stroke:#e6e6e6;stroke-linecap:round;stroke-width:0.8;"/>
     </g>
     <g id="line2d_44">
      <g>
       <use style="fill:#262626;stroke:#262626;" x="54" xlink:href="#m54afb941ae" y="116.1"/>
      </g>
     </g>
     <g id="line2d_45">
      <g>
       <use style="fill:#262626;stroke:#262626;" x="388.8" xlink:href="#m188e1ae09d" y="116.1"/>
      </g>
     </g>
     <g id="text_16">
      <!-- $\mathdefault{2.5}$ -->
      <g style="fill:#262626;" transform="translate(32.85634 120.666205)scale(0.132 -0.132)">
       <use transform="scale(0.996264)" xlink:href="#Computer_Modern_Bright-50"/>
       <use transform="translate(50.643218 0)scale(0.996264)" xlink:href="#Computer_Modern_Bright_Math_Slanted-58"/>
       <use transform="translate(79.700665 0)scale(0.996264)" xlink:href="#Computer_Modern_Bright-53"/>
      </g>
     </g>
    </g>
    <g id="ytick_7">
     <g id="line2d_46">
      <path clip-path="url(#p78f83c19bd)" d="M 54 88.92 
L 388.8 88.92 
" style="fill:none;stroke:#e6e6e6;stroke-linecap:round;stroke-width:0.8;"/>
     </g>
     <g id="line2d_47">
      <g>
       <use style="fill:#262626;stroke:#262626;" x="54" xlink:href="#m54afb941ae" y="88.92"/>
      </g>
     </g>
     <g id="line2d_48">
      <g>
       <use style="fill:#262626;stroke:#262626;" x="388.8" xlink:href="#m188e1ae09d" y="88.92"/>
      </g>
     </g>
     <g id="text_17">
      <!-- $\mathdefault{5.0}$ -->
      <g style="fill:#262626;" transform="translate(32.85634 93.486205)scale(0.132 -0.132)">
       <use transform="scale(0.996264)" xlink:href="#Computer_Modern_Bright-53"/>
       <use transform="translate(50.643218 0)scale(0.996264)" xlink:href="#Computer_Modern_Bright_Math_Slanted-58"/>
       <use transform="translate(79.700665 0)scale(0.996264)" xlink:href="#Computer_Modern_Bright-48"/>
      </g>
     </g>
    </g>
    <g id="ytick_8">
     <g id="line2d_49">
      <path clip-path="url(#p78f83c19bd)" d="M 54 61.74 
L 388.8 61.74 
" style="fill:none;stroke:#e6e6e6;stroke-linecap:round;stroke-width:0.8;"/>
     </g>
     <g id="line2d_50">
      <g>
       <use style="fill:#262626;stroke:#262626;" x="54" xlink:href="#m54afb941ae" y="61.74"/>
      </g>
     </g>
     <g id="line2d_51">
      <g>
       <use style="fill:#262626;stroke:#262626;" x="388.8" xlink:href="#m188e1ae09d" y="61.74"/>
      </g>
     </g>
     <g id="text_18">
      <!-- $\mathdefault{7.5}$ -->
      <g style="fill:#262626;" transform="translate(32.85634 66.306205)scale(0.132 -0.132)">
       <use transform="scale(0.996264)" xlink:href="#Computer_Modern_Bright-55"/>
       <use transform="translate(50.643218 0)scale(0.996264)" xlink:href="#Computer_Modern_Bright_Math_Slanted-58"/>
       <use transform="translate(79.700665 0)scale(0.996264)" xlink:href="#Computer_Modern_Bright-53"/>
      </g>
     </g>
    </g>
    <g id="ytick_9">
     <g id="line2d_52">
      <path clip-path="url(#p78f83c19bd)" d="M 54 34.56 
L 388.8 34.56 
" style="fill:none;stroke:#e6e6e6;stroke-linecap:round;stroke-width:0.8;"/>
     </g>
     <g id="line2d_53">
      <g>
       <use style="fill:#262626;stroke:#262626;" x="54" xlink:href="#m54afb941ae" y="34.56"/>
      </g>
     </g>
     <g id="line2d_54">
      <g>
       <use style="fill:#262626;stroke:#262626;" x="388.8" xlink:href="#m188e1ae09d" y="34.56"/>
      </g>
     </g>
     <g id="text_19">
      <!-- $\mathdefault{10.0}$ -->
      <g style="fill:#262626;" transform="translate(25.952299 39.126205)scale(0.132 -0.132)">
       <use transform="scale(0.996264)" xlink:href="#Computer_Modern_Bright-49"/>
       <use transform="translate(50.643218 0)scale(0.996264)" xlink:href="#Computer_Modern_Bright-48"/>
       <use transform="translate(101.286436 0)scale(0.996264)" xlink:href="#Computer_Modern_Bright_Math_Slanted-58"/>
       <use transform="translate(130.343883 0)scale(0.996264)" xlink:href="#Computer_Modern_Bright-48"/>
      </g>
     </g>
    </g>
    <g id="text_20">
     <!-- y -->
     <defs>
      <path d="M 0.703125 47.65625 
C 1.296875 45.75 5.40625 35.609375 5.5 35.3125 
L 17.40625 4.578125 
L 18.40625 2.078125 
C 19 0.671875 19.203125 0.46875 18.59375 -1.140625 
L 17.5 -4.046875 
C 16.59375 -6.46875 15.59375 -8.96875 13.703125 -10.484375 
C 10.296875 -13.296875 4.90625 -11.6875 0.796875 -10.78125 
L 1.296875 -16.5 
C 3.203125 -16.796875 5.09375 -17 7 -17 
C 11.296875 -17.515625 14.09375 -16.5 16.703125 -14.296875 
C 20 -11.484375 21.59375 -7.5625 23.09375 -3.546875 
L 26.203125 5.078125 
L 36.40625 32.90625 
C 38.09375 37.921875 40.203125 42.640625 41.796875 47.65625 
L 37.296875 47.65625 
C 36.796875 47.65625 36 47.859375 35.59375 47.46875 
C 35.40625 47.15625 35.296875 46.765625 35.203125 46.453125 
L 34.40625 44.34375 
C 33.40625 41.734375 32.5 39.234375 31.59375 36.609375 
L 25.796875 20.25 
C 24.296875 15.828125 22.59375 11.3125 21.796875 6.6875 
C 20.703125 11.3125 19.203125 15.734375 17.59375 20.140625 
C 16.296875 23.5625 8.5 44.546875 7.5 46.5625 
C 7.09375 47.65625 6.703125 47.65625 5.203125 47.65625 
z
" id="Computer_Modern_Bright-121"/>
     </defs>
     <g style="fill:#262626;" transform="translate(9.332934 146.567644)rotate(-90)scale(0.144 -0.144)">
      <use transform="scale(0.996264)" xlink:href="#Computer_Modern_Bright-121"/>
     </g>
    </g>
   </g>
   <g id="line2d_55">
    <defs>
     <path d="M 0 2.4 
C 0.636487 2.4 1.246992 2.147121 1.697056 1.697056 
C 2.147121 1.246992 2.4 0.636487 2.4 0 
C 2.4 -0.636487 2.147121 -1.246992 1.697056 -1.697056 
C 1.246992 -2.147121 0.636487 -2.4 0 -2.4 
C -0.636487 -2.4 -1.246992 -2.147121 -1.697056 -1.697056 
C -2.147121 -1.246992 -2.4 -0.636487 -2.4 0 
C -2.4 0.636487 -2.147121 1.246992 -1.697056 1.697056 
C -1.246992 2.147121 -0.636487 2.4 0 2.4 
z
" id="m3a16eb04ac" style="stroke:#4c72b0;"/>
    </defs>
    <g clip-path="url(#p78f83c19bd)">
     <use style="fill:#4c72b0;stroke:#4c72b0;" x="254.88" xlink:href="#m3a16eb04ac" y="230.256"/>
     <use style="fill:#4c72b0;stroke:#4c72b0;" x="254.88" xlink:href="#m3a16eb04ac" y="175.896"/>
     <use style="fill:#4c72b0;stroke:#4c72b0;" x="54" xlink:href="#m3a16eb04ac" y="67.176"/>
     <use style="fill:#4c72b0;stroke:#4c72b0;" x="120.96" xlink:href="#m3a16eb04ac" y="252"/>
     <use style="fill:#4c72b0;stroke:#4c72b0;" x="238.14" xlink:href="#m3a16eb04ac" y="110.664"/>
     <use style="fill:#4c72b0;stroke:#4c72b0;" x="254.88" xlink:href="#m3a16eb04ac" y="219.384"/>
     <use style="fill:#4c72b0;stroke:#4c72b0;" x="187.92" xlink:href="#m3a16eb04ac" y="132.408"/>
     <use style="fill:#4c72b0;stroke:#4c72b0;" x="238.14" xlink:href="#m3a16eb04ac" y="186.768"/>
     <use style="fill:#4c72b0;stroke:#4c72b0;" x="305.1" xlink:href="#m3a16eb04ac" y="45.432"/>
     <use style="fill:#4c72b0;stroke:#4c72b0;" x="70.74" xlink:href="#m3a16eb04ac" y="88.92"/>
     <use style="fill:#4c72b0;stroke:#4c72b0;" x="154.44" xlink:href="#m3a16eb04ac" y="154.152"/>
     <use style="fill:#4c72b0;stroke:#4c72b0;" x="338.58" xlink:href="#m3a16eb04ac" y="78.048"/>
     <use style="fill:#4c72b0;stroke:#4c72b0;" x="187.92" xlink:href="#m3a16eb04ac" y="132.408"/>
     <use style="fill:#4c72b0;stroke:#4c72b0;" x="154.44" xlink:href="#m3a16eb04ac" y="197.64"/>
     <use style="fill:#4c72b0;stroke:#4c72b0;" x="221.4" xlink:href="#m3a16eb04ac" y="132.408"/>
     <use style="fill:#4c72b0;stroke:#4c72b0;" x="271.62" xlink:href="#m3a16eb04ac" y="241.128"/>
     <use style="fill:#4c72b0;stroke:#4c72b0;" x="338.58" xlink:href="#m3a16eb04ac" y="186.768"/>
     <use style="fill:#4c72b0;stroke:#4c72b0;" x="305.1" xlink:href="#m3a16eb04ac" y="154.152"/>
     <use style="fill:#4c72b0;stroke:#4c72b0;" x="305.1" xlink:href="#m3a16eb04ac" y="56.304"/>
     <use style="fill:#4c72b0;stroke:#4c72b0;" x="104.22" xlink:href="#m3a16eb04ac" y="143.28"/>
     <use style="fill:#4c72b0;stroke:#4c72b0;" x="305.1" xlink:href="#m3a16eb04ac" y="99.792"/>
     <use style="fill:#4c72b0;stroke:#4c72b0;" x="54" xlink:href="#m3a16eb04ac" y="219.384"/>
     <use style="fill:#4c72b0;stroke:#4c72b0;" x="254.88" xlink:href="#m3a16eb04ac" y="208.512"/>
     <use style="fill:#4c72b0;stroke:#4c72b0;" x="221.4" xlink:href="#m3a16eb04ac" y="197.64"/>
     <use style="fill:#4c72b0;stroke:#4c72b0;" x="288.36" xlink:href="#m3a16eb04ac" y="154.152"/>
     <use style="fill:#4c72b0;stroke:#4c72b0;" x="54" xlink:href="#m3a16eb04ac" y="132.408"/>
     <use style="fill:#4c72b0;stroke:#4c72b0;" x="120.96" xlink:href="#m3a16eb04ac" y="175.896"/>
     <use style="fill:#4c72b0;stroke:#4c72b0;" x="254.88" xlink:href="#m3a16eb04ac" y="78.048"/>
     <use style="fill:#4c72b0;stroke:#4c72b0;" x="238.14" xlink:href="#m3a16eb04ac" y="143.28"/>
     <use style="fill:#4c72b0;stroke:#4c72b0;" x="204.66" xlink:href="#m3a16eb04ac" y="132.408"/>
     <use style="fill:#4c72b0;stroke:#4c72b0;" x="187.92" xlink:href="#m3a16eb04ac" y="197.64"/>
     <use style="fill:#4c72b0;stroke:#4c72b0;" x="104.22" xlink:href="#m3a16eb04ac" y="230.256"/>
     <use style="fill:#4c72b0;stroke:#4c72b0;" x="254.88" xlink:href="#m3a16eb04ac" y="121.536"/>
     <use style="fill:#4c72b0;stroke:#4c72b0;" x="254.88" xlink:href="#m3a16eb04ac" y="56.304"/>
     <use style="fill:#4c72b0;stroke:#4c72b0;" x="372.06" xlink:href="#m3a16eb04ac" y="186.768"/>
     <use style="fill:#4c72b0;stroke:#4c72b0;" x="70.74" xlink:href="#m3a16eb04ac" y="121.536"/>
     <use style="fill:#4c72b0;stroke:#4c72b0;" x="137.7" xlink:href="#m3a16eb04ac" y="56.304"/>
     <use style="fill:#4c72b0;stroke:#4c72b0;" x="204.66" xlink:href="#m3a16eb04ac" y="78.048"/>
     <use style="fill:#4c72b0;stroke:#4c72b0;" x="120.96" xlink:href="#m3a16eb04ac" y="99.792"/>
     <use style="fill:#4c72b0;stroke:#4c72b0;" x="54" xlink:href="#m3a16eb04ac" y="154.152"/>
     <use style="fill:#4c72b0;stroke:#4c72b0;" x="137.7" xlink:href="#m3a16eb04ac" y="67.176"/>
     <use style="fill:#4c72b0;stroke:#4c72b0;" x="54" xlink:href="#m3a16eb04ac" y="208.512"/>
     <use style="fill:#4c72b0;stroke:#4c72b0;" x="187.92" xlink:href="#m3a16eb04ac" y="252"/>
     <use style="fill:#4c72b0;stroke:#4c72b0;" x="104.22" xlink:href="#m3a16eb04ac" y="186.768"/>
     <use style="fill:#4c72b0;stroke:#4c72b0;" x="221.4" xlink:href="#m3a16eb04ac" y="132.408"/>
     <use style="fill:#4c72b0;stroke:#4c72b0;" x="204.66" xlink:href="#m3a16eb04ac" y="99.792"/>
     <use style="fill:#4c72b0;stroke:#4c72b0;" x="171.18" xlink:href="#m3a16eb04ac" y="154.152"/>
     <use style="fill:#4c72b0;stroke:#4c72b0;" x="204.66" xlink:href="#m3a16eb04ac" y="56.304"/>
     <use style="fill:#4c72b0;stroke:#4c72b0;" x="338.58" xlink:href="#m3a16eb04ac" y="241.128"/>
     <use style="fill:#4c72b0;stroke:#4c72b0;" x="271.62" xlink:href="#m3a16eb04ac" y="45.432"/>
     <use style="fill:#4c72b0;stroke:#4c72b0;" x="204.66" xlink:href="#m3a16eb04ac" y="154.152"/>
     <use style="fill:#4c72b0;stroke:#4c72b0;" x="154.44" xlink:href="#m3a16eb04ac" y="99.792"/>
     <use style="fill:#4c72b0;stroke:#4c72b0;" x="187.92" xlink:href="#m3a16eb04ac" y="175.896"/>
     <use style="fill:#4c72b0;stroke:#4c72b0;" x="87.48" xlink:href="#m3a16eb04ac" y="56.304"/>
     <use style="fill:#4c72b0;stroke:#4c72b0;" x="204.66" xlink:href="#m3a16eb04ac" y="56.304"/>
     <use style="fill:#4c72b0;stroke:#4c72b0;" x="137.7" xlink:href="#m3a16eb04ac" y="252"/>
     <use style="fill:#4c72b0;stroke:#4c72b0;" x="238.14" xlink:href="#m3a16eb04ac" y="230.256"/>
     <use style="fill:#4c72b0;stroke:#4c72b0;" x="104.22" xlink:href="#m3a16eb04ac" y="143.28"/>
     <use style="fill:#4c72b0;stroke:#4c72b0;" x="204.66" xlink:href="#m3a16eb04ac" y="208.512"/>
     <use style="fill:#4c72b0;stroke:#4c72b0;" x="254.88" xlink:href="#m3a16eb04ac" y="197.64"/>
     <use style="fill:#4c72b0;stroke:#4c72b0;" x="221.4" xlink:href="#m3a16eb04ac" y="56.304"/>
     <use style="fill:#4c72b0;stroke:#4c72b0;" x="137.7" xlink:href="#m3a16eb04ac" y="219.384"/>
     <use style="fill:#4c72b0;stroke:#4c72b0;" x="305.1" xlink:href="#m3a16eb04ac" y="88.92"/>
     <use style="fill:#4c72b0;stroke:#4c72b0;" x="321.84" xlink:href="#m3a16eb04ac" y="110.664"/>
     <use style="fill:#4c72b0;stroke:#4c72b0;" x="338.58" xlink:href="#m3a16eb04ac" y="121.536"/>
     <use style="fill:#4c72b0;stroke:#4c72b0;" x="171.18" xlink:href="#m3a16eb04ac" y="197.64"/>
     <use style="fill:#4c72b0;stroke:#4c72b0;" x="154.44" xlink:href="#m3a16eb04ac" y="56.304"/>
     <use style="fill:#4c72b0;stroke:#4c72b0;" x="171.18" xlink:href="#m3a16eb04ac" y="241.128"/>
     <use style="fill:#4c72b0;stroke:#4c72b0;" x="221.4" xlink:href="#m3a16eb04ac" y="67.176"/>
     <use style="fill:#4c72b0;stroke:#4c72b0;" x="187.92" xlink:href="#m3a16eb04ac" y="241.128"/>
     <use style="fill:#4c72b0;stroke:#4c72b0;" x="221.4" xlink:href="#m3a16eb04ac" y="45.432"/>
     <use style="fill:#4c72b0;stroke:#4c72b0;" x="70.74" xlink:href="#m3a16eb04ac" y="241.128"/>
     <use style="fill:#4c72b0;stroke:#4c72b0;" x="238.14" xlink:href="#m3a16eb04ac" y="110.664"/>
     <use style="fill:#4c72b0;stroke:#4c72b0;" x="271.62" xlink:href="#m3a16eb04ac" y="99.792"/>
     <use style="fill:#4c72b0;stroke:#4c72b0;" x="204.66" xlink:href="#m3a16eb04ac" y="230.256"/>
     <use style="fill:#4c72b0;stroke:#4c72b0;" x="154.44" xlink:href="#m3a16eb04ac" y="219.384"/>
     <use style="fill:#4c72b0;stroke:#4c72b0;" x="87.48" xlink:href="#m3a16eb04ac" y="154.152"/>
     <use style="fill:#4c72b0;stroke:#4c72b0;" x="187.92" xlink:href="#m3a16eb04ac" y="67.176"/>
     <use style="fill:#4c72b0;stroke:#4c72b0;" x="221.4" xlink:href="#m3a16eb04ac" y="88.92"/>
     <use style="fill:#4c72b0;stroke:#4c72b0;" x="355.32" xlink:href="#m3a16eb04ac" y="121.536"/>
     <use style="fill:#4c72b0;stroke:#4c72b0;" x="355.32" xlink:href="#m3a16eb04ac" y="175.896"/>
     <use style="fill:#4c72b0;stroke:#4c72b0;" x="355.32" xlink:href="#m3a16eb04ac" y="121.536"/>
     <use style="fill:#4c72b0;stroke:#4c72b0;" x="120.96" xlink:href="#m3a16eb04ac" y="99.792"/>
     <use style="fill:#4c72b0;stroke:#4c72b0;" x="372.06" xlink:href="#m3a16eb04ac" y="252"/>
     <use style="fill:#4c72b0;stroke:#4c72b0;" x="120.96" xlink:href="#m3a16eb04ac" y="99.792"/>
     <use style="fill:#4c72b0;stroke:#4c72b0;" x="187.92" xlink:href="#m3a16eb04ac" y="88.92"/>
     <use style="fill:#4c72b0;stroke:#4c72b0;" x="204.66" xlink:href="#m3a16eb04ac" y="143.28"/>
     <use style="fill:#4c72b0;stroke:#4c72b0;" x="305.1" xlink:href="#m3a16eb04ac" y="230.256"/>
     <use style="fill:#4c72b0;stroke:#4c72b0;" x="238.14" xlink:href="#m3a16eb04ac" y="88.92"/>
     <use style="fill:#4c72b0;stroke:#4c72b0;" x="238.14" xlink:href="#m3a16eb04ac" y="154.152"/>
     <use style="fill:#4c72b0;stroke:#4c72b0;" x="355.32" xlink:href="#m3a16eb04ac" y="78.048"/>
     <use style="fill:#4c72b0;stroke:#4c72b0;" x="355.32" xlink:href="#m3a16eb04ac" y="252"/>
     <use style="fill:#4c72b0;stroke:#4c72b0;" x="204.66" xlink:href="#m3a16eb04ac" y="165.024"/>
     <use style="fill:#4c72b0;stroke:#4c72b0;" x="271.62" xlink:href="#m3a16eb04ac" y="78.048"/>
     <use style="fill:#4c72b0;stroke:#4c72b0;" x="372.06" xlink:href="#m3a16eb04ac" y="45.432"/>
     <use style="fill:#4c72b0;stroke:#4c72b0;" x="187.92" xlink:href="#m3a16eb04ac" y="252"/>
     <use style="fill:#4c72b0;stroke:#4c72b0;" x="187.92" xlink:href="#m3a16eb04ac" y="186.768"/>
     <use style="fill:#4c72b0;stroke:#4c72b0;" x="321.84" xlink:href="#m3a16eb04ac" y="208.512"/>
     <use style="fill:#4c72b0;stroke:#4c72b0;" x="104.22" xlink:href="#m3a16eb04ac" y="45.432"/>
     <use style="fill:#4c72b0;stroke:#4c72b0;" x="305.1" xlink:href="#m3a16eb04ac" y="252"/>
    </g>
   </g>
   <g id="patch_3">
    <path d="M 54 252 
L 54 34.56 
" style="fill:none;stroke:#000000;stroke-linecap:square;stroke-linejoin:miter;"/>
   </g>
   <g id="patch_4">
    <path d="M 388.8 252 
L 388.8 34.56 
" style="fill:none;stroke:#000000;stroke-linecap:square;stroke-linejoin:miter;"/>
   </g>
   <g id="patch_5">
    <path d="M 54 252 
L 388.8 252 
" style="fill:none;stroke:#000000;stroke-linecap:square;stroke-linejoin:miter;"/>
   </g>
   <g id="patch_6">
    <path d="M 54 34.56 
L 388.8 34.56 
" style="fill:none;stroke:#000000;stroke-linecap:square;stroke-linejoin:miter;"/>
   </g>
  </g>
 </g>
 <defs>
  <clipPath id="p78f83c19bd">
   <rect height="217.44" width="334.8" x="54" y="34.56"/>
  </clipPath>
 </defs>
</svg>
