<?xml version="1.0" encoding="UTF-8" standalone="no"?>
<!-- Created with Inkscape (http://www.inkscape.org/) -->

<svg
   xmlns:svg="http://www.w3.org/2000/svg"
   xmlns="http://www.w3.org/2000/svg"
   xmlns:xlink="http://www.w3.org/1999/xlink"
   version="1.1"
   width="400"
   height="397"
   id="svg2816">
  <defs
     id="defs2820">
    <linearGradient
       id="linearGradient4011">
      <stop
         id="stop4013"
         style="stop-color:#ffffff;stop-opacity:1"
         offset="0" />
      <stop
         id="stop4015"
         style="stop-color:#353536;stop-opacity:1"
         offset="1" />
    </linearGradient>
    <linearGradient
       id="linearGradient4005">
      <stop
         id="stop4007"
         style="stop-color:#ff0000;stop-opacity:1"
         offset="0" />
      <stop
         id="stop4009"
         style="stop-color:#450000;stop-opacity:1"
         offset="1" />
    </linearGradient>
    <linearGradient
       id="linearGradient3999">
      <stop
         id="stop4001"
         style="stop-color:#ff0000;stop-opacity:1"
         offset="0" />
      <stop
         id="stop4003"
         style="stop-color:#390000;stop-opacity:1"
         offset="1" />
    </linearGradient>
    <linearGradient
       id="linearGradient3991">
      <stop
         id="stop3993"
         style="stop-color:#ffffff;stop-opacity:1"
         offset="0" />
      <stop
         id="stop3995"
         style="stop-color:#555355;stop-opacity:1"
         offset="1" />
    </linearGradient>
    <linearGradient
       id="linearGradient3707">
      <stop
         id="stop3709"
         style="stop-color:#ffffff;stop-opacity:1"
         offset="0" />
      <stop
         id="stop3711"
         style="stop-color:#555356;stop-opacity:1"
         offset="1" />
    </linearGradient>
    <linearGradient
       id="linearGradient3602">
      <stop
         id="stop3604"
         style="stop-color:#ff0000;stop-opacity:1"
         offset="0" />
      <stop
         id="stop3606"
         style="stop-color:#6a0000;stop-opacity:1"
         offset="1" />
    </linearGradient>
    <radialGradient
       cx="21.48699"
       cy="76.5802"
       r="38.690678"
       fx="21.48699"
       fy="76.5802"
       id="radialGradient3608"
       xlink:href="#linearGradient3602"
       gradientUnits="userSpaceOnUse"
       gradientTransform="matrix(0.72489271,0.9470623,-1.5118055,1.1571516,296.11904,-62.066809)" />
    <linearGradient
       id="linearGradient3602-7">
      <stop
         id="stop3604-4"
         style="stop-color:#ff0000;stop-opacity:1"
         offset="0" />
      <stop
         id="stop3606-0"
         style="stop-color:#6a0000;stop-opacity:1"
         offset="1" />
    </linearGradient>
    <radialGradient
       cx="21.48699"
       cy="76.5802"
       r="38.690678"
       fx="21.48699"
       fy="76.5802"
       id="radialGradient3627"
       xlink:href="#linearGradient3602-7"
       gradientUnits="userSpaceOnUse"
       gradientTransform="matrix(0.72489271,0.9470623,-1.5118055,1.1571516,294.85737,104.89187)" />
    <radialGradient
       cx="21.48699"
       cy="76.5802"
       r="38.690678"
       fx="21.48699"
       fy="76.5802"
       id="radialGradient3627-5"
       xlink:href="#linearGradient4005"
       gradientUnits="userSpaceOnUse"
       gradientTransform="matrix(0.72489271,0.9470623,-1.5118055,1.1571516,423.96649,210.87069)" />
    <radialGradient
       cx="21.48699"
       cy="76.5802"
       r="38.690678"
       fx="21.48699"
       fy="76.5802"
       id="radialGradient3627-2"
       xlink:href="#linearGradient3999"
       gradientUnits="userSpaceOnUse"
       gradientTransform="matrix(0.72489271,0.9470623,-1.5118055,1.1571516,214.95272,238.62705)" />
    <linearGradient
       id="linearGradient3602-2">
      <stop
         id="stop3604-3"
         style="stop-color:#ff0000;stop-opacity:1"
         offset="0" />
      <stop
         id="stop3606-2"
         style="stop-color:#6a0000;stop-opacity:1"
         offset="1" />
    </linearGradient>
    <radialGradient
       cx="21.48699"
       cy="76.5802"
       r="38.690678"
       fx="21.48699"
       fy="76.5802"
       id="radialGradient3627-21"
       xlink:href="#linearGradient3602-2"
       gradientUnits="userSpaceOnUse"
       gradientTransform="matrix(0.47240199,0.61718667,-0.98522154,0.75409879,92.530256,172.70962)" />
    <radialGradient
       cx="-328.87076"
       cy="138.78178"
       r="26.074152"
       fx="-328.87076"
       fy="138.78178"
       id="radialGradient3721"
       xlink:href="#linearGradient3707"
       gradientUnits="userSpaceOnUse"
       gradientTransform="matrix(1.8480118,0.49454957,-0.38709545,1.4464818,895.24888,-9.7090591)" />
    <linearGradient
       id="linearGradient3707-5">
      <stop
         id="stop3709-7"
         style="stop-color:#ffffff;stop-opacity:1"
         offset="0" />
      <stop
         id="stop3711-6"
         style="stop-color:#555356;stop-opacity:1"
         offset="1" />
    </linearGradient>
    <radialGradient
       cx="-321.10025"
       cy="131.55823"
       r="26.074152"
       fx="-321.10025"
       fy="131.55823"
       id="radialGradient3740"
       xlink:href="#linearGradient3707-5"
       gradientUnits="userSpaceOnUse"
       gradientTransform="matrix(0.33816863,-1.4317021,1.1206265,0.26469245,142.79556,-474.97881)" />
    <linearGradient
       id="linearGradient3707-2">
      <stop
         id="stop3709-79"
         style="stop-color:#ffffff;stop-opacity:1"
         offset="0" />
      <stop
         id="stop3711-5"
         style="stop-color:#555356;stop-opacity:1"
         offset="1" />
    </linearGradient>
    <radialGradient
       cx="-325.51147"
       cy="148.00531"
       r="26.074152"
       fx="-325.51147"
       fy="148.00531"
       id="radialGradient3778"
       xlink:href="#linearGradient3707-2"
       gradientUnits="userSpaceOnUse"
       gradientTransform="matrix(0.03843723,1.9126551,-1.4970796,0.03008571,464.92467,860.21577)" />
    <linearGradient
       id="linearGradient3707-1">
      <stop
         id="stop3709-2"
         style="stop-color:#ffffff;stop-opacity:1"
         offset="0" />
      <stop
         id="stop3711-3"
         style="stop-color:#555356;stop-opacity:1"
         offset="1" />
    </linearGradient>
    <radialGradient
       cx="-326.83636"
       cy="132.15808"
       r="26.074152"
       fx="-326.83636"
       fy="132.15808"
       id="radialGradient3816"
       xlink:href="#linearGradient3707-1"
       gradientUnits="userSpaceOnUse"
       gradientTransform="matrix(1.270535,-1.4301985,1.1194496,0.99447729,457.93795,-412.77766)" />
    <radialGradient
       cx="-327.54837"
       cy="145.6832"
       r="26.074152"
       fx="-327.54837"
       fy="145.6832"
       id="radialGradient3854"
       xlink:href="#linearGradient4011"
       gradientUnits="userSpaceOnUse"
       gradientTransform="matrix(-0.57847403,1.7285711,-1.4199772,-0.47520172,366.76382,964.0789)" />
    <linearGradient
       id="linearGradient3707-11-2">
      <stop
         id="stop3709-3-7"
         style="stop-color:#ffffff;stop-opacity:1"
         offset="0" />
      <stop
         id="stop3711-8-7"
         style="stop-color:#555356;stop-opacity:1"
         offset="1" />
    </linearGradient>
    <radialGradient
       cx="-325.75275"
       cy="149.52147"
       r="26.074152"
       fx="-325.75275"
       fy="149.52147"
       id="radialGradient3892"
       xlink:href="#linearGradient3707-11-2"
       gradientUnits="userSpaceOnUse"
       gradientTransform="matrix(-1.7950951,0.66133212,-0.51764003,-1.4050628,-167.26943,768.28553)" />
    <linearGradient
       id="linearGradient3707-1-1">
      <stop
         id="stop3709-2-9"
         style="stop-color:#ffffff;stop-opacity:1"
         offset="0" />
      <stop
         id="stop3711-3-8"
         style="stop-color:#555356;stop-opacity:1"
         offset="1" />
    </linearGradient>
    <radialGradient
       cx="-326.83636"
       cy="132.15808"
       r="26.074152"
       fx="-326.83636"
       fy="132.15808"
       id="radialGradient3930"
       xlink:href="#linearGradient3707-1-1"
       gradientUnits="userSpaceOnUse"
       gradientTransform="matrix(1.6811136,-0.91300824,0.71463276,1.3158467,590.34747,-151.52473)" />
    <radialGradient
       cx="-262.87363"
       cy="362.66568"
       r="14.298729"
       fx="-262.87363"
       fy="362.66568"
       id="radialGradient3997"
       xlink:href="#linearGradient3991"
       gradientUnits="userSpaceOnUse"
       gradientTransform="matrix(2.7304927,0.71855054,-0.53577723,2.0359672,1030.9005,-194.80423)" />
    <linearGradient
       id="linearGradient3707-5-2">
      <stop
         id="stop3709-7-4"
         style="stop-color:#ffffff;stop-opacity:1"
         offset="0" />
      <stop
         id="stop3711-6-8"
         style="stop-color:#555356;stop-opacity:1"
         offset="1" />
    </linearGradient>
    <radialGradient
       cx="-319.78918"
       cy="143.93132"
       r="26.074152"
       fx="-319.78918"
       fy="143.93132"
       id="radialGradient4034"
       xlink:href="#linearGradient3707-5-2"
       gradientUnits="userSpaceOnUse"
       gradientTransform="matrix(-0.943219,0.82804362,-0.52123062,-0.59373034,-195.71437,620.53324)" />
    <linearGradient
       id="linearGradient3707-5-0">
      <stop
         id="stop3709-7-9"
         style="stop-color:#ffffff;stop-opacity:1"
         offset="0" />
      <stop
         id="stop3711-6-0"
         style="stop-color:#555356;stop-opacity:1"
         offset="1" />
    </linearGradient>
    <radialGradient
       cx="-329.38467"
       cy="145.77753"
       r="26.074152"
       fx="-329.38467"
       fy="145.77753"
       id="radialGradient4072"
       xlink:href="#linearGradient3707-5-0"
       gradientUnits="userSpaceOnUse"
       gradientTransform="matrix(0.59047951,0.47414519,-0.77789049,0.96875045,356.01427,255.14069)" />
  </defs>
  <path
     d="m 190.16207,4.6860673 c 11.06882,-0.3270152 20.30697,8.3809277 20.63398,19.4497437 0.3497,4.159795 -5.99725,11.260597 -11.50264,14.789466 -4.90913,3.146688 -10.97221,5.929699 -15.49156,4.614997 -7.44012,-2.752409 -12.84087,-9.803843 -13.08952,-18.220237 -0.32702,-11.068815 8.38093,-20.3069548 19.44974,-20.6339697 z"
     id="path3705-1"
     style="fill:url(#radialGradient3740);fill-opacity:1;fill-rule:nonzero;stroke:none" />
  <path
     d="m 248.90985,56.570276 c 0,20.671478 -16.75754,37.429027 -37.42902,37.429027 -20.67148,0 -37.42903,-16.757549 -37.42903,-37.429027 0,-20.67148 16.75755,-37.429025 37.42903,-37.429025 20.67148,0 37.42902,16.757545 37.42902,37.429025 z"
     id="path2828"
     style="fill:url(#radialGradient3608);fill-opacity:1;fill-rule:nonzero;stroke:none" />
  <path
     d="m 247.64818,223.52896 c 0,20.67147 -16.75754,37.42902 -37.42902,37.42902 -20.67148,0 -37.42903,-16.75755 -37.42903,-37.42902 0,-20.67148 16.75755,-37.42903 37.42903,-37.42903 20.67148,0 37.42902,16.75755 37.42902,37.42903 z"
     id="path2828-9"
     style="fill:url(#radialGradient3627);fill-opacity:1;fill-rule:nonzero;stroke:none" />
  <path
     d="m 318.78475,372.5234 c -8.30213,-11.76627 -5.49389,-28.03491 6.27238,-36.33704 4.25906,-3.36594 16.86858,-4.62772 24.6476,-1.19243 6.93655,3.06323 13.95387,10.68354 15.7734,16.5275 2.35789,10.04303 -1.40963,20.96167 -10.35635,27.27436 -11.76627,8.30212 -28.03491,5.49387 -36.33703,-6.27239 z"
     id="path3705-7-9"
     style="fill:url(#radialGradient3892);fill-opacity:1;fill-rule:nonzero;stroke:none" />
  <path
     d="m 376.7573,329.50778 c 0,20.67148 -16.75754,37.42902 -37.42902,37.42902 -20.67148,0 -37.42903,-16.75754 -37.42903,-37.42902 0,-20.67148 16.75755,-37.42903 37.42903,-37.42903 20.67148,0 37.42902,16.75755 37.42902,37.42903 z"
     id="path2828-5"
     style="fill:url(#radialGradient3627-5);fill-opacity:1;fill-rule:nonzero;stroke:none" />
  <path
     d="m 166.36944,310.12336 c 9.91041,10.44769 8.54089,27.0607 -0.47237,35.47735 -4.47058,1.66414 -12.32874,1.51301 -21.20296,-0.11792 -7.45791,-1.37065 -14.69866,-3.95421 -21.2199,-8.64156 -3.77994,-9.59866 -1.91045,-20.15512 6.03365,-27.6907 10.44769,-9.91041 26.95119,-9.47485 36.86158,0.97283 z"
     id="path3705-3-6"
     style="fill:url(#radialGradient3930);fill-opacity:1;fill-rule:nonzero;stroke:none" />
  <path
     d="m 167.74353,357.26414 c 0,20.67147 -16.75754,37.42902 -37.42902,37.42902 -20.67148,0 -37.429025,-16.75755 -37.429025,-37.42902 0,-20.67148 16.757545,-37.42903 37.429025,-37.42903 20.67148,0 37.42902,16.75755 37.42902,37.42903 z"
     id="path2828-7"
     style="fill:url(#radialGradient3627-2);fill-opacity:1;fill-rule:nonzero;stroke:none" />
  <path
     d="m 25.616812,284.03644 c -7.35671,-5.92797 -8.51493,-16.69733 -2.58695,-24.05403 2.08077,-2.89055 10.13403,-3.97291 15.66037,-3.2066 4.92781,0.68332 10.40192,2.24248 12.6023,5.60165 3.29624,5.91132 2.88577,13.47822 -1.62169,19.07203 -5.92797,7.35672 -16.69733,8.51492 -24.05403,2.58695 z"
     id="path3705-1-6"
     style="fill:url(#radialGradient4034);fill-opacity:1;fill-rule:nonzero;stroke:none" />
  <path
     d="m 61.76472,250.02367 c 0,13.4713 -10.920647,24.39195 -24.391949,24.39195 -13.471301,0 -24.391949,-10.92065 -24.391949,-24.39195 0,-13.4713 10.920648,-24.39195 24.391949,-24.39195 13.471302,0 24.391949,10.92065 24.391949,24.39195 z"
     id="path2828-6"
     style="fill:url(#radialGradient3627-21);fill-opacity:1;fill-rule:nonzero;stroke:none" />
  <path
     d="m 269.93737,33.439971 c 0,14.40036 -11.67379,26.07416 -26.07415,26.07416 -5.42054,0.29481 -14.40678,-8.22797 -18.78236,-15.51966 -3.9017,-6.50198 -7.28636,-14.48995 -5.40389,-20.31394 3.86344,-9.56535 13.23665,-16.3147103 24.18625,-16.3147103 14.40036,0 26.07415,11.6738003 26.07415,26.0741503 z"
     id="path3705"
     style="fill:url(#radialGradient3721);fill-opacity:1;fill-rule:nonzero;stroke:none" />
  <path
     d="m 249.71844,271.5201 c -13.83325,4.00145 -28.29113,-3.96878 -32.29259,-17.80203 -1.57913,-3.8635 3.69042,-14.65381 9.4791,-20.88322 5.16175,-5.55476 13.36656,-12.28741 18.22263,-12.30768 10.26219,1.05335 19.3503,8.18197 22.39289,18.70035 4.00145,13.83325 -3.9688,28.29112 -17.80203,32.29258 z"
     id="path3705-4"
     style="fill:url(#radialGradient3778);fill-opacity:1;fill-rule:nonzero;stroke:none" />
  <path
     d="m 216.18026,165.52118 c 12.87223,6.4557 17.23277,22.54462 11.61817,33.52437 -3.63844,3.08501 -11.07983,5.61469 -19.97988,7.09817 -7.47962,1.24672 -15.16742,1.27895 -22.89387,-0.91191 -6.81832,-7.74162 -8.64943,-18.30481 -3.74072,-28.09247 6.4557,-12.87223 22.12408,-18.07385 34.9963,-11.61816 z"
     id="path3705-3"
     style="fill:url(#radialGradient3816);fill-opacity:1;fill-rule:nonzero;stroke:none" />
  <path
     d="m 371.28994,358.24978 c -12.73928,6.71424 -28.50948,1.82999 -35.22372,-10.90929 -2.78816,-4.65783 -2.4121,-17.32474 1.99835,-24.59538 3.9328,-6.48323 12.39498,-12.45846 18.42489,-13.5086 10.26334,-1.0421 20.60447,4.10299 25.70978,13.78956 6.71424,12.73928 1.82997,28.50947 -10.9093,35.22371 z"
     id="path3705-7"
     style="fill:url(#radialGradient3854);fill-opacity:1;fill-rule:nonzero;stroke:none" />
  <path
     d="m 157.86057,359.89929 c 0,16.62537 -13.18664,30.10288 -29.45319,30.10288 -16.26654,0 -29.453178,-13.47751 -29.453178,-30.10288 0,-16.62536 13.186638,-30.10288 29.453178,-30.10288 16.26655,0 29.45319,13.47752 29.45319,30.10288 z"
     id="path3989"
     style="fill:url(#radialGradient3997);fill-opacity:1;fill-rule:nonzero;stroke:none" />
  <path
     d="m 74.457232,245.98299 c -3.20128,9.1358 -13.20244,13.94669 -22.33824,10.74542 -3.50441,-1.01799 -7.31075,-8.42264 -8.4657,-14.02132 -1.02988,-4.99231 -1.40139,-10.81242 1.08758,-14.08876 4.57744,-5.20954 12.02436,-7.40772 18.97095,-4.97358 9.13579,3.20127 13.94667,13.20244 10.74541,22.33824 z"
     id="path3705-1-0"
     style="fill:url(#radialGradient4072);fill-opacity:1;fill-rule:nonzero;stroke:none" />
  <g
     transform="translate(396.10264,-3.5684923)"
     id="text4093"
     style="font-size:18px;font-style:normal;font-weight:normal;fill:#000000;fill-opacity:1;stroke:none;font-family:Times New Roman;-inkscape-font-specification:Times New Roman">
    <path
       d="m -189.26022,106.30528 c -0.94337,-0.77343 -1.55127,-1.39452 -1.82373,-1.86328 -0.27247,-0.46874 -0.4087,-0.95507 -0.4087,-1.45898 0,-0.77343 0.29883,-1.43993 0.89649,-1.99951 0.59765,-0.55956 1.3916,-0.83935 2.38184,-0.83936 0.96093,1e-5 1.73436,0.26075 2.32031,0.78223 0.58593,0.52149 0.8789,1.11622 0.8789,1.78418 0,0.44532 -0.15821,0.89942 -0.47461,1.3623 -0.31641,0.4629 -0.97559,1.00782 -1.97753,1.63477 1.03124,0.79688 1.71386,1.42383 2.04785,1.88086 0.4453,0.59766 0.66796,1.22754 0.66797,1.88964 -1e-5,0.8379 -0.31935,1.5542 -0.95801,2.14893 -0.63868,0.59473 -1.47657,0.89209 -2.51367,0.89209 -1.13087,0 -2.0127,-0.35449 -2.64551,-1.06348 -0.50391,-0.56835 -0.75586,-1.18945 -0.75586,-1.86328 0,-0.52734 0.17724,-1.05029 0.53174,-1.56885 0.35449,-0.51855 0.96533,-1.0913 1.83252,-1.71826 z m 1.37988,-0.94043 c 0.70312,-0.6328 1.14843,-1.13231 1.33594,-1.49853 0.18749,-0.3662 0.28124,-0.78075 0.28125,-1.24365 -1e-5,-0.61523 -0.17286,-1.09716 -0.51856,-1.44581 -0.34571,-0.34862 -0.81739,-0.52293 -1.41504,-0.52294 -0.59766,1e-5 -1.08398,0.17286 -1.45898,0.51855 -0.375,0.34571 -0.5625,0.75001 -0.5625,1.21289 0,0.3047 0.0776,0.60939 0.23291,0.91406 0.15527,0.3047 0.37646,0.59474 0.66357,0.87012 z m -0.9668,1.27442 c -0.48633,0.41016 -0.84668,0.85694 -1.08105,1.34033 -0.23438,0.4834 -0.35157,1.00635 -0.35156,1.56885 -1e-5,0.75586 0.20654,1.36084 0.61962,1.81494 0.41309,0.4541 0.93897,0.68115 1.57764,0.68115 0.63281,0 1.13964,-0.17871 1.52051,-0.53613 0.38085,-0.35742 0.57128,-0.79102 0.57129,-1.30078 -1e-5,-0.42188 -0.11134,-0.79981 -0.33399,-1.13379 -0.41602,-0.62109 -1.25684,-1.43262 -2.52246,-2.43457 z"
       id="path4284" />
    <path
       d="m -182.98483,107.60606 4.54394,0 0,1.32715 -4.54394,0 z"
       id="path4286" />
  </g>
  <g
     transform="translate(396.10264,-3.5684923)"
     id="text4097"
     style="font-size:18px;font-style:normal;font-weight:normal;fill:#000000;fill-opacity:1;stroke:none;font-family:Times New Roman;-inkscape-font-specification:Times New Roman">
    <path
       d="m -189.75293,157.67226 c -0.94336,-0.77343 -1.55127,-1.39453 -1.82373,-1.86328 -0.27246,-0.46875 -0.40869,-0.95507 -0.40869,-1.45899 0,-0.77343 0.29883,-1.43993 0.89648,-1.99951 0.59766,-0.55956 1.3916,-0.83934 2.38184,-0.83936 0.96093,2e-5 1.73437,0.26076 2.32031,0.78223 0.58593,0.5215 0.8789,1.11622 0.87891,1.78418 -1e-5,0.44532 -0.15821,0.89942 -0.47461,1.3623 -0.31642,0.4629 -0.97559,1.00782 -1.97754,1.63477 1.03124,0.79688 1.71386,1.42383 2.04785,1.88086 0.44531,0.59766 0.66796,1.22754 0.66797,1.88965 -1e-5,0.83789 -0.31934,1.5542 -0.95801,2.14892 -0.63868,0.59473 -1.47657,0.89209 -2.51367,0.89209 -1.13086,0 -2.0127,-0.35449 -2.64551,-1.06347 -0.50391,-0.56836 -0.75586,-1.18945 -0.75586,-1.86328 0,-0.52734 0.17725,-1.05029 0.53174,-1.56885 0.35449,-0.51855 0.96533,-1.09131 1.83252,-1.71826 z m 1.37988,-0.94043 c 0.70312,-0.63281 1.14843,-1.13232 1.33594,-1.49854 0.18749,-0.3662 0.28124,-0.78075 0.28125,-1.24365 -10e-6,-0.61522 -0.17286,-1.09716 -0.51855,-1.4458 -0.34571,-0.34862 -0.81739,-0.52294 -1.41504,-0.52295 -0.59766,1e-5 -1.08399,0.17286 -1.45899,0.51855 -0.375,0.34572 -0.5625,0.75001 -0.5625,1.21289 0,0.3047 0.0776,0.60939 0.23291,0.91407 0.15527,0.30469 0.37646,0.59473 0.66358,0.87011 z m -0.96679,1.27441 c -0.48634,0.41016 -0.84669,0.85694 -1.08106,1.34033 -0.23438,0.48341 -0.35156,1.00635 -0.35156,1.56885 0,0.75586 0.20654,1.36084 0.61963,1.81494 0.41308,0.4541 0.93896,0.68115 1.57763,0.68115 0.63281,0 1.13965,-0.17871 1.52051,-0.53613 0.38086,-0.35742 0.57128,-0.79101 0.57129,-1.30078 -1e-5,-0.42187 -0.11133,-0.7998 -0.33398,-1.13379 -0.41602,-0.62109 -1.25684,-1.43261 -2.52246,-2.43457 z"
       id="path4289" />
    <path
       d="m -179.50488,162.43593 0,-4.38574 -4.37696,0 0,-0.72071 4.37696,0 0,-4.36816 0.70312,0 0,4.36816 4.39453,0 0,0.72071 -4.39453,0 0,4.38574 z"
       id="path4291" />
  </g>
  <g
     transform="translate(396.10264,-3.5684923)"
     id="text4097-6"
     style="font-size:18px;font-style:normal;font-weight:normal;fill:#000000;fill-opacity:1;stroke:none;font-family:Times New Roman;-inkscape-font-specification:Times New Roman">
    <path
       d="m -132.69824,275.70193 c -0.94336,-0.77343 -1.55127,-1.39452 -1.82373,-1.86328 -0.27246,-0.46874 -0.4087,-0.95507 -0.40869,-1.45898 -1e-5,-0.77343 0.29882,-1.43993 0.89648,-1.99951 0.59765,-0.55956 1.3916,-0.83935 2.38184,-0.83936 0.96093,1e-5 1.73437,0.26076 2.32031,0.78223 0.58593,0.52149 0.8789,1.11622 0.87891,1.78418 -10e-6,0.44532 -0.15822,0.89942 -0.47461,1.3623 -0.31642,0.4629 -0.9756,1.00782 -1.97754,1.63477 1.03124,0.79688 1.71386,1.42383 2.04785,1.88086 0.4453,0.59766 0.66796,1.22754 0.66797,1.88965 -1e-5,0.83789 -0.31935,1.5542 -0.95801,2.14892 -0.63868,0.59473 -1.47657,0.89209 -2.51367,0.89209 -1.13087,0 -2.0127,-0.35449 -2.64551,-1.06347 -0.50391,-0.56836 -0.75586,-1.18946 -0.75586,-1.86329 0,-0.52734 0.17724,-1.05029 0.53174,-1.56884 0.35449,-0.51855 0.96533,-1.09131 1.83252,-1.71827 z m 1.37988,-0.94042 c 0.70312,-0.63281 1.14843,-1.13232 1.33594,-1.49854 0.18749,-0.3662 0.28124,-0.78075 0.28125,-1.24365 -1e-5,-0.61523 -0.17286,-1.09716 -0.51856,-1.4458 -0.34571,-0.34862 -0.81738,-0.52294 -1.41504,-0.52295 -0.59766,1e-5 -1.08398,0.17286 -1.45898,0.51855 -0.375,0.34572 -0.5625,0.75001 -0.5625,1.21289 0,0.3047 0.0776,0.60939 0.23291,0.91407 0.15527,0.30469 0.37646,0.59473 0.66357,0.87011 z m -0.9668,1.27441 c -0.48633,0.41016 -0.84668,0.85694 -1.08105,1.34033 -0.23438,0.4834 -0.35157,1.00635 -0.35156,1.56885 -1e-5,0.75586 0.20654,1.36084 0.61963,1.81494 0.41308,0.4541 0.93896,0.68115 1.57763,0.68115 0.63281,0 1.13964,-0.17871 1.52051,-0.53613 0.38085,-0.35742 0.57128,-0.79101 0.57129,-1.30078 -1e-5,-0.42187 -0.11134,-0.7998 -0.33399,-1.13379 -0.41602,-0.62109 -1.25684,-1.43261 -2.52246,-2.43457 z"
       id="path4314" />
    <path
       d="m -122.4502,280.46561 0,-4.38575 -4.37695,0 0,-0.7207 4.37695,0 0,-4.36816 0.70313,0 0,4.36816 4.39453,0 0,0.7207 -4.39453,0 0,4.38575 z"
       id="path4316" />
  </g>
  <g
     transform="translate(396.10264,-3.5684923)"
     id="text4097-8"
     style="font-size:18px;font-style:normal;font-weight:normal;fill:#000000;fill-opacity:1;stroke:none;font-family:Times New Roman;-inkscape-font-specification:Times New Roman">
    <path
       d="m -237.48756,300.44226 c -0.94337,-0.77343 -1.55128,-1.39452 -1.82373,-1.86328 -0.27247,-0.46874 -0.4087,-0.95507 -0.4087,-1.45898 0,-0.77343 0.29883,-1.43994 0.89649,-1.99952 0.59765,-0.55956 1.3916,-0.83934 2.38183,-0.83935 0.96094,10e-6 1.73437,0.26075 2.32032,0.78222 0.58593,0.5215 0.8789,1.11623 0.8789,1.78418 0,0.44533 -0.15821,0.89943 -0.47461,1.36231 -0.31641,0.4629 -0.97559,1.00782 -1.97754,1.63476 1.03125,0.79689 1.71386,1.42384 2.04786,1.88086 0.4453,0.59766 0.66796,1.22755 0.66796,1.88965 0,0.83789 -0.31934,1.5542 -0.958,2.14893 -0.63868,0.59472 -1.47657,0.89209 -2.51367,0.89209 -1.13087,0 -2.0127,-0.35449 -2.64551,-1.06348 -0.50391,-0.56836 -0.75586,-1.18945 -0.75586,-1.86328 0,-0.52734 0.17724,-1.05029 0.53174,-1.56885 0.35449,-0.51855 0.96533,-1.0913 1.83252,-1.71826 z m 1.37988,-0.94043 c 0.70312,-0.6328 1.14843,-1.13232 1.33594,-1.49853 0.18749,-0.36621 0.28124,-0.78076 0.28125,-1.24366 -1e-5,-0.61522 -0.17286,-1.09715 -0.51856,-1.4458 -0.34571,-0.34862 -0.81739,-0.52293 -1.41504,-0.52295 -0.59766,2e-5 -1.08399,0.17287 -1.45898,0.51856 -0.375,0.34571 -0.5625,0.75001 -0.5625,1.21289 0,0.3047 0.0776,0.60938 0.23291,0.91406 0.15527,0.3047 0.37646,0.59474 0.66357,0.87012 z m -0.9668,1.27442 c -0.48633,0.41016 -0.84668,0.85693 -1.08105,1.34033 -0.23438,0.4834 -0.35157,1.00635 -0.35157,1.56884 0,0.75587 0.20654,1.36085 0.61963,1.81495 0.41309,0.4541 0.93896,0.68115 1.57764,0.68115 0.63281,0 1.13964,-0.17871 1.52051,-0.53613 0.38085,-0.35742 0.57128,-0.79102 0.57129,-1.30079 -1e-5,-0.42187 -0.11134,-0.7998 -0.33399,-1.13378 -0.41602,-0.62109 -1.25684,-1.43262 -2.52246,-2.43457 z"
       id="path4304" />
    <path
       d="m -227.23952,305.20593 0,-4.38574 -4.37695,0 0,-0.7207 4.37695,0 0,-4.36817 0.70313,0 0,4.36817 4.39453,0 0,0.7207 -4.39453,0 0,4.38574 z"
       id="path4306" />
  </g>
  <g
     transform="translate(396.10264,-3.5684923)"
     id="text4097-4"
     style="font-size:18px;font-style:normal;font-weight:normal;fill:#000000;fill-opacity:1;stroke:none;font-family:Times New Roman;-inkscape-font-specification:Times New Roman">
    <path
       d="m -316.85724,238.00542 c -0.94336,-0.77343 -1.55127,-1.39453 -1.82373,-1.86328 -0.27246,-0.46875 -0.40869,-0.95507 -0.40869,-1.45899 0,-0.77343 0.29883,-1.43993 0.89648,-1.99951 0.59766,-0.55956 1.3916,-0.83934 2.38184,-0.83936 0.96093,2e-5 1.73437,0.26076 2.32031,0.78223 0.58593,0.5215 0.8789,1.11622 0.87891,1.78418 -10e-6,0.44532 -0.15821,0.89942 -0.47461,1.3623 -0.31641,0.4629 -0.97559,1.00782 -1.97754,1.63477 1.03124,0.79688 1.71386,1.42383 2.04785,1.88086 0.44531,0.59766 0.66796,1.22754 0.66797,1.88965 -10e-6,0.83789 -0.31934,1.5542 -0.95801,2.14892 -0.63868,0.59473 -1.47657,0.89209 -2.51367,0.89209 -1.13086,0 -2.0127,-0.35449 -2.64551,-1.06347 -0.5039,-0.56836 -0.75586,-1.18945 -0.75586,-1.86328 0,-0.52734 0.17725,-1.05029 0.53174,-1.56885 0.35449,-0.51855 0.96533,-1.0913 1.83252,-1.71826 z m 1.37988,-0.94043 c 0.70312,-0.63281 1.14844,-1.13232 1.33594,-1.49854 0.1875,-0.3662 0.28125,-0.78075 0.28125,-1.24365 0,-0.61522 -0.17286,-1.09716 -0.51855,-1.4458 -0.34571,-0.34862 -0.81739,-0.52294 -1.41504,-0.52295 -0.59766,1e-5 -1.08399,0.17286 -1.45899,0.51855 -0.375,0.34572 -0.5625,0.75001 -0.5625,1.21289 0,0.3047 0.0776,0.60939 0.23291,0.91407 0.15527,0.30469 0.37647,0.59473 0.66358,0.87011 z m -0.96679,1.27441 c -0.48633,0.41016 -0.84669,0.85694 -1.08106,1.34033 -0.23438,0.48341 -0.35156,1.00635 -0.35156,1.56885 0,0.75586 0.20654,1.36084 0.61963,1.81494 0.41308,0.4541 0.93896,0.68115 1.57764,0.68115 0.6328,0 1.13964,-0.17871 1.5205,-0.53613 0.38086,-0.35742 0.57129,-0.79101 0.57129,-1.30078 0,-0.42187 -0.11133,-0.7998 -0.33398,-1.13379 -0.41602,-0.62109 -1.25684,-1.43261 -2.52246,-2.43457 z"
       id="path4299" />
    <path
       d="m -306.60919,242.76909 0,-4.38574 -4.37696,0 0,-0.72071 4.37696,0 0,-4.36816 0.70312,0 0,4.36816 4.39453,0 0,0.72071 -4.39453,0 0,4.38574 z"
       id="path4301" />
  </g>
  <g
     transform="translate(396.10264,-3.5684923)"
     id="text4093-0"
     style="font-size:18px;font-style:normal;font-weight:normal;fill:#000000;fill-opacity:1;stroke:none;font-family:Times New Roman;-inkscape-font-specification:Times New Roman">
    <path
       d="m -98.010391,306.97574 c -0.943362,-0.77343 -1.551272,-1.39453 -1.823731,-1.86328 -0.272458,-0.46874 -0.408688,-0.95507 -0.408688,-1.45899 0,-0.77342 0.298823,-1.43993 0.896481,-1.99951 0.597654,-0.55956 1.391598,-0.83934 2.381836,-0.83935 0.960932,10e-6 1.734369,0.26075 2.320313,0.78222 0.58593,0.5215 0.878898,1.11622 0.878906,1.78418 -8e-6,0.44532 -0.158211,0.89942 -0.474609,1.36231 -0.316414,0.4629 -0.975593,1.00782 -1.977539,1.63476 1.031243,0.79688 1.71386,1.42384 2.047851,1.88086 0.445305,0.59766 0.667961,1.22754 0.667969,1.88965 -8e-6,0.83789 -0.319344,1.5542 -0.958008,2.14893 -0.638678,0.59472 -1.476568,0.89209 -2.513672,0.89209 -1.130863,0 -2.012698,-0.3545 -2.645508,-1.06348 -0.50391,-0.56836 -0.75586,-1.18945 -0.75586,-1.86328 0,-0.52734 0.17725,-1.05029 0.531739,-1.56885 0.35449,-0.51855 0.96533,-1.0913 1.83252,-1.71826 z m 1.379883,-0.94043 c 0.703119,-0.63281 1.148431,-1.13232 1.335937,-1.49854 0.187494,-0.3662 0.281244,-0.78075 0.28125,-1.24365 -6e-6,-0.61522 -0.172858,-1.09716 -0.518555,-1.4458 -0.345708,-0.34862 -0.817388,-0.52294 -1.415039,-0.52295 -0.59766,1e-5 -1.083987,0.17286 -1.458984,0.51856 -0.375003,0.34571 -0.562503,0.75001 -0.5625,1.21289 -3e-6,0.30469 0.07763,0.60938 0.23291,0.91406 0.155271,0.3047 0.376462,0.59473 0.663574,0.87012 z m -0.966797,1.27441 c -0.486332,0.41016 -0.846683,0.85694 -1.081055,1.34033 -0.234378,0.48341 -0.351565,1.00636 -0.351562,1.56885 -3e-6,0.75586 0.20654,1.36084 0.619628,1.81494 0.413083,0.45411 0.938961,0.68116 1.577637,0.68116 0.632807,0 1.139643,-0.17871 1.520508,-0.53614 0.380853,-0.35742 0.571282,-0.79101 0.571289,-1.30078 -7e-6,-0.42187 -0.111335,-0.7998 -0.333984,-1.13379 -0.416022,-0.62109 -1.256841,-1.43261 -2.522461,-2.43457 z"
       id="path4319" />
    <path
       d="m -91.735001,308.27652 4.543946,0 0,1.32715 -4.543946,0 z"
       id="path4321" />
  </g>
  <g
     transform="translate(396.10264,-3.5684923)"
     id="text4093-1"
     style="font-size:18px;font-style:normal;font-weight:normal;fill:#000000;fill-opacity:1;stroke:none;font-family:Times New Roman;-inkscape-font-specification:Times New Roman">
    <path
       d="m -216.67787,262.39737 c -0.94336,-0.77343 -1.55127,-1.39452 -1.82373,-1.86328 -0.27246,-0.46874 -0.40869,-0.95507 -0.40869,-1.45899 0,-0.77342 0.29882,-1.43993 0.89648,-1.99951 0.59765,-0.55956 1.3916,-0.83934 2.38184,-0.83935 0.96093,10e-6 1.73437,0.26075 2.32031,0.78222 0.58593,0.5215 0.8789,1.11622 0.87891,1.78418 -1e-5,0.44532 -0.15822,0.89943 -0.47461,1.36231 -0.31642,0.4629 -0.9756,1.00782 -1.97754,1.63476 1.03124,0.79688 1.71386,1.42384 2.04785,1.88086 0.4453,0.59766 0.66796,1.22755 0.66797,1.88965 -1e-5,0.83789 -0.31935,1.5542 -0.95801,2.14893 -0.63868,0.59472 -1.47657,0.89209 -2.51367,0.89209 -1.13087,0 -2.0127,-0.3545 -2.64551,-1.06348 -0.50391,-0.56836 -0.75586,-1.18945 -0.75586,-1.86328 0,-0.52734 0.17725,-1.05029 0.53174,-1.56885 0.35449,-0.51855 0.96533,-1.0913 1.83252,-1.71826 z m 1.37988,-0.94043 c 0.70312,-0.63281 1.14843,-1.13232 1.33594,-1.49854 0.18749,-0.3662 0.28124,-0.78075 0.28125,-1.24365 -1e-5,-0.61522 -0.17286,-1.09715 -0.51856,-1.4458 -0.3457,-0.34862 -0.81738,-0.52294 -1.41504,-0.52295 -0.59766,1e-5 -1.08398,0.17287 -1.45898,0.51856 -0.375,0.34571 -0.5625,0.75001 -0.5625,1.21289 0,0.30469 0.0776,0.60938 0.23291,0.91406 0.15527,0.3047 0.37646,0.59473 0.66357,0.87012 z m -0.9668,1.27441 c -0.48633,0.41017 -0.84668,0.85694 -1.08105,1.34034 -0.23438,0.4834 -0.35157,1.00635 -0.35156,1.56884 -1e-5,0.75586 0.20654,1.36084 0.61963,1.81494 0.41308,0.45411 0.93896,0.68116 1.57763,0.68116 0.63281,0 1.13965,-0.17871 1.52051,-0.53614 0.38085,-0.35742 0.57128,-0.79101 0.57129,-1.30078 -1e-5,-0.42187 -0.11134,-0.7998 -0.33398,-1.13379 -0.41603,-0.62109 -1.25685,-1.43261 -2.52247,-2.43457 z"
       id="path4309" />
    <path
       d="m -210.40248,263.69815 4.54394,0 0,1.32715 -4.54394,0 z"
       id="path4311" />
  </g>
  <g
     transform="translate(396.10264,-3.5684923)"
     id="text4093-9"
     style="font-size:18px;font-style:normal;font-weight:normal;fill:#000000;fill-opacity:1;stroke:none;font-family:Times New Roman;-inkscape-font-specification:Times New Roman">
    <path
       d="m -237.64565,229.73871 c -0.94336,-0.77343 -1.55127,-1.39453 -1.82373,-1.86328 -0.27246,-0.46874 -0.40869,-0.95507 -0.40869,-1.45899 0,-0.77342 0.29883,-1.43993 0.89649,-1.99951 0.59765,-0.55956 1.3916,-0.83934 2.38183,-0.83935 0.96094,10e-6 1.73437,0.26075 2.32032,0.78222 0.58593,0.5215 0.87889,1.11622 0.8789,1.78418 -1e-5,0.44532 -0.15821,0.89942 -0.47461,1.36231 -0.31641,0.4629 -0.97559,1.00782 -1.97754,1.63476 1.03125,0.79688 1.71386,1.42384 2.04786,1.88086 0.4453,0.59766 0.66796,1.22754 0.66796,1.88965 0,0.83789 -0.31934,1.5542 -0.958,2.14893 -0.63868,0.59472 -1.47657,0.89209 -2.51368,0.89209 -1.13086,0 -2.01269,-0.3545 -2.6455,-1.06348 -0.50391,-0.56836 -0.75586,-1.18945 -0.75586,-1.86328 0,-0.52734 0.17724,-1.05029 0.53174,-1.56885 0.35449,-0.51855 0.96532,-1.0913 1.83251,-1.71826 z m 1.37989,-0.94043 c 0.70312,-0.63281 1.14843,-1.13232 1.33594,-1.49854 0.18749,-0.3662 0.28124,-0.78075 0.28125,-1.24365 -1e-5,-0.61522 -0.17286,-1.09716 -0.51856,-1.4458 -0.34571,-0.34862 -0.81739,-0.52294 -1.41504,-0.52295 -0.59766,10e-6 -1.08399,0.17286 -1.45898,0.51856 -0.37501,0.34571 -0.56251,0.75001 -0.5625,1.21289 -1e-5,0.30469 0.0776,0.60938 0.23291,0.91406 0.15527,0.3047 0.37646,0.59473 0.66357,0.87012 z m -0.9668,1.27441 c -0.48633,0.41016 -0.84668,0.85694 -1.08105,1.34033 -0.23438,0.48341 -0.35157,1.00636 -0.35157,1.56885 0,0.75586 0.20654,1.36084 0.61963,1.81494 0.41308,0.45411 0.93896,0.68116 1.57764,0.68116 0.63281,0 1.13964,-0.17871 1.52051,-0.53614 0.38085,-0.35742 0.57128,-0.79101 0.57129,-1.30078 -10e-6,-0.42187 -0.11134,-0.7998 -0.33399,-1.13379 -0.41602,-0.62109 -1.25684,-1.43261 -2.52246,-2.43457 z"
       id="path4294" />
    <path
       d="m -231.37025,231.03949 4.54394,0 0,1.32715 -4.54394,0 z"
       id="path4296" />
  </g>
  <path
     d="m 99.690342,234.09751 51.186148,-6.29588"
     id="path4195"
     style="fill:none;stroke:#000000;stroke-width:3.79999995;stroke-linecap:butt;stroke-linejoin:miter;stroke-miterlimit:4;stroke-opacity:1;stroke-dasharray:3.79999995, 7.5999999;stroke-dashoffset:0" />
  <path
     d="m 207.03458,141.71067 0.86792,-31.82561"
     id="path4195-1"
     style="fill:none;stroke:#000000;stroke-width:3.79999995;stroke-linecap:butt;stroke-linejoin:miter;stroke-miterlimit:4;stroke-opacity:1;stroke-dasharray:3.79999995, 7.5999999;stroke-dashoffset:0" />
  <path
     d="m 163.44373,289.05312 14.64699,-23.34389"
     id="path4195-5"
     style="fill:none;stroke:#000000;stroke-width:3.79999995;stroke-linecap:butt;stroke-linejoin:miter;stroke-miterlimit:4;stroke-opacity:1;stroke-dasharray:3.79999995, 7.5999999;stroke-dashoffset:0" />
  <path
     d="m 274.02034,277.97811 20.71947,18.72583"
     id="path4195-8"
     style="fill:none;stroke:#000000;stroke-width:3.79999995;stroke-linecap:butt;stroke-linejoin:miter;stroke-miterlimit:4;stroke-opacity:1;stroke-dasharray:3.79999995, 7.5999999;stroke-dashoffset:0" />
  <path
     d="M 216.48853,124.60509 323.5433,148.39504 292.61636,276.86076"
     id="path4277"
     style="fill:none;stroke:#000000;stroke-width:2;stroke-linecap:butt;stroke-linejoin:miter;stroke-miterlimit:4;stroke-opacity:1;stroke-dasharray:none" />
  <g
     transform="translate(396.10264,-3.5684923)"
     id="text4279"
     style="font-size:18px;font-style:normal;font-weight:normal;fill:#000000;fill-opacity:1;stroke:none;font-family:Times New Roman;-inkscape-font-specification:Times New Roman">
    <path
       d="m -57.280586,142.19028 6.445312,0 0,-22.2461 -7.011718,1.40625 0,-3.59375 6.972656,-1.40625 3.945312,0 0,25.83985 6.445313,0 0,3.32031 -16.796875,0 z"
       id="path4325"
       style="font-size:40px;font-family:DejaVu Sans;-inkscape-font-specification:DejaVu Sans" />
  </g>
  <g
     transform="translate(396.10264,-3.5684923)"
     id="text4327"
     style="font-size:18px;font-style:normal;font-variant:normal;font-weight:normal;font-stretch:normal;fill:#000000;fill-opacity:1;stroke:none;font-family:DejaVu Sans;-inkscape-font-specification:DejaVu Sans">
    <path
       d="m -189.14772,184.63712 1.77539,0 0,5.3789 6.45117,0 0,-5.3789 1.77539,0 0,13.12207 -1.77539,0 0,-6.24903 -6.45117,0 0,6.24903 -1.77539,0 z"
       id="path4343" />
  </g>
  <g
     transform="translate(396.10264,-3.5684923)"
     id="text4331"
     style="font-size:18px;font-style:normal;font-weight:normal;fill:#000000;fill-opacity:1;stroke:none;font-family:Times New Roman;-inkscape-font-specification:Times New Roman">
    <path
       d="m -184.03395,222.74055 c 1.54687,2e-5 2.8872,0.58742 4.021,1.76221 1.13377,1.17482 1.70067,2.64112 1.70068,4.39893 -10e-6,1.81055 -0.5713,3.31348 -1.71387,4.50879 -1.14259,1.19531 -2.5254,1.79297 -4.14844,1.79297 -1.64063,0 -3.01904,-0.58301 -4.13525,-1.74903 -1.11621,-1.16601 -1.67432,-2.6748 -1.67432,-4.52637 0,-1.89257 0.64453,-3.43651 1.9336,-4.63183 1.11913,-1.0371 2.458,-1.55565 4.0166,-1.55567 z m -0.16699,0.64161 c -1.06641,1e-5 -1.92188,0.39552 -2.56641,1.18652 -0.80274,0.98438 -1.2041,2.42579 -1.2041,4.32422 0,1.94532 0.41601,3.44238 1.24805,4.49121 0.63866,0.79688 1.48241,1.19531 2.53125,1.19531 1.11913,0 2.04344,-0.43652 2.77295,-1.30957 0.72948,-0.87304 1.09422,-2.24999 1.09423,-4.13086 -1e-5,-2.03905 -0.40137,-3.55956 -1.2041,-4.56152 -0.64454,-0.79686 -1.53516,-1.1953 -2.67187,-1.19531 z"
       id="path4340" />
  </g>
  <g
     transform="translate(396.10264,-3.5684923)"
     id="text4335"
     style="font-size:18px;font-style:normal;font-weight:normal;fill:#000000;fill-opacity:1;stroke:none;font-family:Times New Roman;-inkscape-font-specification:Times New Roman">
    <path
       d="m -153.90822,250.24966 5.53711,0 0,-3.41015 c -1e-5,-0.60937 -0.0381,-1.01073 -0.11426,-1.2041 -0.0586,-0.14648 -0.18165,-0.27245 -0.36914,-0.37793 -0.25196,-0.14062 -0.51856,-0.21093 -0.7998,-0.21094 l -0.42188,0 0,-0.3252 5.09766,0 0,0.3252 -0.42188,0 c -0.28126,1e-5 -0.54786,0.0674 -0.7998,0.20215 -0.18751,0.0938 -0.31495,0.23585 -0.38232,0.42627 -0.0674,0.19044 -0.10109,0.57862 -0.10108,1.16455 l 0,7.69043 c -1e-5,0.60351 0.0381,1.00195 0.11426,1.19531 0.0586,0.14649 0.1787,0.27246 0.36035,0.37793 0.2578,0.14063 0.52733,0.21094 0.80859,0.21094 l 0.42188,0 0,0.32519 -5.09766,0 0,-0.32519 0.42188,0 c 0.48632,0 0.84081,-0.14356 1.06347,-0.43067 0.14648,-0.1875 0.21972,-0.63867 0.21973,-1.35351 l 0,-3.62989 -5.53711,0 0,3.62989 c 0,0.60351 0.0381,1.00195 0.11426,1.19531 0.0586,0.14649 0.18164,0.27246 0.36914,0.37793 0.25195,0.14063 0.51855,0.21094 0.7998,0.21094 l 0.43067,0 0,0.32519 -5.10645,0 0,-0.32519 0.42188,0 c 0.49218,0 0.84961,-0.14356 1.07226,-0.43067 0.14063,-0.1875 0.21094,-0.63867 0.21094,-1.35351 l 0,-7.69043 c 0,-0.60937 -0.0381,-1.01073 -0.11426,-1.2041 -0.0586,-0.14648 -0.17871,-0.27245 -0.36035,-0.37793 -0.25781,-0.14062 -0.52734,-0.21093 -0.80859,-0.21094 l -0.42188,0 0,-0.3252 5.10645,0 0,0.3252 -0.43067,0 c -0.28125,1e-5 -0.54785,0.0674 -0.7998,0.20215 -0.18164,0.0938 -0.30762,0.23585 -0.37793,0.42627 -0.0703,0.19044 -0.10547,0.57862 -0.10547,1.16455 z"
       id="path4346" />
  </g>
  <path
     d="m 212.02791,195.97494 0.0743,21.18792"
     id="path4348"
     style="fill:none;stroke:#000000;stroke-width:1px;stroke-linecap:butt;stroke-linejoin:miter;stroke-opacity:1" />
  <path
     d="m 218.63018,230.25778 18.29396,13.24735"
     id="path4350"
     style="fill:none;stroke:#000000;stroke-width:1px;stroke-linecap:butt;stroke-linejoin:miter;stroke-opacity:1" />
</svg>
