<?xml version="1.0" encoding="UTF-8" standalone="no"?>
<svg
   xmlns:dc="http://purl.org/dc/elements/1.1/"
   xmlns:cc="http://creativecommons.org/ns#"
   xmlns:rdf="http://www.w3.org/1999/02/22-rdf-syntax-ns#"
   xmlns:svg="http://www.w3.org/2000/svg"
   xmlns="http://www.w3.org/2000/svg"
   xmlns:sodipodi="http://sodipodi.sourceforge.net/DTD/sodipodi-0.dtd"
   xmlns:inkscape="http://www.inkscape.org/namespaces/inkscape"
   version="1.0"
   width="220"
   height="220"
   id="svg2"
   sodipodi:docname="lattice-.svg"
   inkscape:version="1.0.1 (1.0.1+r74)">
  <metadata
     id="metadata84">
    <rdf:RDF>
      <cc:Work
         rdf:about="">
        <dc:format>image/svg+xml</dc:format>
        <dc:type
           rdf:resource="http://purl.org/dc/dcmitype/StillImage" />
        <dc:title></dc:title>
      </cc:Work>
    </rdf:RDF>
  </metadata>
  <sodipodi:namedview
     pagecolor="#ffffff"
     bordercolor="#666666"
     borderopacity="1"
     objecttolerance="1"
     gridtolerance="10"
     guidetolerance="10"
     inkscape:pageopacity="0"
     inkscape:pageshadow="2"
     inkscape:window-width="1920"
     inkscape:window-height="1051"
     id="namedview82"
     showgrid="false"
     inkscape:zoom="6.5592536"
     inkscape:cx="110"
     inkscape:cy="85.606981"
     inkscape:window-x="1"
     inkscape:window-y="0"
     inkscape:window-maximized="1"
     inkscape:current-layer="svg2" />
  <defs
     id="defs4" />
  <g
     id="g1565">
    <path
       style="font-variation-settings:normal;opacity:1;vector-effect:none;fill:none;fill-opacity:1;stroke:#000000;stroke-width:1px;stroke-linecap:butt;stroke-linejoin:miter;stroke-miterlimit:4;stroke-dasharray:none;stroke-dashoffset:0;stroke-opacity:1;stop-color:#000000;stop-opacity:1"
       d="M 12.703885,69.5 207.84745,69.300274"
       id="path909-7"
       sodipodi:nodetypes="cc" />
    <path
       style="fill:none;stroke:#000000;stroke-width:1px;stroke-linecap:butt;stroke-linejoin:miter;stroke-opacity:1"
       d="M 36.935723,8.2301023 155.69402,213.91618"
       id="path1081-9-1-2-7"
       sodipodi:nodetypes="cc" />
    <path
       style="fill:none;stroke:#000000;stroke-width:1px;stroke-linecap:butt;stroke-linejoin:miter;stroke-opacity:1"
       d="M 107.27957,8.0733414 5.241619,185.71025"
       id="path1081-6"
       sodipodi:nodetypes="cc" />
    <g
       transform="translate(9.703885,3.5)"
       id="g2994">
      <path
         d="m 60,45 a 5,5 0 1 1 -10,0 5,5 0 1 1 10,0 z"
         transform="matrix(0.6,0,0,0.6,-17.411543,174)"
         id="path3511"
         style="opacity:1;fill:#000000;fill-opacity:1;stroke:none;stroke-width:1.5;stroke-miterlimit:4;stroke-dasharray:none;stroke-opacity:1" />
      <path
         d="m 60,45 a 5,5 0 1 1 -10,0 5,5 0 1 1 10,0 z"
         transform="matrix(0.6,0,0,0.6,13.765372,174)"
         id="path3513"
         style="opacity:1;fill:#000000;fill-opacity:1;stroke:none;stroke-width:1.5;stroke-miterlimit:4;stroke-dasharray:none;stroke-opacity:1" />
      <path
         d="m 60,45 a 5,5 0 1 1 -10,0 5,5 0 1 1 10,0 z"
         transform="matrix(0.6,0,0,0.6,76.119201,174)"
         id="path3521"
         style="opacity:1;fill:#000000;fill-opacity:1;stroke:none;stroke-width:1.5;stroke-miterlimit:4;stroke-dasharray:none;stroke-opacity:1" />
      <path
         d="m 60,45 a 5,5 0 1 1 -10,0 5,5 0 1 1 10,0 z"
         transform="matrix(0.6,0,0,0.6,138.47303,174)"
         id="path3529"
         style="opacity:1;fill:#000000;fill-opacity:1;stroke:none;stroke-width:1.5;stroke-miterlimit:4;stroke-dasharray:none;stroke-opacity:1" />
      <path
         d="m 60,45 a 5,5 0 1 1 -10,0 5,5 0 1 1 10,0 z"
         transform="matrix(0.6,0,0,0.6,44.942286,174)"
         id="path2635"
         style="opacity:1;fill:#000000;fill-opacity:1;stroke:none;stroke-width:1.5;stroke-miterlimit:4;stroke-dasharray:none;stroke-opacity:1" />
      <path
         d="m 60,45 a 5,5 0 1 1 -10,0 5,5 0 1 1 10,0 z"
         transform="matrix(0.6,0,0,0.6,107.29612,174)"
         id="path2637"
         style="opacity:1;fill:#000000;fill-opacity:1;stroke:none;stroke-width:1.5;stroke-miterlimit:4;stroke-dasharray:none;stroke-opacity:1" />
      <path
         d="m 60,45 a 5,5 0 1 1 -10,0 5,5 0 1 1 10,0 z"
         transform="matrix(0.6,0,0,0.6,169.64994,174)"
         id="path2639"
         style="opacity:1;fill:#000000;fill-opacity:1;stroke:none;stroke-width:1.5;stroke-miterlimit:4;stroke-dasharray:none;stroke-opacity:1" />
      <path
         d="m 60,45 a 5,5 0 1 1 -10,0 5,5 0 1 1 10,0 z"
         transform="matrix(0.6,0,0,0.6,-1.8230855,147)"
         id="path2649"
         style="opacity:1;fill:#000000;fill-opacity:1;stroke:none;stroke-width:1.5;stroke-miterlimit:4;stroke-dasharray:none;stroke-opacity:1" />
      <path
         d="m 60,45 a 5,5 0 1 1 -10,0 5,5 0 1 1 10,0 z"
         transform="matrix(0.6,0,0,0.6,29.353829,147)"
         id="path2651"
         style="opacity:1;fill:#000000;fill-opacity:1;stroke:none;stroke-width:1.5;stroke-miterlimit:4;stroke-dasharray:none;stroke-opacity:1" />
      <path
         d="m 60,45 a 5,5 0 1 1 -10,0 5,5 0 1 1 10,0 z"
         transform="matrix(0.6,0,0,0.6,60.530744,147)"
         id="path2653"
         style="opacity:1;fill:#000000;fill-opacity:1;stroke:none;stroke-width:1.5;stroke-miterlimit:4;stroke-dasharray:none;stroke-opacity:1" />
      <path
         d="m 60,45 a 5,5 0 1 1 -10,0 5,5 0 1 1 10,0 z"
         transform="matrix(0.6,0,0,0.6,91.707658,147)"
         id="path2655"
         style="opacity:1;fill:#000000;fill-opacity:1;stroke:none;stroke-width:1.5;stroke-miterlimit:4;stroke-dasharray:none;stroke-opacity:1" />
      <path
         d="m 60,45 a 5,5 0 1 1 -10,0 5,5 0 1 1 10,0 z"
         transform="matrix(0.6,0,0,0.6,122.88457,147)"
         id="path2657"
         style="opacity:1;fill:#000000;fill-opacity:1;stroke:none;stroke-width:1.5;stroke-miterlimit:4;stroke-dasharray:none;stroke-opacity:1" />
      <path
         d="m 60,45 a 5,5 0 1 1 -10,0 5,5 0 1 1 10,0 z"
         transform="matrix(0.6,0,0,0.6,154.06149,147)"
         id="path2659"
         style="opacity:1;fill:#000000;fill-opacity:1;stroke:none;stroke-width:1.5;stroke-miterlimit:4;stroke-dasharray:none;stroke-opacity:1" />
      <path
         d="m 60,45 a 5,5 0 1 1 -10,0 5,5 0 1 1 10,0 z"
         transform="matrix(0.6,0,0,0.6,-17.411543,120)"
         id="path2667"
         style="opacity:1;fill:#000000;fill-opacity:1;stroke:none;stroke-width:1.5;stroke-miterlimit:4;stroke-dasharray:none;stroke-opacity:1" />
      <path
         d="m 60,45 a 5,5 0 1 1 -10,0 5,5 0 1 1 10,0 z"
         transform="matrix(0.6,0,0,0.6,13.765372,120)"
         id="path2669"
         style="opacity:1;fill:#000000;fill-opacity:1;stroke:none;stroke-width:1.5;stroke-miterlimit:4;stroke-dasharray:none;stroke-opacity:1" />
      <path
         d="m 60,45 a 5,5 0 1 1 -10,0 5,5 0 1 1 10,0 z"
         transform="matrix(0.6,0,0,0.6,76.119201,120)"
         id="path2671"
         style="opacity:1;fill:#000000;fill-opacity:1;stroke:none;stroke-width:1.5;stroke-miterlimit:4;stroke-dasharray:none;stroke-opacity:1" />
      <path
         d="m 60,45 a 5,5 0 1 1 -10,0 5,5 0 1 1 10,0 z"
         transform="matrix(0.6,0,0,0.6,138.47303,120)"
         id="path2673"
         style="opacity:1;fill:#000000;fill-opacity:1;stroke:none;stroke-width:1.5;stroke-miterlimit:4;stroke-dasharray:none;stroke-opacity:1" />
      <path
         d="m 60,45 a 5,5 0 1 1 -10,0 5,5 0 1 1 10,0 z"
         transform="matrix(0.6,0,0,0.6,44.942286,120)"
         id="path2679"
         style="opacity:1;fill:#000000;fill-opacity:1;stroke:none;stroke-width:1.5;stroke-miterlimit:4;stroke-dasharray:none;stroke-opacity:1" />
      <path
         d="m 60,45 a 5,5 0 1 1 -10,0 5,5 0 1 1 10,0 z"
         transform="matrix(0.6,0,0,0.6,107.29612,120)"
         id="path2681"
         style="opacity:1;fill:#000000;fill-opacity:1;stroke:none;stroke-width:1.5;stroke-miterlimit:4;stroke-dasharray:none;stroke-opacity:1" />
      <path
         d="m 60,45 a 5,5 0 1 1 -10,0 5,5 0 1 1 10,0 z"
         transform="matrix(0.6,0,0,0.6,169.64994,120)"
         id="path2683"
         style="opacity:1;fill:#000000;fill-opacity:1;stroke:none;stroke-width:1.5;stroke-miterlimit:4;stroke-dasharray:none;stroke-opacity:1" />
      <path
         d="m 60,45 a 5,5 0 1 1 -10,0 5,5 0 1 1 10,0 z"
         transform="matrix(0.6,0,0,0.6,-1.8230855,93)"
         id="path2685"
         style="opacity:1;fill:#000000;fill-opacity:1;stroke:none;stroke-width:1.5;stroke-miterlimit:4;stroke-dasharray:none;stroke-opacity:1" />
      <path
         d="m 60,45 a 5,5 0 1 1 -10,0 5,5 0 1 1 10,0 z"
         transform="matrix(0.6,0,0,0.6,29.353829,93)"
         id="path2687"
         style="opacity:1;fill:#000000;fill-opacity:1;stroke:none;stroke-width:1.5;stroke-miterlimit:4;stroke-dasharray:none;stroke-opacity:1" />
      <path
         d="m 60,45 a 5,5 0 1 1 -10,0 5,5 0 1 1 10,0 z"
         transform="matrix(0.6,0,0,0.6,60.530744,93)"
         id="path2689"
         style="opacity:1;fill:#000000;fill-opacity:1;stroke:none;stroke-width:1.5;stroke-miterlimit:4;stroke-dasharray:none;stroke-opacity:1" />
      <path
         d="m 60,45 a 5,5 0 1 1 -10,0 5,5 0 1 1 10,0 z"
         transform="matrix(0.6,0,0,0.6,91.707658,93)"
         id="path2691"
         style="opacity:1;fill:#000000;fill-opacity:1;stroke:none;stroke-width:1.5;stroke-miterlimit:4;stroke-dasharray:none;stroke-opacity:1" />
      <path
         d="m 60,45 a 5,5 0 1 1 -10,0 5,5 0 1 1 10,0 z"
         transform="matrix(0.6,0,0,0.6,122.88457,93)"
         id="path2693"
         style="opacity:1;fill:#000000;fill-opacity:1;stroke:none;stroke-width:1.5;stroke-miterlimit:4;stroke-dasharray:none;stroke-opacity:1" />
      <path
         d="m 60,45 a 5,5 0 1 1 -10,0 5,5 0 1 1 10,0 z"
         transform="matrix(0.6,0,0,0.6,154.06149,93)"
         id="path2695"
         style="opacity:1;fill:#000000;fill-opacity:1;stroke:none;stroke-width:1.5;stroke-miterlimit:4;stroke-dasharray:none;stroke-opacity:1" />
      <path
         d="m 60,45 a 5,5 0 1 1 -10,0 5,5 0 1 1 10,0 z"
         transform="matrix(0.6,0,0,0.6,-17.411548,66)"
         id="path2703"
         style="opacity:1;fill:#000000;fill-opacity:1;stroke:none;stroke-width:1.5;stroke-miterlimit:4;stroke-dasharray:none;stroke-opacity:1" />
      <path
         d="m 60,45 a 5,5 0 1 1 -10,0 5,5 0 1 1 10,0 z"
         transform="matrix(0.6,0,0,0.6,13.765367,66)"
         id="path2705"
         style="opacity:1;fill:#000000;fill-opacity:1;stroke:none;stroke-width:1.5;stroke-miterlimit:4;stroke-dasharray:none;stroke-opacity:1" />
      <path
         d="m 60,45 a 5,5 0 1 1 -10,0 5,5 0 1 1 10,0 z"
         transform="matrix(0.6,0,0,0.6,76.119196,66)"
         id="path2707"
         style="opacity:1;fill:#000000;fill-opacity:1;stroke:none;stroke-width:1.5;stroke-miterlimit:4;stroke-dasharray:none;stroke-opacity:1" />
      <path
         d="m 60,45 a 5,5 0 1 1 -10,0 5,5 0 1 1 10,0 z"
         transform="matrix(0.6,0,0,0.6,138.47303,66)"
         id="path2709"
         style="opacity:1;fill:#000000;fill-opacity:1;stroke:none;stroke-width:1.5;stroke-miterlimit:4;stroke-dasharray:none;stroke-opacity:1" />
      <path
         d="m 60,45 a 5,5 0 1 1 -10,0 5,5 0 1 1 10,0 z"
         transform="matrix(0.6,0,0,0.6,44.942281,66)"
         id="path2715"
         style="opacity:1;fill:#000000;fill-opacity:1;stroke:none;stroke-width:1.5;stroke-miterlimit:4;stroke-dasharray:none;stroke-opacity:1" />
      <path
         d="m 60,45 a 5,5 0 1 1 -10,0 5,5 0 1 1 10,0 z"
         transform="matrix(0.6,0,0,0.6,107.29612,66)"
         id="path2717"
         style="opacity:1;fill:#000000;fill-opacity:1;stroke:none;stroke-width:1.5;stroke-miterlimit:4;stroke-dasharray:none;stroke-opacity:1" />
      <path
         d="m 60,45 a 5,5 0 1 1 -10,0 5,5 0 1 1 10,0 z"
         transform="matrix(0.6,0,0,0.6,169.64994,66)"
         id="path2719"
         style="opacity:1;fill:#000000;fill-opacity:1;stroke:none;stroke-width:1.5;stroke-miterlimit:4;stroke-dasharray:none;stroke-opacity:1" />
      <path
         d="m 60,45 a 5,5 0 1 1 -10,0 5,5 0 1 1 10,0 z"
         transform="matrix(0.6,0,0,0.6,-1.8230901,39)"
         id="path2721"
         style="opacity:1;fill:#000000;fill-opacity:1;stroke:none;stroke-width:1.5;stroke-miterlimit:4;stroke-dasharray:none;stroke-opacity:1" />
      <path
         d="m 60,45 a 5,5 0 1 1 -10,0 5,5 0 1 1 10,0 z"
         transform="matrix(0.6,0,0,0.6,29.353824,39)"
         id="path2723"
         style="opacity:1;fill:#ff0000;fill-opacity:1;stroke:none;stroke-width:1.5;stroke-miterlimit:4;stroke-dasharray:none;stroke-opacity:1" />
      <path
         d="m 60,45 a 5,5 0 1 1 -10,0 5,5 0 1 1 10,0 z"
         transform="matrix(0.6,0,0,0.6,60.530739,39)"
         id="path2725"
         style="opacity:1;fill:#000000;fill-opacity:1;stroke:none;stroke-width:1.5;stroke-miterlimit:4;stroke-dasharray:none;stroke-opacity:1" />
      <path
         d="m 60,45 a 5,5 0 1 1 -10,0 5,5 0 1 1 10,0 z"
         transform="matrix(0.6,0,0,0.6,91.707653,39)"
         id="path2727"
         style="opacity:1;fill:#000000;fill-opacity:1;stroke:none;stroke-width:1.5;stroke-miterlimit:4;stroke-dasharray:none;stroke-opacity:1" />
      <path
         d="m 60,45 a 5,5 0 1 1 -10,0 5,5 0 1 1 10,0 z"
         transform="matrix(0.6,0,0,0.6,122.88457,39)"
         id="path2729"
         style="opacity:1;fill:#000000;fill-opacity:1;stroke:none;stroke-width:1.5;stroke-miterlimit:4;stroke-dasharray:none;stroke-opacity:1" />
      <path
         d="m 60,45 a 5,5 0 1 1 -10,0 5,5 0 1 1 10,0 z"
         transform="matrix(0.6,0,0,0.6,154.06149,39)"
         id="path2731"
         style="opacity:1;fill:#000000;fill-opacity:1;stroke:none;stroke-width:1.5;stroke-miterlimit:4;stroke-dasharray:none;stroke-opacity:1" />
      <path
         d="m 60,45 a 5,5 0 1 1 -10,0 5,5 0 1 1 10,0 z"
         transform="matrix(0.6,0,0,0.6,-17.411553,12)"
         id="path2739"
         style="opacity:1;fill:#000000;fill-opacity:1;stroke:none;stroke-width:1.5;stroke-miterlimit:4;stroke-dasharray:none;stroke-opacity:1" />
      <path
         d="m 60,45 a 5,5 0 1 1 -10,0 5,5 0 1 1 10,0 z"
         transform="matrix(0.6,0,0,0.6,13.765362,12)"
         id="path2741"
         style="opacity:1;fill:#000000;fill-opacity:1;stroke:none;stroke-width:1.5;stroke-miterlimit:4;stroke-dasharray:none;stroke-opacity:1" />
      <path
         d="m 60,45 a 5,5 0 1 1 -10,0 5,5 0 1 1 10,0 z"
         transform="matrix(0.6,0,0,0.6,76.119191,12)"
         id="path2743"
         style="opacity:1;fill:#000000;fill-opacity:1;stroke:none;stroke-width:1.5;stroke-miterlimit:4;stroke-dasharray:none;stroke-opacity:1" />
      <path
         d="m 60,45 a 5,5 0 1 1 -10,0 5,5 0 1 1 10,0 z"
         transform="matrix(0.6,0,0,0.6,138.47303,12)"
         id="path2745"
         style="opacity:1;fill:#000000;fill-opacity:1;stroke:none;stroke-width:1.5;stroke-miterlimit:4;stroke-dasharray:none;stroke-opacity:1" />
      <path
         d="m 60,45 a 5,5 0 1 1 -10,0 5,5 0 1 1 10,0 z"
         transform="matrix(0.6,0,0,0.6,44.942276,12)"
         id="path2751"
         style="opacity:1;fill:#000000;fill-opacity:1;stroke:none;stroke-width:1.5;stroke-miterlimit:4;stroke-dasharray:none;stroke-opacity:1" />
      <path
         d="m 60,45 a 5,5 0 1 1 -10,0 5,5 0 1 1 10,0 z"
         transform="matrix(0.6,0,0,0.6,107.29612,12)"
         id="path2753"
         style="opacity:1;fill:#000000;fill-opacity:1;stroke:none;stroke-width:1.5;stroke-miterlimit:4;stroke-dasharray:none;stroke-opacity:1" />
      <path
         d="m 60,45 a 5,5 0 1 1 -10,0 5,5 0 1 1 10,0 z"
         transform="matrix(0.6,0,0,0.6,169.64994,12)"
         id="path2755"
         style="opacity:1;fill:#000000;fill-opacity:1;stroke:none;stroke-width:1.5;stroke-miterlimit:4;stroke-dasharray:none;stroke-opacity:1" />
      <path
         d="m 60,45 a 5,5 0 1 1 -10,0 5,5 0 1 1 10,0 z"
         transform="matrix(0.6,0,0,0.6,-1.8230947,-15)"
         id="path2757"
         style="opacity:1;fill:#000000;fill-opacity:1;stroke:none;stroke-width:1.5;stroke-miterlimit:4;stroke-dasharray:none;stroke-opacity:1" />
      <path
         d="m 60,45 a 5,5 0 1 1 -10,0 5,5 0 1 1 10,0 z"
         transform="matrix(0.6,0,0,0.6,29.353819,-15)"
         id="path2759"
         style="opacity:1;fill:#000000;fill-opacity:1;stroke:none;stroke-width:1.5;stroke-miterlimit:4;stroke-dasharray:none;stroke-opacity:1" />
      <path
         d="m 60,45 a 5,5 0 1 1 -10,0 5,5 0 1 1 10,0 z"
         transform="matrix(0.6,0,0,0.6,60.530734,-15)"
         id="path2761"
         style="opacity:1;fill:#000000;fill-opacity:1;stroke:none;stroke-width:1.5;stroke-miterlimit:4;stroke-dasharray:none;stroke-opacity:1" />
      <path
         d="m 60,45 a 5,5 0 1 1 -10,0 5,5 0 1 1 10,0 z"
         transform="matrix(0.6,0,0,0.6,91.707648,-15)"
         id="path2763"
         style="opacity:1;fill:#000000;fill-opacity:1;stroke:none;stroke-width:1.5;stroke-miterlimit:4;stroke-dasharray:none;stroke-opacity:1" />
      <path
         d="m 60,45 a 5,5 0 1 1 -10,0 5,5 0 1 1 10,0 z"
         transform="matrix(0.6,0,0,0.6,122.88457,-15)"
         id="path2765"
         style="opacity:1;fill:#000000;fill-opacity:1;stroke:none;stroke-width:1.5;stroke-miterlimit:4;stroke-dasharray:none;stroke-opacity:1" />
      <path
         d="m 60,45 a 5,5 0 1 1 -10,0 5,5 0 1 1 10,0 z"
         transform="matrix(0.6,0,0,0.6,154.06149,-15)"
         id="path2767"
         style="opacity:1;fill:#000000;fill-opacity:1;stroke:none;stroke-width:1.5;stroke-miterlimit:4;stroke-dasharray:none;stroke-opacity:1" />
      <path
         d="m 60,45 a 5,5 0 1 1 -10,0 5,5 0 1 1 10,0 z"
         transform="matrix(0.6,0,0,0.6,-33,147)"
         id="path2986"
         style="opacity:1;fill:#000000;fill-opacity:1;stroke:none;stroke-width:1.5;stroke-miterlimit:4;stroke-dasharray:none;stroke-opacity:1" />
      <path
         d="m 60,45 a 5,5 0 1 1 -10,0 5,5 0 1 1 10,0 z"
         transform="matrix(0.6,0,0,0.6,-33,93)"
         id="path2988"
         style="opacity:1;fill:#000000;fill-opacity:1;stroke:none;stroke-width:1.5;stroke-miterlimit:4;stroke-dasharray:none;stroke-opacity:1" />
      <path
         d="m 60,45 a 5,5 0 1 1 -10,0 5,5 0 1 1 10,0 z"
         transform="matrix(0.6,0,0,0.6,-33,39)"
         id="path2990"
         style="opacity:1;fill:#000000;fill-opacity:1;stroke:none;stroke-width:1.5;stroke-miterlimit:4;stroke-dasharray:none;stroke-opacity:1" />
      <path
         d="m 60,45 a 5,5 0 1 1 -10,0 5,5 0 1 1 10,0 z"
         transform="matrix(0.6,0,0,0.6,-33,-15)"
         id="path2992"
         style="opacity:1;fill:#000000;fill-opacity:1;stroke:none;stroke-width:1.5;stroke-miterlimit:4;stroke-dasharray:none;stroke-opacity:1" />
    </g>
    <path
       style="font-variation-settings:normal;opacity:1;vector-effect:none;fill:none;fill-opacity:1;stroke:#000000;stroke-width:1px;stroke-linecap:butt;stroke-linejoin:miter;stroke-miterlimit:4;stroke-dasharray:none;stroke-dashoffset:0;stroke-opacity:1;stop-color:#000000;stop-opacity:1"
       d="M 12.703885,15.5 H 199.76537"
       id="path909" />
    <path
       style="font-variation-settings:normal;opacity:1;vector-effect:none;fill:none;fill-opacity:1;stroke:#000000;stroke-width:1px;stroke-linecap:butt;stroke-linejoin:miter;stroke-miterlimit:4;stroke-dasharray:none;stroke-dashoffset:0;stroke-opacity:1;stop-color:#000000;stop-opacity:1"
       d="M 12.703885,42.5 H 215.35382"
       id="path909-6"
       sodipodi:nodetypes="cc" />
    <path
       style="font-variation-settings:normal;opacity:1;vector-effect:none;fill:none;fill-opacity:1;stroke:#000000;stroke-width:1px;stroke-linecap:butt;stroke-linejoin:miter;stroke-miterlimit:4;stroke-dasharray:none;stroke-dashoffset:0;stroke-opacity:1;stop-color:#000000;stop-opacity:1"
       d="M 12.703885,96.5 219.31311,96.37591"
       id="path909-6-5"
       sodipodi:nodetypes="cc" />
    <path
       style="font-variation-settings:normal;opacity:1;vector-effect:none;fill:none;fill-opacity:1;stroke:#000000;stroke-width:1px;stroke-linecap:butt;stroke-linejoin:miter;stroke-miterlimit:4;stroke-dasharray:none;stroke-dashoffset:0;stroke-opacity:1;stop-color:#000000;stop-opacity:1"
       d="m 12.703885,123.5 192.788065,0.1305"
       id="path909-7-3"
       sodipodi:nodetypes="cc" />
    <path
       style="font-variation-settings:normal;opacity:1;vector-effect:none;fill:none;fill-opacity:1;stroke:#000000;stroke-width:1px;stroke-linecap:butt;stroke-linejoin:miter;stroke-miterlimit:4;stroke-dasharray:none;stroke-dashoffset:0;stroke-opacity:1;stop-color:#000000;stop-opacity:1"
       d="M 12.703885,150.5 220.05813,150.37456"
       id="path909-6-5-5"
       sodipodi:nodetypes="cc" />
    <path
       style="font-variation-settings:normal;opacity:1;vector-effect:none;fill:none;fill-opacity:1;stroke:#000000;stroke-width:1px;stroke-linecap:butt;stroke-linejoin:miter;stroke-miterlimit:4;stroke-dasharray:none;stroke-dashoffset:0;stroke-opacity:1;stop-color:#000000;stop-opacity:1"
       d="m 12.703885,177.5 195.031575,0.009"
       id="path909-7-3-6"
       sodipodi:nodetypes="cc" />
    <path
       style="font-variation-settings:normal;opacity:1;vector-effect:none;fill:none;fill-opacity:1;stroke:#000000;stroke-width:1px;stroke-linecap:butt;stroke-linejoin:miter;stroke-miterlimit:4;stroke-dasharray:none;stroke-dashoffset:0;stroke-opacity:1;stop-color:#000000;stop-opacity:1"
       d="m 12.703885,204.5 206.624755,0.0502"
       id="path909-6-5-5-2"
       sodipodi:nodetypes="cc" />
    <path
       style="fill:none;stroke:#000000;stroke-width:1px;stroke-linecap:butt;stroke-linejoin:miter;stroke-opacity:1"
       d="M 99.04032,7.9672223 217.69402,213.91618"
       id="path1081-9-1-2-7-9"
       sodipodi:nodetypes="cc" />
    <path
       style="fill:none;stroke:#000000;stroke-width:1px;stroke-linecap:butt;stroke-linejoin:miter;stroke-opacity:1"
       d="M 130.02572,7.5555952 217.28649,158.80121"
       id="path1081-9-1-2-7-9-3"
       sodipodi:nodetypes="cc" />
    <path
       style="fill:none;stroke:#000000;stroke-width:1px;stroke-linecap:butt;stroke-linejoin:miter;stroke-opacity:1"
       d="m 161.09925,7.7429008 56.6919,97.5550192"
       id="path1081-9-1-2-7-9-3-6"
       sodipodi:nodetypes="cc" />
    <path
       style="fill:none;stroke:#000000;stroke-width:1px;stroke-linecap:butt;stroke-linejoin:miter;stroke-opacity:1"
       d="M 192.40865,8.3624284 217.21147,48.927656"
       id="path1081-9-1-2-7-9-3-6-0"
       sodipodi:nodetypes="cc" />
    <path
       style="fill:none;stroke:#000000;stroke-width:1px;stroke-linecap:butt;stroke-linejoin:miter;stroke-opacity:1"
       d="M 76.801395,8.5687625 57.932692,40.957159 5.4767601,130.99851"
       id="path1081-6-2"
       sodipodi:nodetypes="ccc" />
    <path
       style="fill:none;stroke:#000000;stroke-width:1px;stroke-linecap:butt;stroke-linejoin:miter;stroke-opacity:1"
       d="M 45.29648,8.5518823 6.7361107,75.080367"
       id="path1081-6-2-6"
       sodipodi:nodetypes="cc" />
    <path
       style="fill:none;stroke:#000000;stroke-width:1px;stroke-linecap:butt;stroke-linejoin:miter;stroke-opacity:1"
       d="M 5.8211193,9.028962 126.39081,217.28357 v 0"
       id="path1081"
       sodipodi:nodetypes="ccc" />
    <path
       style="fill:none;stroke:#000000;stroke-width:1px;stroke-linecap:butt;stroke-linejoin:miter;stroke-opacity:1"
       d="M 6.4077772,63.338759 95.553103,217.69112"
       id="path1081-9"
       sodipodi:nodetypes="cc" />
    <path
       style="fill:none;stroke:#000000;stroke-width:1px;stroke-linecap:butt;stroke-linejoin:miter;stroke-opacity:1"
       d="M 5.2901452,116.66197 63.660793,216.72546"
       id="path1081-9-1"
       sodipodi:nodetypes="cc" />
    <path
       style="fill:none;stroke:#000000;stroke-width:1px;stroke-linecap:butt;stroke-linejoin:miter;stroke-opacity:1"
       d="M 8.9917157,176.60289 32.627293,217.55598"
       id="path1081-9-1-2"
       sodipodi:nodetypes="cc" />
    <path
       style="fill:none;stroke:#000000;stroke-width:1px;stroke-linecap:butt;stroke-linejoin:miter;stroke-opacity:1"
       d="M 67.962109,8.6985687 188.21596,216.71732"
       id="path1081-9-1-2-7-0"
       sodipodi:nodetypes="cc" />
    <path
       style="fill:none;stroke:#000000;stroke-width:1px;stroke-linecap:butt;stroke-linejoin:miter;stroke-opacity:1"
       d="M 138.80412,8.0274695 17.124986,217.28357 v 0"
       id="path1081-6-1"
       sodipodi:nodetypes="ccc" />
    <path
       style="fill:none;stroke:#000000;stroke-width:1px;stroke-linecap:butt;stroke-linejoin:miter;stroke-opacity:1"
       d="M 169.91496,7.9553041 49.124986,217.28357 v 0"
       id="path1081-6-1-8"
       sodipodi:nodetypes="ccc" />
    <path
       style="fill:none;stroke:#000000;stroke-width:1px;stroke-linecap:butt;stroke-linejoin:miter;stroke-opacity:1"
       d="M 200.65542,8.779111 80.305037,217.66865"
       id="path1081-6-1-8-7"
       sodipodi:nodetypes="cc" />
    <path
       style="fill:none;stroke:#000000;stroke-width:1px;stroke-linecap:butt;stroke-linejoin:miter;stroke-opacity:1"
       d="M 216.66455,36.187888 111.41827,217.31402"
       id="path1081-6-1-8-7-9"
       sodipodi:nodetypes="cc" />
    <path
       style="fill:none;stroke:#000000;stroke-width:1px;stroke-linecap:butt;stroke-linejoin:miter;stroke-opacity:1"
       d="M 217.02446,89.114639 142.84182,217.30305"
       id="path1081-6-1-8-7-9-2-0"
       sodipodi:nodetypes="cc" />
    <path
       style="fill:none;stroke:#000000;stroke-width:1px;stroke-linecap:butt;stroke-linejoin:miter;stroke-opacity:1"
       d="m 216.23904,144.85845 -43.39722,72.4446"
       id="path1081-6-1-8-7-9-2-0-2"
       sodipodi:nodetypes="cc" />
  </g>
  <path
     style="fill:#ff0000;stroke:#ff0000;stroke-width:1px;stroke-linecap:butt;stroke-linejoin:miter;stroke-opacity:1"
     d="M 56.717592,42.47753 87.85626,96.637116"
     id="path1567"
     sodipodi:nodetypes="cc" />
  <path
     style="fill:#ff0000;stroke:#ff0000;stroke-width:1px;stroke-linecap:butt;stroke-linejoin:miter;stroke-opacity:1"
     d="M 40.978472,69.284142 103.0719,69.247708"
     id="path1567-3"
     sodipodi:nodetypes="cc" />
  <path
     style="fill:#ff0000;stroke:#ff0000;stroke-width:1px;stroke-linecap:butt;stroke-linejoin:miter;stroke-opacity:1"
     d="M 87.570802,42.381293 56.807246,95.9242"
     id="path1567-3-7"
     sodipodi:nodetypes="cc" />
  <circle
     style="font-variation-settings:normal;opacity:1;vector-effect:none;fill:#1d75ea;fill-opacity:1;stroke:none;stroke-width:1px;stroke-linecap:butt;stroke-linejoin:miter;stroke-miterlimit:4;stroke-dasharray:none;stroke-dashoffset:0;stroke-opacity:1;stop-color:#000000;stop-opacity:1"
     id="path1599"
     cx="40.887474"
     cy="69.505867"
     r="2.6259999" />
  <circle
     style="font-variation-settings:normal;opacity:1;vector-effect:none;fill:#1d75ea;fill-opacity:1;stroke:none;stroke-width:1px;stroke-linecap:butt;stroke-linejoin:miter;stroke-miterlimit:4;stroke-dasharray:none;stroke-dashoffset:0;stroke-opacity:1;stop-color:#000000;stop-opacity:1"
     id="path1599-5"
     cx="103.26137"
     cy="69.528328"
     r="2.6259999" />
  <circle
     style="font-variation-settings:normal;opacity:1;vector-effect:none;fill:#1d75ea;fill-opacity:1;stroke:none;stroke-width:1px;stroke-linecap:butt;stroke-linejoin:miter;stroke-miterlimit:4;stroke-dasharray:none;stroke-dashoffset:0;stroke-opacity:1;stop-color:#000000;stop-opacity:1"
     id="path1599-5-9"
     cx="87.690781"
     cy="96.593575"
     r="2.6259999" />
  <circle
     style="font-variation-settings:normal;opacity:1;vector-effect:none;fill:#1d75ea;fill-opacity:1;stroke:none;stroke-width:1px;stroke-linecap:butt;stroke-linejoin:miter;stroke-miterlimit:4;stroke-dasharray:none;stroke-dashoffset:0;stroke-opacity:1;stop-color:#000000;stop-opacity:1"
     id="path1599-5-9-2"
     cx="56.425999"
     cy="96.593575"
     r="2.6259999" />
  <circle
     style="font-variation-settings:normal;opacity:1;vector-effect:none;fill:#1d75ea;fill-opacity:1;stroke:none;stroke-width:1px;stroke-linecap:butt;stroke-linejoin:miter;stroke-miterlimit:4;stroke-dasharray:none;stroke-dashoffset:0;stroke-opacity:1;stop-color:#000000;stop-opacity:1"
     id="path1599-5-9-28"
     cx="87.690781"
     cy="42.585999"
     r="2.6259999" />
  <circle
     style="font-variation-settings:normal;opacity:1;vector-effect:none;fill:#1d75ea;fill-opacity:1;stroke:none;stroke-width:1px;stroke-linecap:butt;stroke-linejoin:miter;stroke-miterlimit:4;stroke-dasharray:none;stroke-dashoffset:0;stroke-opacity:1;stop-color:#000000;stop-opacity:1"
     id="path1599-5-9-2-9"
     cx="56.425999"
     cy="42.585999"
     r="2.6259999" />
</svg>
