<?xml version="1.0" encoding="UTF-8" standalone="no"?>
<!-- Created with Inkscape (http://www.inkscape.org/) -->

<svg
   xmlns:ns0="http://www.iki.fi/pav/software/textext/"
   xmlns:dc="http://purl.org/dc/elements/1.1/"
   xmlns:cc="http://creativecommons.org/ns#"
   xmlns:rdf="http://www.w3.org/1999/02/22-rdf-syntax-ns#"
   xmlns:svg="http://www.w3.org/2000/svg"
   xmlns="http://www.w3.org/2000/svg"
   xmlns:xlink="http://www.w3.org/1999/xlink"
   xmlns:sodipodi="http://sodipodi.sourceforge.net/DTD/sodipodi-0.dtd"
   xmlns:inkscape="http://www.inkscape.org/namespaces/inkscape"
   width="1024px"
   height="768px"
   id="svg2985"
   version="1.1"
   inkscape:version="0.48.3.1 r9886"
   sodipodi:docname="orbit-electron.svg">
  <sodipodi:namedview
     id="base"
     pagecolor="#ffffff"
     bordercolor="#666666"
     borderopacity="1.0"
     inkscape:pageopacity="0.0"
     inkscape:pageshadow="2"
     inkscape:zoom="0.82"
     inkscape:cx="432.61698"
     inkscape:cy="391.4878"
     inkscape:current-layer="layer1"
     inkscape:document-units="px"
     showgrid="false"
     inkscape:window-width="1600"
     inkscape:window-height="880"
     inkscape:window-x="1277"
     inkscape:window-y="-3"
     inkscape:window-maximized="1" />
  <defs
     id="defs2987">
    <linearGradient
       id="linearGradient11045">
      <stop
         style="stop-color:#d7a21f;stop-opacity:0.66086954;"
         offset="0"
         id="stop11047" />
      <stop
         style="stop-color:#b40000;stop-opacity:0;"
         offset="1"
         id="stop11049" />
    </linearGradient>
    <marker
       inkscape:stockid="TriangleInS"
       orient="auto"
       refY="0.0"
       refX="0.0"
       id="TriangleInS"
       style="overflow:visible">
      <path
         id="path4078"
         d="M 5.77,0.0 L -2.88,5.0 L -2.88,-5.0 L 5.77,0.0 z "
         style="fill-rule:evenodd;stroke:#000000;stroke-width:1.0pt"
         transform="scale(-0.2)" />
    </marker>
    <marker
       inkscape:stockid="TriangleInM"
       orient="auto"
       refY="0.0"
       refX="0.0"
       id="TriangleInM"
       style="overflow:visible">
      <path
         id="path4075"
         d="M 5.77,0.0 L -2.88,5.0 L -2.88,-5.0 L 5.77,0.0 z "
         style="fill-rule:evenodd;stroke:#000000;stroke-width:1.0pt"
         transform="scale(-0.4)" />
    </marker>
    <marker
       inkscape:stockid="Arrow1Sstart"
       orient="auto"
       refY="0.0"
       refX="0.0"
       id="Arrow1Sstart"
       style="overflow:visible">
      <path
         id="path3951"
         d="M 0.0,0.0 L 5.0,-5.0 L -12.5,0.0 L 5.0,5.0 L 0.0,0.0 z "
         style="fill-rule:evenodd;stroke:#000000;stroke-width:1.0pt"
         transform="scale(0.2) translate(6,0)" />
    </marker>
    <marker
       inkscape:stockid="Arrow2Send"
       orient="auto"
       refY="0.0"
       refX="0.0"
       id="Arrow2Send"
       style="overflow:visible;">
      <path
         id="path3972"
         style="fill-rule:evenodd;stroke-width:0.62500000;stroke-linejoin:round;"
         d="M 8.7185878,4.0337352 L -2.2072895,0.016013256 L 8.7185884,-4.0017078 C 6.9730900,-1.6296469 6.9831476,1.6157441 8.7185878,4.0337352 z "
         transform="scale(0.3) rotate(180) translate(-2.3,0)" />
    </marker>
    <marker
       inkscape:stockid="Arrow2Mend"
       orient="auto"
       refY="0.0"
       refX="0.0"
       id="Arrow2Mend"
       style="overflow:visible;">
      <path
         id="path3966"
         style="fill-rule:evenodd;stroke-width:0.62500000;stroke-linejoin:round;"
         d="M 8.7185878,4.0337352 L -2.2072895,0.016013256 L 8.7185884,-4.0017078 C 6.9730900,-1.6296469 6.9831476,1.6157441 8.7185878,4.0337352 z "
         transform="scale(0.6) rotate(180) translate(0,0)" />
    </marker>
    <marker
       inkscape:stockid="Arrow1Send"
       orient="auto"
       refY="0.0"
       refX="0.0"
       id="Arrow1Send"
       style="overflow:visible;">
      <path
         id="path3954"
         d="M 0.0,0.0 L 5.0,-5.0 L -12.5,0.0 L 5.0,5.0 L 0.0,0.0 z "
         style="fill-rule:evenodd;stroke:#000000;stroke-width:1.0pt;"
         transform="scale(0.2) rotate(180) translate(6,0)" />
    </marker>
    <marker
       inkscape:stockid="TriangleOutM"
       orient="auto"
       refY="0.0"
       refX="0.0"
       id="TriangleOutM"
       style="overflow:visible">
      <path
         id="path4084"
         d="M 5.77,0.0 L -2.88,5.0 L -2.88,-5.0 L 5.77,0.0 z "
         style="fill-rule:evenodd;stroke:#000000;stroke-width:1.0pt"
         transform="scale(0.4)" />
    </marker>
    <marker
       style="overflow:visible;"
       id="Arrow1Mend"
       refX="0.0"
       refY="0.0"
       orient="auto"
       inkscape:stockid="Arrow1Mend">
      <path
         transform="scale(0.4) rotate(180) translate(10,0)"
         style="fill-rule:evenodd;stroke:#000000;stroke-width:1.0pt;"
         d="M 0.0,0.0 L 5.0,-5.0 L -12.5,0.0 L 5.0,5.0 L 0.0,0.0 z "
         id="path3948" />
    </marker>
    <marker
       style="overflow:visible"
       id="Arrow2Mstart"
       refX="0.0"
       refY="0.0"
       orient="auto"
       inkscape:stockid="Arrow2Mstart">
      <path
         transform="scale(0.6) translate(0,0)"
         d="M 8.7185878,4.0337352 L -2.2072895,0.016013256 L 8.7185884,-4.0017078 C 6.9730900,-1.6296469 6.9831476,1.6157441 8.7185878,4.0337352 z "
         style="fill-rule:evenodd;stroke-width:0.62500000;stroke-linejoin:round"
         id="path3963" />
    </marker>
    <marker
       style="overflow:visible"
       id="Arrow1Mstart"
       refX="0.0"
       refY="0.0"
       orient="auto"
       inkscape:stockid="Arrow1Mstart">
      <path
         transform="scale(0.4) translate(10,0)"
         style="fill-rule:evenodd;stroke:#000000;stroke-width:1.0pt"
         d="M 0.0,0.0 L 5.0,-5.0 L -12.5,0.0 L 5.0,5.0 L 0.0,0.0 z "
         id="path3945" />
    </marker>
    <radialGradient
       gradientUnits="userSpaceOnUse"
       id="gradient_3D_red"
       cx="240"
       cy="140"
       r="200"
       fx="260"
       fy="160">
      <stop
         stop-color="white"
         offset="0"
         id="stop3104" />
      <stop
         stop-color="red"
         offset="25%"
         id="stop3106" />
      <stop
         stop-color="rgb(192,0,0)"
         offset="50%"
         id="stop3108" />
      <stop
         stop-color="rgb(127,0,0)"
         offset="70%"
         id="stop3110" />
      <stop
         stop-color="rgb(64,0,0)"
         offset="85%"
         id="stop3112" />
      <stop
         stop-color="rgb(0,0,0)"
         offset="100%"
         id="stop3114" />
    </radialGradient>
    <radialGradient
       gradientUnits="userSpaceOnUse"
       id="gradient_3D"
       cx="240"
       cy="140"
       r="200"
       fx="260"
       fy="160">
      <stop
         stop-color="white"
         offset="0"
         id="stop3097" />
      <stop
         stop-color="#666"
         offset="50%"
         id="stop3099" />
      <stop
         stop-color="black"
         offset="100%"
         id="stop3101" />
    </radialGradient>
    <circle
       id="myCircle"
       cx="300"
       cy="200"
       r="100" />
    <radialGradient
       r="200"
       fy="160"
       fx="260"
       cy="140"
       cx="240"
       gradientUnits="userSpaceOnUse"
       id="radialGradient3142"
       xlink:href="#gradient_3D"
       inkscape:collect="always" />
    <radialGradient
       r="200"
       fy="160"
       fx="260"
       cy="140"
       cx="240"
       gradientUnits="userSpaceOnUse"
       id="radialGradient3144"
       xlink:href="#gradient_3D_red"
       inkscape:collect="always" />
    <marker
       style="overflow:visible"
       id="Arrow2Mstart-5"
       refX="0"
       refY="0"
       orient="auto"
       inkscape:stockid="Arrow2Mstart">
      <path
         transform="scale(0.6,0.6)"
         d="M 8.7185878,4.0337352 -2.2072895,0.01601326 8.7185884,-4.0017078 c -1.7454984,2.3720609 -1.7354408,5.6174519 -6e-7,8.035443 z"
         style="fill-rule:evenodd;stroke-width:0.625;stroke-linejoin:round"
         id="path3963-5"
         inkscape:connector-curvature="0" />
    </marker>
    <linearGradient
       inkscape:collect="always"
       xlink:href="#linearGradient11045"
       id="linearGradient11051"
       x1="25.704774"
       y1="314.84722"
       x2="542.58789"
       y2="314.84722"
       gradientUnits="userSpaceOnUse" />
    <radialGradient
       inkscape:collect="always"
       xlink:href="#gradient_3D"
       id="radialGradient12875"
       gradientUnits="userSpaceOnUse"
       cx="240"
       cy="140"
       fx="260"
       fy="160"
       r="200" />
    <radialGradient
       inkscape:collect="always"
       xlink:href="#gradient_3D_red"
       id="radialGradient12877"
       gradientUnits="userSpaceOnUse"
       cx="240"
       cy="140"
       fx="260"
       fy="160"
       r="200" />
  </defs>
  <metadata
     id="metadata2990">
    <rdf:RDF>
      <cc:Work
         rdf:about="">
        <dc:format>image/svg+xml</dc:format>
        <dc:type
           rdf:resource="http://purl.org/dc/dcmitype/StillImage" />
        <dc:title />
      </cc:Work>
    </rdf:RDF>
  </metadata>
  <g
     inkscape:groupmode="layer"
     inkscape:label="Layer 1"
     id="layer1">
    <path
       transform="matrix(-1.4069412,0,0,1.1994449,808.4889,174.96048)"
       sodipodi:end="10.525801"
       sodipodi:start="4.8293123"
       d="M 313.16834,194.40909 A 248.78049,117.07317 0 1 1 171.52735,206.29218"
       sodipodi:ry="117.07317"
       sodipodi:rx="248.78049"
       sodipodi:cy="310.68292"
       sodipodi:cx="284.14633"
       id="path4565"
       style="fill:url(#linearGradient11051);fill-opacity:1;stroke:#000000;stroke-width:4.60008907;stroke-linecap:butt;stroke-miterlimit:1.79999995;stroke-opacity:0.95833333;stroke-dasharray:none;stroke-dashoffset:0;marker-mid:url(#TriangleOutM)"
       sodipodi:type="arc"
       sodipodi:open="true" />
    <use
       id="use3118"
       transform="matrix(0.59265534,0,0,0.59265534,211.34227,432.07651)"
       xlink:href="#myCircle"
       style="fill:url(#radialGradient12877)"
       x="0"
       y="0"
       width="1"
       height="1" />
    <text
       sodipodi:linespacing="125%"
       id="text4569"
       y="490.48782"
       x="282.48779"
       style="font-size:20px;font-style:normal;font-variant:normal;font-weight:normal;font-stretch:normal;text-align:start;line-height:125%;letter-spacing:0px;word-spacing:0px;writing-mode:lr-tb;text-anchor:start;fill:#000000;fill-opacity:1;stroke:none;font-family:Sans;-inkscape-font-specification:Sans"
       xml:space="preserve"><tspan
         y="490.48782"
         x="282.48779"
         id="tspan4571"
         sodipodi:role="line">nucleus</tspan></text>
    <text
       sodipodi:linespacing="125%"
       id="text4573"
       y="436.58539"
       x="354.97565"
       style="font-size:20px;font-style:normal;font-variant:normal;font-weight:normal;font-stretch:normal;text-align:start;line-height:125%;letter-spacing:0px;word-spacing:0px;writing-mode:lr-tb;text-anchor:start;fill:#000000;fill-opacity:1;stroke:none;font-family:Sans;-inkscape-font-specification:Sans"
       xml:space="preserve"><tspan
         y="436.58539"
         x="354.97565"
         id="tspan4575"
         sodipodi:role="line">electron</tspan></text>
    <text
       sodipodi:linespacing="125%"
       id="text4577"
       y="460.09756"
       x="484.92682"
       style="font-size:20px;font-style:normal;font-variant:normal;font-weight:normal;font-stretch:normal;text-align:start;line-height:125%;letter-spacing:0px;word-spacing:0px;writing-mode:lr-tb;text-anchor:start;fill:#000000;fill-opacity:1;stroke:none;font-family:Sans;-inkscape-font-specification:Sans"
       xml:space="preserve"><tspan
         y="460.09756"
         x="484.92682"
         id="tspan4579"
         sodipodi:role="line">spin</tspan></text>
    <text
       sodipodi:linespacing="125%"
       id="text4581"
       y="512.34143"
       x="100.68292"
       style="font-size:20px;font-style:normal;font-variant:normal;font-weight:normal;font-stretch:normal;text-align:start;line-height:125%;letter-spacing:0px;word-spacing:0px;writing-mode:lr-tb;text-anchor:start;fill:#000000;fill-opacity:1;stroke:none;font-family:Sans;-inkscape-font-specification:Sans"
       xml:space="preserve"><tspan
         y="512.34143"
         x="100.68292"
         id="tspan4583"
         sodipodi:role="line">orbit</tspan></text>
    <path
       sodipodi:open="true"
       sodipodi:end="10.148065"
       sodipodi:start="5.5068146"
       transform="matrix(1.1600167,0,0,1.1600167,-392.0916,298.816)"
       d="m 731.81519,201.70638 a 80.487808,18.902439 0 1 1 -117.76135,0.73421"
       sodipodi:ry="18.902439"
       sodipodi:rx="80.487808"
       sodipodi:cy="214.95122"
       sodipodi:cx="674.39026"
       id="path3165-5"
       style="fill:none;stroke:#000000;stroke-width:4.5999999;stroke-miterlimit:4;stroke-opacity:1;stroke-dasharray:4.6, 4.6;stroke-dashoffset:0;marker-start:none;marker-mid:url(#TriangleInS)"
       sodipodi:type="arc" />
    <text
       sodipodi:linespacing="125%"
       id="text5545"
       y="593.21948"
       x="442.0976"
       style="font-size:20px;font-style:normal;font-variant:normal;font-weight:normal;font-stretch:normal;text-align:start;line-height:125%;letter-spacing:0px;word-spacing:0px;writing-mode:lr-tb;text-anchor:start;fill:#000000;fill-opacity:1;stroke:none;font-family:Sans;-inkscape-font-specification:Sans"
       xml:space="preserve"><tspan
         y="593.21948"
         x="442.0976"
         id="tspan5547"
         sodipodi:role="line">nuclear spin</tspan></text>
    <text
       sodipodi:linespacing="125%"
       id="text5549"
       y="535.12195"
       x="69.268303"
       style="font-size:20px;font-style:normal;font-variant:normal;font-weight:normal;font-stretch:normal;text-align:start;line-height:125%;letter-spacing:0px;word-spacing:0px;writing-mode:lr-tb;text-anchor:start;fill:#000000;fill-opacity:1;stroke:none;font-family:Sans;-inkscape-font-specification:Sans"
       xml:space="preserve"><tspan
         y="535.12195"
         x="69.268303"
         sodipodi:role="line"
         id="tspan12879">orbital magn. moment</tspan></text>
    <g
       id="g5597"
       ns0:preamble=""
       ns0:text="$\\mu_B$"
       transform="matrix(2.9031352,0,0,2.9031352,-545.78631,167.47066)">
      <defs
         id="defs5599">
        <g
           id="g5601">
          <symbol
             id="textext-e9d26888-0"
             overflow="visible"
             style="overflow:visible">
            <path
               id="path5604"
               d=""
               style="stroke:none"
               inkscape:connector-curvature="0" />
          </symbol>
          <symbol
             id="textext-e9d26888-1"
             overflow="visible"
             style="overflow:visible">
            <path
               id="path5607"
               d="m 2.296875,-3.5 c 0.0625,-0.203125 0.15625,-0.59375 0.15625,-0.640625 0,-0.171875 -0.125,-0.265625 -0.296875,-0.265625 -0.015625,0 -0.296875,0.015625 -0.390625,0.359375 l -1.4375,5.765625 c -0.03125,0.125 -0.03125,0.140625 -0.03125,0.171875 0,0.140625 0.109375,0.265625 0.28125,0.265625 0.203125,0 0.328125,-0.1875 0.34375,-0.21875 C 0.96875,1.859375 1.09375,1.328125 1.46875,-0.203125 1.796875,0.0625 2.25,0.109375 2.4375,0.109375 c 0.703125,0 1.09375,-0.453125 1.328125,-0.734375 0.09375,0.453125 0.46875,0.734375 0.90625,0.734375 0.34375,0 0.578125,-0.234375 0.734375,-0.546875 0.171875,-0.359375 0.296875,-0.96875 0.296875,-0.984375 0,-0.109375 -0.09375,-0.109375 -0.125,-0.109375 -0.09375,0 -0.109375,0.046875 -0.140625,0.1875 -0.15625,0.640625 -0.34375,1.234375 -0.75,1.234375 -0.265625,0 -0.296875,-0.265625 -0.296875,-0.453125 0,-0.21875 0.109375,-0.6875 0.1875,-1.046875 L 4.859375,-2.6875 C 4.890625,-2.828125 5,-3.203125 5.03125,-3.359375 5.078125,-3.59375 5.1875,-3.96875 5.1875,-4.03125 c 0,-0.171875 -0.140625,-0.265625 -0.296875,-0.265625 -0.046875,0 -0.3125,0.015625 -0.390625,0.34375 l -0.46875,1.875 c -0.109375,0.5 -0.21875,0.90625 -0.25,1.015625 -0.015625,0.046875 -0.484375,0.953125 -1.296875,0.953125 -0.5,0 -0.734375,-0.328125 -0.734375,-0.875 0,-0.28125 0.0625,-0.5625 0.140625,-0.84375 z"
               style="stroke:none"
               inkscape:connector-curvature="0" />
          </symbol>
          <symbol
             id="textext-e9d26888-2"
             overflow="visible"
             style="overflow:visible">
            <path
               id="path5610"
               d=""
               style="stroke:none"
               inkscape:connector-curvature="0" />
          </symbol>
          <symbol
             id="textext-e9d26888-3"
             overflow="visible"
             style="overflow:visible">
            <path
               id="path5613"
               d="M 1.328125,-0.546875 C 1.265625,-0.3125 1.25,-0.25 0.703125,-0.25 0.59375,-0.25 0.5,-0.25 0.5,-0.109375 0.5,0 0.578125,0 0.703125,0 L 3.40625,0 c 1.171875,0 2.078125,-0.796875 2.078125,-1.484375 0,-0.5 -0.453125,-0.921875 -1.203125,-1 0.84375,-0.15625 1.546875,-0.6875 1.546875,-1.28125 0,-0.53125 -0.53125,-1 -1.4375,-1 l -2.53125,0 c -0.140625,0 -0.234375,0 -0.234375,0.15625 0,0.09375 0.09375,0.09375 0.234375,0.09375 0,0 0.140625,0 0.265625,0.015625 0.140625,0.015625 0.15625,0.03125 0.15625,0.109375 0,0 0,0.046875 -0.03125,0.140625 z m 1.109375,-2.03125 0.421875,-1.6875 c 0.0625,-0.21875 0.0625,-0.25 0.359375,-0.25 l 1.0625,0 c 0.703125,0 0.875,0.46875 0.875,0.734375 0,0.5625 -0.640625,1.203125 -1.578125,1.203125 z M 2.109375,-0.25 C 1.890625,-0.25 1.875,-0.265625 1.875,-0.328125 c 0,0 0,-0.03125 0.03125,-0.140625 l 0.484375,-1.90625 1.484375,0 c 0.640625,0 0.90625,0.4375 0.90625,0.828125 0,0.703125 -0.71875,1.296875 -1.5625,1.296875 z"
               style="stroke:none"
               inkscape:connector-curvature="0" />
          </symbol>
        </g>
      </defs>
      <g
         id="textext-e9d26888-4">
        <g
           id="g5616"
           style="fill:#000000;fill-opacity:1">
          <use
             id="use5618"
             y="134.765"
             x="223.43201"
             xlink:href="#textext-e9d26888-1"
             width="1024"
             height="768" />
        </g>
        <g
           id="g5620"
           style="fill:#000000;fill-opacity:1">
          <use
             id="use5622"
             y="136.259"
             x="229.435"
             xlink:href="#textext-e9d26888-3"
             width="1024"
             height="768" />
        </g>
      </g>
    </g>
    <text
       xml:space="preserve"
       style="font-size:20px;font-style:normal;font-variant:normal;font-weight:normal;font-stretch:normal;text-align:start;line-height:125%;letter-spacing:0px;word-spacing:0px;writing-mode:lr-tb;text-anchor:start;fill:#000000;fill-opacity:1;stroke:none;font-family:Sans;-inkscape-font-specification:Sans"
       x="450.58536"
       y="487.65851"
       id="text5682"
       sodipodi:linespacing="125%"><tspan
         sodipodi:role="line"
         id="tspan5684"
         x="450.58536"
         y="487.65851">spin magnetic moment</tspan></text>
    <text
       xml:space="preserve"
       style="font-size:20px;font-style:normal;font-variant:normal;font-weight:normal;font-stretch:normal;text-align:start;line-height:125%;letter-spacing:0px;word-spacing:0px;writing-mode:lr-tb;text-anchor:start;fill:#000000;fill-opacity:1;stroke:none;font-family:Sans;-inkscape-font-specification:Sans"
       x="401.75607"
       y="623.31708"
       id="text5686"
       sodipodi:linespacing="125%"><tspan
         sodipodi:role="line"
         id="tspan5688"
         x="401.75607"
         y="623.31708">nuclear magnetic moment</tspan></text>
    <use
       transform="matrix(0.32428311,0,0,0.32428311,381.53499,347.18144)"
       id="use3116"
       xlink:href="#myCircle"
       style="fill:url(#radialGradient12875)"
       x="0"
       y="0"
       width="1"
       height="1" />
    <path
       sodipodi:open="true"
       sodipodi:end="10.298675"
       sodipodi:start="5.1939955"
       transform="matrix(0.91693845,0,0,0.91693845,-134.90263,207.89626)"
       d="m 711.6725,198.19889 a 80.487808,18.902439 0 1 1 -88.94278,2.25726"
       sodipodi:ry="18.902439"
       sodipodi:rx="80.487808"
       sodipodi:cy="214.95122"
       sodipodi:cx="674.39026"
       id="path3165"
       style="fill:none;stroke:#000000;stroke-width:4.5999999;stroke-miterlimit:4;stroke-opacity:0.95833333;stroke-dasharray:4.6, 4.6;stroke-dashoffset:0;marker-start:url(#Arrow1Sstart)"
       sodipodi:type="arc" />
  </g>
</svg>
